<svg width="394" height="333" viewBox="0 0 394 333" fill="none" xmlns="http://www.w3.org/2000/svg">
<path d="M72.9195 212.068C63.0195 191.548 55.0795 170.068 55.7495 146.848C56.9795 104.848 85.3495 71.7478 119.129 51.6178C151.179 32.5278 195.599 14.5378 233.869 29.6178C260.519 40.0678 274.809 65.7478 283.089 91.7078C291.329 117.498 318.619 121.878 340.999 129.248C369.589 138.668 389.259 156.138 393.129 187.248C397.349 221.148 370.799 251.538 343.819 268.708C305.079 293.358 258.209 295.508 213.999 291.998C162.489 287.908 97.0295 262.008 72.9195 212.068Z" fill="#81C379"/>
<path opacity="0.9" d="M72.9264 211.243C63.0224 190.595 55.0792 168.981 55.7495 145.616C56.98 103.353 85.3614 70.0462 119.155 49.7904C151.218 30.5811 195.656 12.4786 233.941 27.6529C260.602 38.1682 274.898 64.0087 283.181 90.131C291.424 116.082 318.725 120.49 341.114 127.906C369.716 137.385 389.394 154.964 393.265 186.268C397.487 220.38 370.926 250.96 343.936 268.237C305.18 293.041 258.291 295.205 214.063 291.673C162.532 287.557 97.0461 261.495 72.9264 211.243Z" fill="white"/>
<path d="M193.89 332.71C300.972 332.71 387.78 327.642 387.78 321.39C387.78 315.138 300.972 310.07 193.89 310.07C86.8075 310.07 0 315.138 0 321.39C0 327.642 86.8075 332.71 193.89 332.71Z" fill="#F5F5F5"/>
<path d="M230.92 146.32C249.421 146.32 264.42 131.322 264.42 112.82C264.42 94.3185 249.421 79.3201 230.92 79.3201C212.418 79.3201 197.42 94.3185 197.42 112.82C197.42 131.322 212.418 146.32 230.92 146.32Z" fill="#81C379"/>
<path opacity="0.7" d="M230.92 146.32C249.421 146.32 264.42 131.322 264.42 112.82C264.42 94.3185 249.421 79.3201 230.92 79.3201C212.418 79.3201 197.42 94.3185 197.42 112.82C197.42 131.322 212.418 146.32 230.92 146.32Z" fill="white"/>
<path d="M258.372 119.298C261.952 104.13 252.557 88.9308 237.389 85.3506C222.22 81.7705 207.021 91.1649 203.441 106.334C199.861 121.502 209.255 136.701 224.424 140.281C239.593 143.862 254.792 134.467 258.372 119.298Z" fill="#81C379"/>
<path opacity="0.8" d="M258.372 119.298C261.952 104.13 252.557 88.9308 237.389 85.3506C222.22 81.7705 207.021 91.1649 203.441 106.334C199.861 121.502 209.255 136.701 224.424 140.281C239.593 143.862 254.792 134.467 258.372 119.298Z" fill="white"/>
<path opacity="0.9" d="M230.92 134.06C242.65 134.06 252.16 124.55 252.16 112.82C252.16 101.089 242.65 91.58 230.92 91.58C219.189 91.58 209.68 101.089 209.68 112.82C209.68 124.55 219.189 134.06 230.92 134.06Z" fill="white"/>
<path d="M226.42 131.46C226.42 131.46 222.61 138.35 215.71 135.15C208.81 131.95 214.04 122.62 213.71 118.43C213.38 114.24 205.71 103.99 218.06 102.26C218.06 102.26 227.99 91.3399 241.46 99.0599C250.99 104.53 249.35 110.06 251.93 113.8C253.31 115.8 261.1 118.9 259.25 125.48C258.35 128.7 256.61 129.86 249.34 130.1C243.6 130.29 239.11 139.65 226.42 131.46Z" fill="#263238"/>
<path d="M234.5 208.19C234.5 208.19 183.35 204.42 179.62 218.98C175.89 233.54 182.11 278.3 183 293.57H194.71C194.71 293.57 199.71 249.06 198.02 232.51C198.02 232.51 267.02 247.93 266.67 213.65L234.5 208.19Z" fill="#81C379"/>
<path opacity="0.3" d="M234.5 208.19C234.5 208.19 183.35 204.42 179.62 218.98C175.89 233.54 182.11 278.3 183 293.57H194.71C194.71 293.57 199.71 249.06 198.02 232.51C198.02 232.51 267.02 247.93 266.67 213.65L234.5 208.19Z" fill="white"/>
<path d="M191.96 292.34L191.76 305.56L184.82 304.92L184.35 292.92L191.96 292.34Z" fill="#FFB573"/>
<path d="M180.78 305C179.933 304.955 179.132 304.599 178.53 304C178.466 303.866 178.445 303.715 178.47 303.568C178.495 303.421 178.565 303.285 178.67 303.18C178.837 302.982 179.073 302.857 179.33 302.83C180.71 302.66 183.25 304.67 183.33 304.76C183.363 304.782 183.387 304.816 183.398 304.854C183.409 304.893 183.406 304.934 183.39 304.97C183.377 305.006 183.354 305.037 183.324 305.06C183.294 305.083 183.258 305.097 183.22 305.1C182.405 305.135 181.589 305.102 180.78 305ZM179.78 303.26C179.658 303.24 179.533 303.24 179.41 303.26C179.33 303.261 179.252 303.281 179.181 303.317C179.11 303.354 179.048 303.406 179 303.47C178.82 303.68 178.86 303.8 178.9 303.87C179.19 304.45 181.2 304.76 182.71 304.8C181.819 304.095 180.801 303.569 179.71 303.25L179.78 303.26Z" fill="#81C379"/>
<path d="M183.22 305.12C183.194 305.13 183.166 305.13 183.14 305.12C182.25 304.56 180.6 302.54 180.9 301.67C180.96 301.46 181.16 301.22 181.69 301.25C181.881 301.258 182.068 301.304 182.24 301.387C182.412 301.469 182.565 301.586 182.69 301.73C183.58 302.73 183.46 304.89 183.46 304.99C183.458 305.024 183.446 305.057 183.427 305.085C183.408 305.113 183.381 305.136 183.35 305.15C183.304 305.155 183.259 305.145 183.22 305.12ZM181.76 301.6H181.65C181.31 301.6 181.27 301.71 181.24 301.75C181.11 302.29 182.16 303.83 183.06 304.56C183.106 303.643 182.865 302.734 182.37 301.96C182.214 301.777 181.998 301.656 181.76 301.62V301.6Z" fill="#81C379"/>
<path d="M184.23 304.13L192.92 305.44C193.08 305.463 193.226 305.54 193.336 305.658C193.445 305.777 193.51 305.929 193.52 306.09L194.03 313.4C194.052 313.712 193.95 314.019 193.745 314.255C193.541 314.491 193.251 314.637 192.94 314.66C192.857 314.67 192.773 314.67 192.69 314.66C189.57 314.14 186.81 313.55 182.91 312.96C178.31 312.27 179.39 312.96 173.97 312.26C170.7 311.82 170.66 308.02 172.07 308.05C178.52 308.2 179.47 306.39 182.25 304.49C182.844 304.133 183.548 304.005 184.23 304.13Z" fill="#263238"/>
<path opacity="0.1" d="M184.23 304.13L192.92 305.44C193.08 305.463 193.226 305.54 193.336 305.658C193.445 305.777 193.51 305.929 193.52 306.09L194.03 313.4C194.052 313.712 193.95 314.019 193.745 314.255C193.541 314.491 193.251 314.637 192.94 314.66C192.857 314.67 192.773 314.67 192.69 314.66C189.57 314.14 186.81 313.55 182.91 312.96C178.31 312.27 179.39 312.96 173.97 312.26C170.7 311.82 170.66 308.02 172.07 308.05C178.52 308.2 179.47 306.39 182.25 304.49C182.844 304.133 183.548 304.005 184.23 304.13Z" fill="black"/>
<path opacity="0.2" d="M191.93 294.42L191.85 299.38L184.6 299.37L184.45 295.39L191.93 294.42Z" fill="black"/>
<path d="M197.45 290.58L197.04 296.35L181.42 297.05L180.31 291.13L197.45 290.58Z" fill="#81C379"/>
<path d="M220.2 159.63C220.2 159.63 214.71 181.92 213.71 186C213.71 186 209.18 186 197.31 191.81C197.31 191.81 189.2 188.3 185.56 190.72C183.982 191.729 182.862 193.315 182.44 195.14C182.398 195.34 182.402 195.547 182.45 195.746C182.499 195.944 182.591 196.129 182.721 196.288C182.85 196.446 183.013 196.573 183.198 196.66C183.384 196.747 183.586 196.791 183.79 196.79H196.95C201.19 196.79 202.22 196.07 203.95 195.79C209.18 195.02 220.37 196.79 223.65 188.16C225.96 182.16 232.59 165.87 230.11 155.09L223.28 156.67L220.2 159.63Z" fill="#FFB573"/>
<path d="M227.25 142.31C227.25 142.31 219.69 143.63 217.25 164.04C217.25 164.04 214.92 164.82 216.05 168.04C216.05 168.04 224.62 168.29 230.12 173.41C230.12 173.41 233.38 170.96 231.75 169.09C231.8 169.05 234.87 147.3 227.25 142.31Z" fill="#81C379"/>
<path d="M239.53 123.46C239.53 123.46 241.34 136.14 250.02 135.61C250.02 135.61 246.15 153.98 236.3 153.01C226.45 152.04 228.71 140.93 228.71 140.93C228.71 140.93 233.22 140.93 232.4 136.7C231.79 134.612 231.059 132.562 230.21 130.56L239.53 123.46Z" fill="#FFB573"/>
<path d="M231.01 203C231.01 203 232.01 215.12 236.26 219C236.26 219 273.93 222 274.63 212.25C274.98 207.38 269.79 201.58 269.79 201.58L231.01 203Z" fill="#81C379"/>
<path opacity="0.2" d="M231.01 203C231.01 203 232.01 215.12 236.26 219C236.26 219 273.93 222 274.63 212.25C274.98 207.38 269.79 201.58 269.79 201.58L231.01 203Z" fill="white"/>
<path d="M267.3 146.87C265.03 138.2 258.3 134.94 248.16 135.43C247.88 140.49 245.07 149.78 236.86 150.31C229.86 150.76 231.4 142.85 232.27 138.96C224.1 142.6 222.08 147.04 222.08 147.04C219.67 160.93 220.84 170.59 222.72 176.04C223.91 179.45 226.72 186.11 227.85 189.55C229.393 194.289 230.498 199.159 231.15 204.1L271.15 203.15C270.19 191.79 270.05 157.37 267.3 146.87Z" fill="#263238"/>
<path d="M236.77 186.29C234.77 191.29 232.34 196.01 231.77 195.79C231.2 195.57 232.77 190.44 234.77 185.49C236.77 180.54 238.44 177.62 239 177.85C239.56 178.08 238.76 181.34 236.77 186.29Z" fill="#81C379"/>
<path d="M235.49 183.72L237.49 184.51C237.59 184.24 237.69 183.98 237.78 183.72L235.85 182.95C235.71 183.2 235.6 183.45 235.49 183.72Z" fill="#81C379"/>
<path opacity="0.7" d="M235.49 183.72L237.49 184.51C237.59 184.24 237.69 183.98 237.78 183.72L235.85 182.95C235.71 183.2 235.6 183.45 235.49 183.72Z" fill="white"/>
<path d="M274.01 208.33C274.01 208.33 231.12 206.46 213.01 216.33C194.9 226.2 197.29 235.51 195.96 254.16C194.63 272.81 189.57 305 189.57 305L200.71 307.16C200.71 307.16 215.94 270.93 219.71 240C219.71 240 284.4 250.15 274.01 208.33Z" fill="#81C379"/>
<path opacity="0.5" d="M274.01 208.33C274.01 208.33 231.12 206.46 213.01 216.33C194.9 226.2 197.29 235.51 195.96 254.16C194.63 272.81 189.57 305 189.57 305L200.71 307.16C200.71 307.16 215.94 270.93 219.71 240C219.71 240 284.4 250.15 274.01 208.33Z" fill="white"/>
<path d="M198.84 305.69L194.36 318.13L188 315.26L191.46 303.76L198.84 305.69Z" fill="#FFB573"/>
<path d="M184.16 314C183.27 313.54 182.44 312.9 182.34 312.36C182.326 312.212 182.356 312.064 182.428 311.933C182.499 311.803 182.608 311.698 182.74 311.63C182.963 311.499 183.228 311.46 183.48 311.52C184.84 311.81 186.59 314.52 186.67 314.65C186.692 314.683 186.703 314.721 186.703 314.76C186.703 314.799 186.692 314.837 186.67 314.87C186.645 314.9 186.612 314.923 186.575 314.935C186.538 314.947 186.498 314.949 186.46 314.94C185.668 314.694 184.898 314.379 184.16 314ZM183.75 312C183.639 311.942 183.522 311.898 183.4 311.87C183.325 311.847 183.245 311.841 183.167 311.853C183.089 311.865 183.015 311.895 182.95 311.94C182.71 312.08 182.7 312.21 182.72 312.29C182.81 312.93 184.6 313.88 186.02 314.41C185.41 313.467 184.626 312.649 183.71 312H183.75Z" fill="#81C379"/>
<path d="M186.42 314.93C186.397 314.938 186.372 314.938 186.35 314.93C185.7 314.1 184.79 311.66 185.35 310.93C185.47 310.74 185.74 310.59 186.23 310.78C186.407 310.85 186.569 310.955 186.705 311.089C186.841 311.223 186.948 311.383 187.02 311.56C187.54 312.78 186.72 314.81 186.69 314.9C186.675 314.931 186.652 314.958 186.624 314.979C186.596 315 186.564 315.014 186.53 315.02C186.486 315 186.448 314.969 186.42 314.93ZM186.19 311.13L186.09 311.07C185.78 310.94 185.69 311.07 185.66 311.07C185.36 311.53 185.85 313.33 186.46 314.31C186.8 313.458 186.87 312.523 186.66 311.63C186.571 311.406 186.404 311.221 186.19 311.11V311.13Z" fill="#81C379"/>
<path d="M187.71 314.33L195.5 318.4C195.643 318.474 195.755 318.595 195.819 318.743C195.883 318.89 195.894 319.055 195.85 319.21L193.95 326.28C193.905 326.449 193.822 326.607 193.709 326.74C193.595 326.874 193.453 326.98 193.293 327.052C193.133 327.124 192.96 327.159 192.784 327.155C192.609 327.152 192.437 327.109 192.28 327.03C189.5 325.52 187.09 324.03 183.59 322.24C179.46 320.09 180.25 321.13 175.36 318.66C172.42 317.18 173.62 313.57 174.94 314.06C180.99 316.31 182.47 314.9 185.72 314.01C186.4 313.868 187.109 313.982 187.71 314.33Z" fill="#263238"/>
<path opacity="0.2" d="M198.14 307.65L196.45 312.31L189.6 309.95L190.75 306.13L198.14 307.65Z" fill="black"/>
<path d="M204.61 305.82L202.35 311.14L187.35 306.71L188.23 300.76L204.61 305.82Z" fill="#81C379"/>
<path opacity="0.2" d="M231.03 132.58C231.58 133.922 232.041 135.298 232.41 136.7C232.453 136.931 232.483 137.165 232.5 137.4C239.2 134.86 239.78 126.88 239.78 126.88L231.03 132.58Z" fill="black"/>
<path d="M240.48 111.37C241.89 120.12 242.67 123.83 239.3 129.17C234.24 137.3 223.18 137.17 219.2 128.96C215.64 121.62 213.85 108.54 221.58 103.21C223.27 102.026 225.235 101.294 227.288 101.085C229.341 100.875 231.414 101.195 233.308 102.013C235.203 102.831 236.857 104.12 238.112 105.758C239.367 107.396 240.183 109.328 240.48 111.37Z" fill="#FFB573"/>
<path d="M219.3 119H217.62C217.62 119 218.76 120 219.3 119Z" fill="#263238"/>
<path d="M227.53 117.9C227.71 118.55 227.53 119.17 227.1 119.3C226.67 119.43 226.18 118.98 225.99 118.3C225.8 117.62 225.99 117.02 226.42 116.9C226.85 116.78 227.32 117.29 227.53 117.9Z" fill="#263238"/>
<path d="M220.21 120C220.39 120.66 220.21 121.28 219.78 121.4C219.35 121.52 218.85 121.08 218.67 120.4C218.49 119.72 218.67 119.13 219.11 119.01C219.55 118.89 220.02 119.34 220.21 120Z" fill="#263238"/>
<path d="M222.8 120.52C222.638 122.165 222.251 123.78 221.65 125.32C222.049 125.457 222.473 125.508 222.893 125.47C223.314 125.433 223.722 125.306 224.09 125.1L222.8 120.52Z" fill="#ED893E"/>
<path d="M227.4 127.57C227.098 127.713 226.783 127.827 226.46 127.91C226.436 127.919 226.411 127.924 226.386 127.923C226.361 127.921 226.336 127.915 226.313 127.904C226.29 127.892 226.27 127.876 226.254 127.857C226.238 127.837 226.227 127.814 226.22 127.79C226.213 127.739 226.224 127.687 226.251 127.643C226.279 127.599 226.321 127.566 226.37 127.55C227.181 127.34 227.932 126.941 228.561 126.387C229.19 125.833 229.679 125.139 229.99 124.36C229.997 124.334 230.009 124.31 230.025 124.29C230.042 124.269 230.063 124.252 230.086 124.24C230.11 124.227 230.135 124.22 230.162 124.219C230.188 124.217 230.215 124.221 230.24 124.23C230.29 124.246 230.332 124.281 230.356 124.328C230.381 124.375 230.386 124.43 230.37 124.48C230.105 125.167 229.706 125.794 229.196 126.324C228.686 126.855 228.076 127.279 227.4 127.57Z" fill="#263238"/>
<path d="M228.33 114.14C228.29 114.213 228.227 114.271 228.152 114.307C228.077 114.343 227.992 114.355 227.91 114.34C227.267 114.298 226.622 114.39 226.016 114.611C225.41 114.831 224.856 115.175 224.39 115.62C224.353 115.658 224.308 115.688 224.259 115.708C224.211 115.729 224.158 115.739 224.105 115.739C224.052 115.739 223.999 115.729 223.951 115.708C223.902 115.688 223.857 115.658 223.82 115.62C223.747 115.547 223.707 115.448 223.707 115.345C223.707 115.242 223.747 115.143 223.82 115.07C224.376 114.53 225.041 114.117 225.771 113.858C226.501 113.599 227.278 113.501 228.05 113.57C228.151 113.592 228.238 113.652 228.295 113.738C228.351 113.824 228.371 113.929 228.35 114.03C228.353 114.068 228.346 114.106 228.33 114.14Z" fill="#263238"/>
<path d="M216.63 116.66C216.558 116.66 216.487 116.642 216.424 116.607C216.361 116.572 216.308 116.521 216.27 116.46C216.217 116.371 216.202 116.264 216.226 116.164C216.25 116.063 216.313 115.976 216.4 115.92C216.928 115.561 217.537 115.339 218.172 115.273C218.807 115.206 219.449 115.298 220.04 115.54C220.086 115.56 220.128 115.588 220.163 115.624C220.198 115.66 220.225 115.702 220.244 115.748C220.262 115.795 220.272 115.845 220.271 115.895C220.27 115.945 220.26 115.994 220.24 116.04C220.22 116.087 220.192 116.13 220.155 116.166C220.119 116.202 220.075 116.23 220.028 116.249C219.98 116.267 219.929 116.276 219.878 116.275C219.827 116.273 219.776 116.261 219.73 116.24C219.263 116.071 218.763 116.014 218.27 116.073C217.776 116.132 217.304 116.305 216.89 116.58C216.813 116.631 216.723 116.659 216.63 116.66Z" fill="#263238"/>
<path d="M226.65 117H224.97C224.97 117 226.09 117.93 226.65 117Z" fill="#263238"/>
<path d="M218.78 103.08C218.78 103.08 214.68 96.34 211.24 102.08C212.453 101.475 213.819 101.247 215.163 101.425C216.507 101.603 217.767 102.18 218.78 103.08Z" fill="#263238"/>
<path d="M219.78 108.42C219.78 108.42 214.49 111.8 215.55 118.1C215.55 118.1 209.44 103.72 219.78 104.1C219.78 104.1 228.88 96.1 236.28 101.64C243.68 107.18 242.81 117.26 242.81 117.26L238.81 118.34C238.81 118.34 234.11 113.74 235.05 108.91C235.05 108.89 218.48 115 219.78 108.42Z" fill="#263238"/>
<path d="M244.26 117.73C244.137 118.575 243.849 119.387 243.411 120.119C242.973 120.852 242.395 121.491 241.71 122C239.87 123.33 238.15 121.86 238.04 119.71C237.92 117.78 238.73 114.76 240.89 114.29C241.648 114.14 242.435 114.297 243.078 114.726C243.721 115.155 244.168 115.822 244.32 116.58C244.378 116.963 244.358 117.355 244.26 117.73Z" fill="#FFB573"/>
<path d="M240.22 114.47C240.22 114.47 237.99 101 223.71 103.69C223.71 103.69 216.36 104.69 216.22 113.54C216.22 113.54 213.42 104.93 222.42 101.66C231.04 98.5301 240.84 103.67 240.22 114.47Z" fill="#81C379"/>
<path d="M184.64 193.9C188.991 195.098 193.488 195.68 198 195.63H229.3C236.19 195.63 239.3 193.9 239.3 193.9C239.3 193.9 212.38 195.78 209.87 192.9C201.538 194.316 193.058 194.652 184.64 193.9Z" fill="#263238"/>
<path opacity="0.9" d="M184.64 193.9C188.991 195.098 193.488 195.68 198 195.63H229.3C236.19 195.63 239.3 193.9 239.3 193.9C239.3 193.9 212.38 195.78 209.87 192.9C201.538 194.316 193.058 194.652 184.64 193.9Z" fill="white"/>
<path d="M259.06 159.63C259.06 159.63 265.2 174.17 264.19 178.29C264.19 178.29 258.69 186.04 246.82 191.85C246.82 191.85 238.71 188.34 235.07 190.76C234.268 191.27 233.577 191.936 233.036 192.717C232.495 193.498 232.115 194.38 231.92 195.31C231.883 195.494 231.887 195.684 231.933 195.866C231.978 196.048 232.063 196.217 232.181 196.363C232.3 196.508 232.449 196.625 232.618 196.706C232.788 196.787 232.973 196.829 233.16 196.83H246.46C248.831 196.856 251.192 196.519 253.46 195.83C253.46 195.83 270.87 188.69 273.16 180.45C274.41 175.97 274.53 166.88 268.96 155.13L262.13 156.71L259.06 159.63Z" fill="#FFB573"/>
<path d="M257.97 135.69C255.44 135.44 251.13 135.25 251.75 143.76C252.263 149.339 253.597 154.811 255.71 160C255.71 160 254.95 163.84 257.71 163.83C262.101 160.078 267.042 157.023 272.36 154.77C272.36 154.77 273.36 151.77 270.85 151.51C270.91 151.51 267 136.61 257.97 135.69Z" fill="#81C379"/>
<path d="M244.71 246.19L245.35 328.39H249.01L249.65 246.19H244.71Z" fill="#81C379"/>
<path opacity="0.2" d="M244.71 246.19L245.35 328.39H249.01L249.65 246.19H244.71Z" fill="white"/>
<path d="M264.2 239.7L268.56 328.39H272.21L269.25 239.7H264.2Z" fill="#81C379"/>
<path opacity="0.2" d="M264.2 239.7L268.56 328.39H272.21L269.25 239.7H264.2Z" fill="white"/>
<path d="M225.04 246.19L222.3 328.39H225.95L229.99 246.19H225.04Z" fill="#81C379"/>
<path opacity="0.2" d="M225.04 246.19L222.3 328.39H225.95L229.99 246.19H225.04Z" fill="white"/>
<path d="M226.09 235H268.28C269.972 235 271.595 235.672 272.791 236.869C273.988 238.065 274.66 239.688 274.66 241.38V249.49C274.66 250.355 274.317 251.184 273.705 251.795C273.094 252.407 272.265 252.75 271.4 252.75H222.97C222.105 252.75 221.276 252.407 220.665 251.795C220.053 251.184 219.71 250.355 219.71 249.49V241.38C219.71 239.688 220.382 238.065 221.579 236.869C222.775 235.672 224.398 235 226.09 235Z" fill="#81C379"/>
<path d="M225.71 294.63H244.5C244.935 294.63 245.352 294.803 245.66 295.11C245.967 295.418 246.14 295.835 246.14 296.27V297C246.14 297.435 245.967 297.852 245.66 298.16C245.352 298.467 244.935 298.64 244.5 298.64H225.71C225.524 298.64 225.339 298.603 225.167 298.532C224.994 298.461 224.838 298.356 224.706 298.224C224.574 298.092 224.469 297.936 224.398 297.763C224.327 297.591 224.29 297.406 224.29 297.22V296.05C224.29 295.864 224.327 295.679 224.398 295.507C224.469 295.334 224.574 295.178 224.706 295.046C224.838 294.914 224.994 294.809 225.167 294.738C225.339 294.667 225.524 294.63 225.71 294.63Z" fill="#81C379"/>
<path opacity="0.4" d="M225.71 294.63H244.5C244.935 294.63 245.352 294.803 245.66 295.11C245.967 295.418 246.14 295.835 246.14 296.27V297C246.14 297.435 245.967 297.852 245.66 298.16C245.352 298.467 244.935 298.64 244.5 298.64H225.71C225.524 298.64 225.339 298.603 225.167 298.532C224.994 298.461 224.838 298.356 224.706 298.224C224.574 298.092 224.469 297.936 224.398 297.763C224.327 297.591 224.29 297.406 224.29 297.22V296.05C224.29 295.864 224.327 295.679 224.398 295.507C224.469 295.334 224.574 295.178 224.706 295.046C224.838 294.914 224.994 294.809 225.167 294.738C225.339 294.667 225.524 294.63 225.71 294.63Z" fill="white"/>
<path d="M249.59 294.63H268.38C268.815 294.63 269.232 294.803 269.54 295.11C269.847 295.418 270.02 295.835 270.02 296.27V297C270.02 297.435 269.847 297.852 269.54 298.16C269.232 298.467 268.815 298.64 268.38 298.64H249.59C249.213 298.64 248.852 298.49 248.586 298.224C248.32 297.958 248.17 297.597 248.17 297.22V296.05C248.17 295.673 248.32 295.312 248.586 295.046C248.852 294.78 249.213 294.63 249.59 294.63Z" fill="#81C379"/>
<path opacity="0.4" d="M249.59 294.63H268.38C268.815 294.63 269.232 294.803 269.54 295.11C269.847 295.418 270.02 295.835 270.02 296.27V297C270.02 297.435 269.847 297.852 269.54 298.16C269.232 298.467 268.815 298.64 268.38 298.64H249.59C249.213 298.64 248.852 298.49 248.586 298.224C248.32 297.958 248.17 297.597 248.17 297.22V296.05C248.17 295.673 248.32 295.312 248.586 295.046C248.852 294.78 249.213 294.63 249.59 294.63Z" fill="white"/>
<path d="M136.9 194.09V183.79C137.165 183.79 137.42 183.685 137.607 183.497C137.795 183.31 137.9 183.055 137.9 182.79C137.9 182.525 137.795 182.27 137.607 182.083C137.42 181.895 137.165 181.79 136.9 181.79C132.97 181.79 129.04 181.79 125.11 181.73V196.03H136.9C137.116 195.976 137.308 195.851 137.445 195.675C137.583 195.499 137.657 195.283 137.657 195.06C137.657 194.837 137.583 194.621 137.445 194.445C137.308 194.269 137.116 194.144 136.9 194.09Z" fill="#81C379"/>
<path opacity="0.3" d="M136.9 194.09V183.79C137.165 183.79 137.42 183.685 137.607 183.497C137.795 183.31 137.9 183.055 137.9 182.79C137.9 182.525 137.795 182.27 137.607 182.083C137.42 181.895 137.165 181.79 136.9 181.79C132.97 181.79 129.04 181.79 125.11 181.73V196.03H136.9C137.116 195.976 137.308 195.851 137.445 195.675C137.583 195.499 137.657 195.283 137.657 195.06C137.657 194.837 137.583 194.621 137.445 194.445C137.308 194.269 137.116 194.144 136.9 194.09Z" fill="white"/>
<path d="M136.9 183.79H127.74V194.08H136.9V183.79Z" fill="#81C379"/>
<path opacity="0.8" d="M136.9 183.79H127.74V194.08H136.9V183.79Z" fill="white"/>
<path d="M129.71 195.08H97.9199C95.7399 195.08 93.9199 192.33 93.9199 188.94C93.9199 185.55 95.6899 182.8 97.9199 182.8H129.71V195.08Z" fill="white"/>
<path d="M129.71 181.82C119.32 181.82 108.91 181.63 98.52 181.82C91.41 181.94 91.02 195.59 98 196.06C102.87 196.4 107.88 196.06 112.75 196.06H129.75C130.015 196.06 130.27 195.955 130.457 195.767C130.645 195.58 130.75 195.325 130.75 195.06C130.75 194.795 130.645 194.54 130.457 194.353C130.27 194.165 130.015 194.06 129.75 194.06H100.12C97.84 194.06 96.21 194.06 95.32 191.35C94.56 189.02 94.8 184.27 97.92 183.76C98.276 183.73 98.6339 183.73 98.99 183.76H129.71C129.975 183.76 130.23 183.655 130.417 183.467C130.605 183.28 130.71 183.025 130.71 182.76C130.71 182.495 130.605 182.24 130.417 182.053C130.23 181.865 129.975 181.76 129.71 181.76V181.82Z" fill="#81C379"/>
<g opacity="0.3">
<path opacity="0.3" d="M129.71 181.82C119.32 181.82 108.91 181.63 98.52 181.82C91.41 181.94 91.02 195.59 98 196.06C102.87 196.4 107.88 196.06 112.75 196.06H129.75C130.015 196.06 130.27 195.955 130.457 195.767C130.645 195.58 130.75 195.325 130.75 195.06C130.75 194.795 130.645 194.54 130.457 194.353C130.27 194.165 130.015 194.06 129.75 194.06H100.12C97.84 194.06 96.21 194.06 95.32 191.35C94.56 189.02 94.8 184.27 97.92 183.76C98.276 183.73 98.6339 183.73 98.99 183.76H129.71C129.975 183.76 130.23 183.655 130.417 183.467C130.605 183.28 130.71 183.025 130.71 182.76C130.71 182.495 130.605 182.24 130.417 182.053C130.23 181.865 129.975 181.76 129.71 181.76V181.82Z" fill="black"/>
</g>
<path d="M136.9 194.09V183.79C137.165 183.79 137.42 183.685 137.607 183.497C137.795 183.31 137.9 183.055 137.9 182.79C137.9 182.525 137.795 182.27 137.607 182.083C137.42 181.895 137.165 181.79 136.9 181.79C132.97 181.79 129.04 181.79 125.11 181.73V196.03H136.9C137.116 195.976 137.308 195.851 137.445 195.675C137.583 195.499 137.657 195.283 137.657 195.06C137.657 194.837 137.583 194.621 137.445 194.445C137.308 194.269 137.116 194.144 136.9 194.09Z" fill="#81C379"/>
<path opacity="0.3" d="M136.9 194.09V183.79C137.165 183.79 137.42 183.685 137.607 183.497C137.795 183.31 137.9 183.055 137.9 182.79C137.9 182.525 137.795 182.27 137.607 182.083C137.42 181.895 137.165 181.79 136.9 181.79C132.97 181.79 129.04 181.79 125.11 181.73V196.03H136.9C137.116 195.976 137.308 195.851 137.445 195.675C137.583 195.499 137.657 195.283 137.657 195.06C137.657 194.837 137.583 194.621 137.445 194.445C137.308 194.269 137.116 194.144 136.9 194.09Z" fill="white"/>
<path d="M136.9 183.79H127.74V194.08H136.9V183.79Z" fill="#81C379"/>
<path opacity="0.8" d="M136.9 183.79H127.74V194.08H136.9V183.79Z" fill="white"/>
<path d="M129.71 195.08H97.9199C95.7399 195.08 93.9199 192.33 93.9199 188.94C93.9199 185.55 95.6899 182.8 97.9199 182.8H129.71V195.08Z" fill="#81C379"/>
<path opacity="0.9" d="M129.71 195.08H97.9199C95.7399 195.08 93.9199 192.33 93.9199 188.94C93.9199 185.55 95.6899 182.8 97.9199 182.8H129.71V195.08Z" fill="white"/>
<path d="M129.71 181.82C119.32 181.82 108.91 181.63 98.52 181.82C91.41 181.94 91.02 195.59 98 196.06C102.87 196.4 107.88 196.06 112.75 196.06H129.75C130.015 196.06 130.27 195.955 130.457 195.767C130.645 195.58 130.75 195.325 130.75 195.06C130.75 194.795 130.645 194.54 130.457 194.353C130.27 194.165 130.015 194.06 129.75 194.06H100.12C97.84 194.06 96.21 194.06 95.32 191.35C94.56 189.02 94.8 184.27 97.92 183.76C98.276 183.73 98.6339 183.73 98.99 183.76H129.71C129.975 183.76 130.23 183.655 130.417 183.467C130.605 183.28 130.71 183.025 130.71 182.76C130.71 182.495 130.605 182.24 130.417 182.053C130.23 181.865 129.975 181.76 129.71 181.76V181.82Z" fill="#81C379"/>
<g opacity="0.3">
<path opacity="0.3" d="M129.71 181.82C119.32 181.82 108.91 181.63 98.52 181.82C91.41 181.94 91.02 195.59 98 196.06C102.87 196.4 107.88 196.06 112.75 196.06H129.75C130.015 196.06 130.27 195.955 130.457 195.767C130.645 195.58 130.75 195.325 130.75 195.06C130.75 194.795 130.645 194.54 130.457 194.353C130.27 194.165 130.015 194.06 129.75 194.06H100.12C97.84 194.06 96.21 194.06 95.32 191.35C94.56 189.02 94.8 184.27 97.92 183.76C98.276 183.73 98.6339 183.73 98.99 183.76H129.71C129.975 183.76 130.23 183.655 130.417 183.467C130.605 183.28 130.71 183.025 130.71 182.76C130.71 182.495 130.605 182.24 130.417 182.053C130.23 181.865 129.975 181.76 129.71 181.76V181.82Z" fill="black"/>
</g>
<path d="M102.76 180.46V172.24C102.567 172.218 102.389 172.126 102.26 171.981C102.13 171.837 102.059 171.649 102.059 171.455C102.059 171.261 102.13 171.074 102.26 170.929C102.389 170.784 102.567 170.692 102.76 170.67C105.9 170.67 109.03 170.67 112.17 170.67V182H102.76C102.586 181.96 102.43 181.862 102.319 181.722C102.207 181.582 102.147 181.409 102.147 181.23C102.147 181.051 102.207 180.878 102.319 180.738C102.43 180.598 102.586 180.5 102.76 180.46Z" fill="#81C379"/>
<path opacity="0.3" d="M102.76 180.46V172.24C102.567 172.218 102.389 172.126 102.26 171.981C102.13 171.837 102.059 171.649 102.059 171.455C102.059 171.261 102.13 171.074 102.26 170.929C102.389 170.784 102.567 170.692 102.76 170.67C105.9 170.67 109.03 170.67 112.17 170.67V182H102.76C102.586 181.96 102.43 181.862 102.319 181.722C102.207 181.582 102.147 181.409 102.147 181.23C102.147 181.051 102.207 180.878 102.319 180.738C102.43 180.598 102.586 180.5 102.76 180.46Z" fill="white"/>
<path d="M110.06 172.24H102.76V180.45H110.06V172.24Z" fill="#81C379"/>
<path opacity="0.8" d="M110.06 172.24H102.76V180.45H110.06V172.24Z" fill="white"/>
<path d="M108.54 181.25H133.86C135.6 181.25 137.01 179.06 137.01 176.35C137.01 173.64 135.6 171.45 133.86 171.45H108.54V181.25Z" fill="#81C379"/>
<path opacity="0.9" d="M108.54 181.25H133.86C135.6 181.25 137.01 179.06 137.01 176.35C137.01 173.64 135.6 171.45 133.86 171.45H108.54V181.25Z" fill="white"/>
<path d="M108.54 170.67C116.83 170.67 125.13 170.52 133.42 170.67C139.1 170.77 139.42 181.67 133.83 182.04C129.95 182.3 125.96 182.04 122.07 182.04H108.54C108.33 182.04 108.13 181.957 107.981 181.809C107.833 181.66 107.75 181.459 107.75 181.25C107.75 181.04 107.833 180.839 107.981 180.691C108.13 180.543 108.33 180.46 108.54 180.46H132.11C133.93 180.46 135.23 180.46 135.93 178.3C136.54 176.44 136.35 172.65 133.86 172.24C133.577 172.22 133.293 172.22 133.01 172.24H108.54C108.347 172.218 108.169 172.126 108.04 171.981C107.91 171.836 107.839 171.649 107.839 171.455C107.839 171.261 107.91 171.073 108.04 170.929C108.169 170.784 108.347 170.692 108.54 170.67Z" fill="#81C379"/>
<path d="M230.95 195.8H316.82V200.15C316.82 202.025 316.075 203.823 314.749 205.149C313.423 206.475 311.625 207.22 309.75 207.22H230.95V195.8Z" fill="#81C379"/>
<path opacity="0.5" d="M230.95 195.8H316.82V200.15C316.82 202.025 316.075 203.823 314.749 205.149C313.423 206.475 311.625 207.22 309.75 207.22H230.95V195.8Z" fill="white"/>
<path d="M159.17 328.39H155.41L154.46 207.22H160.12L159.17 328.39Z" fill="#81C379"/>
<path opacity="0.7" d="M159.17 328.39H155.41L154.46 207.22H160.12L159.17 328.39Z" fill="white"/>
<path d="M307.75 328.39H304L303.04 207.22H308.71L307.75 328.39Z" fill="#81C379"/>
<path opacity="0.7" d="M307.75 328.39H304L303.04 207.22H308.71L307.75 328.39Z" fill="white"/>
<path d="M90.0901 311.9H155.62C156.063 311.9 156.488 312.076 156.801 312.389C157.114 312.702 157.29 313.127 157.29 313.57V314.36C157.29 314.803 157.114 315.228 156.801 315.541C156.488 315.854 156.063 316.03 155.62 316.03H90.0901V311.9Z" fill="#81C379"/>
<path opacity="0.4" d="M90.0901 311.9H155.62C156.063 311.9 156.488 312.076 156.801 312.389C157.114 312.702 157.29 313.127 157.29 313.57V314.36C157.29 314.803 157.114 315.228 156.801 315.541C156.488 315.854 156.063 316.03 155.62 316.03H90.0901V311.9Z" fill="white"/>
<path d="M124.71 312.51H239.71V315.4H124.71C124.532 315.4 124.355 315.365 124.19 315.296C124.025 315.228 123.875 315.128 123.748 315.002C123.622 314.875 123.522 314.725 123.454 314.56C123.385 314.395 123.35 314.219 123.35 314.04V313.87C123.35 313.691 123.385 313.515 123.454 313.35C123.522 313.185 123.622 313.035 123.748 312.908C123.875 312.782 124.025 312.682 124.19 312.614C124.355 312.545 124.532 312.51 124.71 312.51Z" fill="#81C379"/>
<path opacity="0.1" d="M124.71 312.51H239.71V315.4H124.71C124.532 315.4 124.355 315.365 124.19 315.296C124.025 315.228 123.875 315.128 123.748 315.002C123.622 314.875 123.522 314.725 123.454 314.56C123.385 314.395 123.35 314.219 123.35 314.04V313.87C123.35 313.691 123.385 313.515 123.454 313.35C123.522 313.185 123.622 313.035 123.748 312.908C123.875 312.782 124.025 312.682 124.19 312.614C124.355 312.545 124.532 312.51 124.71 312.51Z" fill="white"/>
<path d="M238.71 311.9H304.27C304.705 311.9 305.122 312.073 305.43 312.38C305.737 312.688 305.91 313.105 305.91 313.54V314.39C305.91 314.825 305.737 315.242 305.43 315.55C305.122 315.857 304.705 316.03 304.27 316.03H238.71V311.9Z" fill="#81C379"/>
<path opacity="0.4" d="M238.71 311.9H304.27C304.705 311.9 305.122 312.073 305.43 312.38C305.737 312.688 305.91 313.105 305.91 313.54V314.39C305.91 314.825 305.737 315.242 305.43 315.55C305.122 315.857 304.705 316.03 304.27 316.03H238.71V311.9Z" fill="white"/>
<path d="M80.1799 195.8H240.06V207.22H87.2299C85.3602 207.22 83.567 206.477 82.2448 205.155C80.9227 203.833 80.1799 202.04 80.1799 200.17V195.8Z" fill="#81C379"/>
<path d="M91.97 328.39H88.21L87.26 207.22H92.92L91.97 328.39Z" fill="#81C379"/>
<path opacity="0.7" d="M91.97 328.39H88.21L87.26 207.22H92.92L91.97 328.39Z" fill="white"/>
<path d="M240.56 328.39H236.8L235.85 207.22H241.51L240.56 328.39Z" fill="#81C379"/>
<path opacity="0.7" d="M240.56 328.39H236.8L235.85 207.22H241.51L240.56 328.39Z" fill="white"/>
<ellipse cx="102.21" cy="70" rx="22.5" ry="22" fill="#A3E19B"/>
<ellipse cx="170.21" cy="66" rx="22.5" ry="22" fill="#A3E19B"/>
<ellipse cx="223.21" cy="27" rx="22.5" ry="22" fill="#6FBC66"/>
<ellipse cx="282.21" cy="61" rx="22.5" ry="22" fill="#A3E19B"/>
<ellipse cx="354.21" cy="22" rx="22.5" ry="22" fill="#ADD9A6"/>
<ellipse cx="325.21" cy="120" rx="22.5" ry="22" fill="#5DB152"/>
<ellipse cx="146.71" cy="125" rx="27" ry="25" fill="#6FBC66"/>
<path d="M100.848 67.6563C100.538 67.8344 100.273 68.0625 100.055 68.3438C99.8333 68.625 99.6783 68.9375 99.5867 69.2813C99.4918 69.625 99.4697 69.9719 99.5171 70.325C99.5645 70.6781 99.6783 71.0063 99.8554 71.3156C100.036 71.6219 100.27 71.8844 100.554 72.1C100.839 72.3156 101.155 72.4719 101.503 72.5625C101.85 72.6563 102.201 72.6781 102.559 72.6313C102.913 72.5844 103.248 72.4719 103.558 72.2969C103.871 72.1187 104.136 71.8875 104.354 71.6063C104.572 71.325 104.727 71.0125 104.822 70.6688C104.914 70.325 104.939 69.9781 104.892 69.625C104.844 69.275 104.73 68.9438 104.55 68.6344C104.37 68.3281 104.139 68.0656 103.855 67.85C103.567 67.6344 103.251 67.4813 102.906 67.3875C102.559 67.2969 102.208 67.2719 101.85 67.3188C101.493 67.3656 101.161 67.4781 100.848 67.6563ZM112.995 70.5625C112.818 70.3625 112.631 70.1594 112.432 69.9563C112.571 69.8125 112.704 69.6719 112.833 69.5281C115.271 66.8219 116.299 64.1063 115.347 62.475C114.433 60.9094 111.714 60.4438 108.309 61.1C107.974 61.1625 107.642 61.2375 107.31 61.3188C107.247 61.1031 107.181 60.8875 107.108 60.6719C105.954 57.2344 104.089 54.9969 102.182 55C100.355 55 98.5876 57.0938 97.4621 60.3344C97.3515 60.6531 97.2471 60.9781 97.1523 61.3031C96.931 61.2469 96.7097 61.2 96.4852 61.1531C92.8969 60.425 90.0041 60.9031 89.0524 62.5375C88.1419 64.1031 89.0935 66.6625 91.373 69.2438C91.5975 69.5 91.8314 69.75 92.0685 69.9938C91.7872 70.2813 91.5216 70.5688 91.2718 70.8531C89.0493 73.4 88.1514 75.9156 89.0619 77.475C90.0009 79.0844 92.8526 79.6125 96.324 78.9375C96.6053 78.8813 96.8836 78.8188 97.1618 78.75C97.2629 79.1031 97.3768 79.45 97.4969 79.7969C98.6192 82.9719 100.377 85 102.198 85C104.079 84.9969 105.963 82.8187 107.108 79.5094C107.196 79.25 107.282 78.9781 107.364 78.6969C107.721 78.7875 108.085 78.8656 108.448 78.9344C111.79 79.5594 114.446 79.0656 115.356 77.5063C116.292 75.8937 115.325 73.1938 112.995 70.5625ZM90.1748 63.175C90.7628 62.1719 93.1245 61.7781 96.226 62.4094C96.422 62.45 96.6243 62.4938 96.8298 62.5438C96.5263 63.8688 96.3145 65.2063 96.1912 66.5594C95.072 67.3375 94.0066 68.1844 92.998 69.1C92.7767 68.8719 92.5586 68.6406 92.3499 68.4031C90.3993 66.1906 89.6278 64.1188 90.1748 63.175ZM96.0742 71.7688C95.2996 71.1875 94.5788 70.5938 93.9244 69.9969C94.5788 69.4031 95.2996 68.8125 96.071 68.2313C96.0457 68.8219 96.0299 69.4125 96.0299 70C96.0331 70.5906 96.0457 71.1813 96.0742 71.7688ZM96.0742 77.6781C94.7464 77.9719 93.4122 78.0187 92.0685 77.8188C91.2971 77.7594 90.668 77.4312 90.1843 76.8344C89.631 75.8875 90.355 73.8687 92.2551 71.6906C92.4922 71.4156 92.7388 71.15 92.9949 70.8906C94.0034 71.8125 95.0688 72.6625 96.1912 73.4406C96.3176 74.8125 96.5326 76.1687 96.8393 77.5094C96.5864 77.5719 96.3303 77.6281 96.0742 77.6781ZM106.849 65.6219C106.34 65.3031 105.824 64.9969 105.303 64.7C104.791 64.4094 104.272 64.1281 103.744 63.8563C104.645 63.4813 105.53 63.1625 106.384 62.9031C106.586 63.8 106.741 64.7063 106.849 65.6219ZM98.6888 60.75C99.6531 57.975 101.082 56.2813 102.182 56.2813C103.355 56.2781 104.882 58.1063 105.878 61.0781C105.941 61.2688 106.005 61.4656 106.061 61.6594C104.749 62.0625 103.472 62.5469 102.227 63.1188C100.984 62.5406 99.71 62.05 98.4043 61.6438C98.4896 61.3438 98.5845 61.0469 98.6888 60.75ZM98.0786 62.8875C98.9702 63.1656 99.8459 63.4844 100.706 63.85C99.6404 64.3938 98.6066 64.9844 97.5981 65.6219C97.7182 64.6656 97.8826 63.7469 98.0786 62.8875ZM97.6012 74.3781C98.1039 74.6969 98.6129 75.0031 99.1314 75.2969C99.6594 75.5969 100.194 75.8844 100.734 76.1594C99.8712 76.5375 98.986 76.8687 98.0881 77.1594C97.8858 76.2844 97.7245 75.3531 97.6012 74.3781ZM105.878 79.0969C105.473 80.3781 104.847 81.5437 104 82.5969C103.564 83.2281 102.963 83.6 102.198 83.7156C101.092 83.7187 99.6815 82.0906 98.7204 79.375C98.6098 79.0531 98.5054 78.7281 98.4106 78.4031C99.7226 77.9813 101.003 77.4781 102.249 76.8875C103.504 77.4594 104.794 77.95 106.115 78.3563C106.043 78.6031 105.963 78.85 105.878 79.0969ZM106.428 77.1094C105.565 76.8469 104.667 76.5219 103.754 76.1406C104.269 75.875 104.787 75.5906 105.309 75.2938C105.846 74.9875 106.368 74.675 106.877 74.3531C106.776 75.2812 106.627 76.2 106.428 77.1094ZM107.105 69.9969C107.108 70.9063 107.079 71.8156 107.019 72.7281C106.273 73.2281 105.483 73.7156 104.661 74.1844C103.845 74.65 103.033 75.0781 102.239 75.4688C101.401 75.0719 100.583 74.6437 99.7764 74.1875C98.9765 73.7313 98.1956 73.2469 97.4337 72.7344C97.3641 71.825 97.3293 70.9125 97.3293 70C97.3262 69.0875 97.3609 68.1781 97.4305 67.2688C98.1798 66.7625 98.9638 66.275 99.7732 65.8125C100.586 65.35 101.408 64.9219 102.223 64.5344C103.049 64.9313 103.861 65.3563 104.658 65.8094C105.454 66.2656 106.239 66.7438 107.007 67.25C107.073 68.1625 107.105 69.0781 107.108 69.9969H107.105ZM108.559 62.3563C111.474 61.7969 113.671 62.1719 114.225 63.1156C114.809 64.1219 113.968 66.3375 111.866 68.675C111.749 68.8031 111.629 68.9344 111.502 69.0656C110.478 68.1469 109.394 67.3031 108.249 66.5313C108.135 65.1938 107.93 63.8688 107.633 62.5594C107.949 62.4813 108.256 62.4156 108.559 62.3563ZM108.36 68.1844C109.131 68.7406 109.871 69.3344 110.579 69.9656C109.874 70.6094 109.138 71.2125 108.369 71.7781C108.392 71.1844 108.404 70.5906 108.404 69.9969C108.401 69.3906 108.388 68.7875 108.36 68.1844ZM114.231 76.8656C113.681 77.8125 111.547 78.2094 108.689 77.675C108.36 77.6125 108.025 77.5406 107.68 77.4562C107.968 76.1281 108.164 74.7875 108.268 73.4313C109.41 72.6469 110.491 71.7906 111.512 70.8594C111.689 71.0406 111.86 71.225 112.021 71.4062C112.941 72.3937 113.649 73.5125 114.149 74.7625C114.484 75.4531 114.512 76.1531 114.231 76.8656Z" fill="white"/>
<g clip-path="url(#clip0_275_286)">
<path d="M149.616 113.188L150.555 113.395L151.316 113.668L151.93 113.98L152.398 114.315L152.752 114.668L153.013 115.022L153.179 115.365L153.281 115.677L153.326 115.946L153.347 116.157L153.334 116.292V121.854L153.281 122.51L153.147 123.084L152.927 123.565L152.659 123.959L152.346 124.28L152.005 124.54L151.638 124.74L151.272 124.886L150.93 124.993L150.618 125.061L150.349 125.106L150.13 125.127H143.908L143.192 125.179L142.577 125.322L142.056 125.554L141.629 125.835L141.283 126.169L141.002 126.531L140.795 126.91L140.639 127.292L140.534 127.657L140.461 127.992L140.42 128.272L140.4 128.492V131.679H138.076L137.857 131.645L137.563 131.572L137.234 131.45L136.868 131.263L136.494 130.991L136.12 130.616L135.753 130.136L135.42 129.521L135.126 128.761L134.91 127.845L134.764 126.75L134.711 125.469L134.773 124.2L134.939 123.118L135.191 122.211L135.525 121.47L135.9 120.876L136.315 120.42L136.755 120.074L137.19 119.826L137.609 119.66L137.984 119.554L138.317 119.5L138.565 119.492H138.731L138.797 119.5H147.293V118.638H141.209L141.201 115.773L141.181 115.386L141.234 115.032L141.348 114.711L141.523 114.418L141.783 114.15L142.109 113.909L142.502 113.702L142.962 113.511L143.491 113.357L144.098 113.231L144.76 113.129L145.501 113.064L146.303 113.023L147.178 113.002L148.5 113.055L149.616 113.188ZM143.056 115.25L142.816 115.592L142.73 116.019L142.816 116.447L143.056 116.8L143.398 117.032L143.825 117.126L144.252 117.032L144.594 116.8L144.834 116.447L144.92 116.019L144.834 115.592L144.594 115.25L144.252 115.022L143.825 114.929L143.398 115.022L143.056 115.25ZM156.691 119.364L156.98 119.429L157.313 119.551L157.68 119.739L158.054 120.019L158.429 120.386L158.795 120.874L159.128 121.487L159.418 122.249L159.638 123.168L159.784 124.25L159.837 125.532L159.772 126.814L159.604 127.896L159.356 128.79L159.023 129.531L158.648 130.125L158.229 130.593L157.794 130.935L157.354 131.187L156.939 131.354L156.564 131.447L156.23 131.5L155.983 131.52L155.816 131.508H147.251V132.362H153.334L153.347 135.24L153.366 135.614L153.313 135.968L153.2 136.289L153.021 136.59L152.761 136.85L152.44 137.103L152.045 137.31L151.585 137.489L151.056 137.643L150.45 137.777L149.784 137.871L149.047 137.943L148.241 137.984L147.366 137.997L146.044 137.956L144.929 137.809L143.992 137.602L143.232 137.342L142.617 137.029L142.149 136.682L141.795 136.329L141.535 135.975L141.369 135.632L141.262 135.32L141.222 135.06L141.201 134.851L141.209 134.718V129.155L141.262 128.487L141.401 127.922L141.616 127.446L141.889 127.047L142.202 126.718L142.545 126.465L142.91 126.257L143.273 126.111L143.619 126.004L143.932 125.944L144.2 125.904L144.554 125.87H150.637L151.357 125.818L151.972 125.675L152.493 125.455L152.92 125.162L153.263 124.828L153.544 124.466L153.755 124.087L153.911 123.713L154.016 123.35L154.091 123.017L154.131 122.724L154.151 122.504V119.318H156.328L156.475 119.326L156.691 119.364ZM149.948 134.207L149.708 134.554L149.627 134.982L149.708 135.409L149.948 135.75L150.295 135.99L150.722 136.072L151.149 135.99L151.491 135.75L151.731 135.409L151.816 134.982L151.731 134.554L151.491 134.207L151.149 133.968L150.722 133.886L150.295 133.968L149.948 134.207Z" fill="white"/>
</g>
<path d="M160.803 77.5021L158.71 55H181.71L179.613 77.4986L170.197 80L160.803 77.5021Z" fill="white"/>
<path d="M169.843 79.6709L177.452 77.6476L179.245 58.4229H169.843V79.6709Z" fill="white"/>
<path d="M169.843 66.769H166.03L165.769 63.9419H169.843V61.1807H162.621L162.69 61.9221L163.398 69.5267H169.843V66.769ZM169.843 73.9371L169.829 73.9405L166.623 73.1091L166.416 70.9091H163.525L163.93 75.2432L169.829 76.8126L169.843 76.8057V73.9371Z" fill="#99EA73"/>
<path d="M169.832 66.769V69.5267H173.378L173.042 73.1091L169.832 73.9371V76.8092L175.735 75.2432L175.778 74.7755L176.454 67.5104L176.527 66.769H169.832ZM169.832 61.1807V63.9419H176.787L176.845 63.3218L176.975 61.9221L177.043 61.1807H169.832Z" fill="#5DB152"/>
<path fill-rule="evenodd" clip-rule="evenodd" d="M223.21 11C214.098 11 206.71 18.3452 206.71 27.404C206.71 34.6517 211.436 40.8023 217.994 42.9721C218.817 43.1254 219.122 42.6169 219.122 42.1815C219.122 41.7914 219.104 40.4993 219.097 39.1271C214.508 40.1197 213.538 37.1941 213.538 37.1941C212.788 35.296 211.706 34.791 211.706 34.791C210.21 33.774 211.821 33.7949 211.821 33.7949C213.475 33.9099 214.35 35.4876 214.35 35.4876C215.822 37.9917 218.211 37.2673 219.15 36.8494C219.3 35.7906 219.728 35.0662 220.197 34.6552C216.533 34.2407 212.679 32.8337 212.679 26.5472C212.679 24.7571 213.324 23.2943 214.382 22.145C214.21 21.7305 213.643 20.0622 214.54 17.8054C214.54 17.8054 215.927 17.3631 219.08 19.4841C220.397 19.1219 221.809 18.9373 223.21 18.9338C224.611 18.9373 226.023 19.1219 227.344 19.4841C230.493 17.3631 231.877 17.8019 231.877 17.8019C232.774 20.0623 232.21 21.7305 232.038 22.145C233.096 23.2943 233.737 24.7571 233.737 26.5472C233.737 32.8476 229.877 34.2373 226.202 34.6413C226.794 35.1497 227.323 36.1493 227.323 37.6817C227.323 39.8759 227.302 41.6417 227.302 42.1815C227.302 42.6204 227.599 43.1288 228.437 42.9686C234.988 40.7988 239.71 34.6517 239.71 27.404C239.71 18.3452 232.322 11 223.21 11Z" fill="white"/>
<mask id="path-118-inside-1_275_286" fill="white">
<path d="M293.671 76.5784H293.496V76.4941H293.964V76.5784H293.789V77H293.671V76.5784ZM294.597 76.6006L294.427 77H294.345L294.175 76.6006V77H294.062V76.4941H294.226L294.386 76.8536L294.545 76.4941H294.71V77H294.597V76.6006Z"/>
</mask>
<path d="M293.671 76.5784H293.496V76.4941H293.964V76.5784H293.789V77H293.671V76.5784ZM294.597 76.6006L294.427 77H294.345L294.175 76.6006V77H294.062V76.4941H294.226L294.386 76.8536L294.545 76.4941H294.71V77H294.597V76.6006Z" fill="white"/>
<path d="M293.671 76.5784H294.671V75.5784H293.671V76.5784ZM293.496 76.5784H292.496V77.5784H293.496V76.5784ZM293.496 76.4941V75.4941H292.496V76.4941H293.496ZM293.964 76.4941H294.964V75.4941H293.964V76.4941ZM293.964 76.5784V77.5784H294.964V76.5784H293.964ZM293.789 76.5784V75.5784H292.789V76.5784H293.789ZM293.789 77V78H294.789V77H293.789ZM293.671 77H292.671V78H293.671V77ZM294.597 76.6006H295.597L293.677 76.2093L294.597 76.6006ZM294.427 77V78H295.088L295.347 77.3913L294.427 77ZM294.345 77L293.424 77.3913L293.683 78H294.345V77ZM294.175 76.6006L295.095 76.2093L293.175 76.6006H294.175ZM294.175 77V78H295.175V77H294.175ZM294.062 77H293.062V78H294.062V77ZM294.062 76.4941V75.4941H293.062V76.4941H294.062ZM294.226 76.4941L295.14 76.0885L294.877 75.4941H294.226V76.4941ZM294.386 76.8536L293.472 77.2592L294.386 79.3188L295.3 77.2592L294.386 76.8536ZM294.545 76.4941V75.4941H293.895L293.631 76.0885L294.545 76.4941ZM294.71 76.4941H295.71V75.4941H294.71V76.4941ZM294.71 77V78H295.71V77H294.71ZM294.597 77H293.597V78H294.597V77ZM293.671 75.5784H293.496V77.5784H293.671V75.5784ZM294.496 76.5784V76.4941H292.496V76.5784H294.496ZM293.496 77.4941H293.964V75.4941H293.496V77.4941ZM292.964 76.4941V76.5784H294.964V76.4941H292.964ZM293.964 75.5784H293.789V77.5784H293.964V75.5784ZM292.789 76.5784V77H294.789V76.5784H292.789ZM293.789 76H293.671V78H293.789V76ZM294.671 77V76.5784H292.671V77H294.671ZM293.677 76.2093L293.507 76.6087L295.347 77.3913L295.517 76.9919L293.677 76.2093ZM294.427 76H294.345V78H294.427V76ZM295.265 76.6087L295.095 76.2093L293.255 76.9919L293.424 77.3913L295.265 76.6087ZM293.175 76.6006V77H295.175V76.6006H293.175ZM294.175 76H294.062V78H294.175V76ZM295.062 77V76.4941H293.062V77H295.062ZM294.062 77.4941H294.226V75.4941H294.062V77.4941ZM293.312 76.8998L293.472 77.2592L295.3 76.4479L295.14 76.0885L293.312 76.8998ZM295.3 77.2592L295.459 76.8998L293.631 76.0885L293.472 76.4479L295.3 77.2592ZM294.545 77.4941H294.71V75.4941H294.545V77.4941ZM293.71 76.4941V77H295.71V76.4941H293.71ZM294.71 76H294.597V78H294.71V76ZM295.597 77V76.6006H293.597V77H295.597Z" fill="white" mask="url(#path-118-inside-1_275_286)"/>
<path d="M293.671 76.5784H294.671V75.5784H293.671V76.5784ZM293.496 76.5784H292.496V77.5784H293.496V76.5784ZM293.496 76.4941V75.4941H292.496V76.4941H293.496ZM293.964 76.4941H294.964V75.4941H293.964V76.4941ZM293.964 76.5784V77.5784H294.964V76.5784H293.964ZM293.789 76.5784V75.5784H292.789V76.5784H293.789ZM293.789 77V78H294.789V77H293.789ZM293.671 77H292.671V78H293.671V77ZM294.597 76.6006H295.597L293.677 76.2093L294.597 76.6006ZM294.427 77V78H295.088L295.347 77.3913L294.427 77ZM294.345 77L293.424 77.3913L293.683 78H294.345V77ZM294.175 76.6006L295.095 76.2093L293.175 76.6006H294.175ZM294.175 77V78H295.175V77H294.175ZM294.062 77H293.062V78H294.062V77ZM294.062 76.4941V75.4941H293.062V76.4941H294.062ZM294.226 76.4941L295.14 76.0885L294.877 75.4941H294.226V76.4941ZM294.386 76.8536L293.472 77.2592L294.386 79.3188L295.3 77.2592L294.386 76.8536ZM294.545 76.4941V75.4941H293.895L293.631 76.0885L294.545 76.4941ZM294.71 76.4941H295.71V75.4941H294.71V76.4941ZM294.71 77V78H295.71V77H294.71ZM294.597 77H293.597V78H294.597V77ZM293.671 75.5784H293.496V77.5784H293.671V75.5784ZM294.496 76.5784V76.4941H292.496V76.5784H294.496ZM293.496 77.4941H293.964V75.4941H293.496V77.4941ZM292.964 76.4941V76.5784H294.964V76.4941H292.964ZM293.964 75.5784H293.789V77.5784H293.964V75.5784ZM292.789 76.5784V77H294.789V76.5784H292.789ZM293.789 76H293.671V78H293.789V76ZM294.671 77V76.5784H292.671V77H294.671ZM293.677 76.2093L293.507 76.6087L295.347 77.3913L295.517 76.9919L293.677 76.2093ZM294.427 76H294.345V78H294.427V76ZM295.265 76.6087L295.095 76.2093L293.255 76.9919L293.424 77.3913L295.265 76.6087ZM293.175 76.6006V77H295.175V76.6006H293.175ZM294.175 76H294.062V78H294.175V76ZM295.062 77V76.4941H293.062V77H295.062ZM294.062 77.4941H294.226V75.4941H294.062V77.4941ZM293.312 76.8998L293.472 77.2592L295.3 76.4479L295.14 76.0885L293.312 76.8998ZM295.3 77.2592L295.459 76.8998L293.631 76.0885L293.472 76.4479L295.3 77.2592ZM294.545 77.4941H294.71V75.4941H294.545V77.4941ZM293.71 76.4941V77H295.71V76.4941H293.71ZM294.71 76H294.597V78H294.71V76ZM295.597 77V76.6006H293.597V77H295.597Z" fill="white" mask="url(#path-118-inside-1_275_286)"/>
<path d="M285.814 67.5009C285.676 67.4369 285.564 67.3817 285.482 67.3403C282.805 67.7741 281.487 67.8052 278.996 67.5572L285.814 67.5009ZM285.814 67.5009C283.195 68.1834 280.464 68.1038 278.726 67.7181C278.22 67.606 277.819 67.4722 277.538 67.3352C277.372 67.2546 277.277 67.1869 277.224 67.1417C277.227 67.1397 277.23 67.1377 277.233 67.1357C277.287 67.0953 277.363 67.051 277.464 67.0043C277.561 67.1433 277.697 67.2338 277.824 67.2956C278.084 67.422 278.469 67.5048 278.996 67.5572L285.814 67.5009ZM278.906 64.8594C280.892 65.0062 282.679 64.9984 285.188 64.6556C282.853 65.0025 280.602 65.0283 278.906 64.8594ZM276.889 64.4673C276.915 64.4843 276.942 64.5005 276.97 64.516C276.836 64.4762 276.717 64.4349 276.612 64.3927C276.477 64.3379 276.379 64.2861 276.312 64.2413C276.32 64.2353 276.328 64.2291 276.337 64.2225C276.395 64.181 276.47 64.1364 276.562 64.0893C276.633 64.2541 276.754 64.3777 276.889 64.4673Z" fill="white"/>
<path d="M285.814 67.5009C285.676 67.4369 285.564 67.3817 285.482 67.3403C282.805 67.7741 281.487 67.8052 278.996 67.5572L285.814 67.5009ZM285.814 67.5009C283.195 68.1834 280.464 68.1038 278.726 67.7181C278.22 67.606 277.819 67.4722 277.538 67.3352C277.372 67.2546 277.277 67.1869 277.224 67.1417C277.227 67.1397 277.23 67.1377 277.233 67.1357C277.287 67.0953 277.363 67.051 277.464 67.0043C277.561 67.1433 277.697 67.2338 277.824 67.2956C278.084 67.422 278.469 67.5048 278.996 67.5572L285.814 67.5009ZM278.906 64.8594C280.892 65.0062 282.679 64.9984 285.188 64.6556C282.853 65.0025 280.602 65.0283 278.906 64.8594ZM276.889 64.4673C276.915 64.4843 276.942 64.5005 276.97 64.516C276.836 64.4762 276.717 64.4349 276.612 64.3927C276.477 64.3379 276.379 64.2861 276.312 64.2413C276.32 64.2353 276.328 64.2291 276.337 64.2225C276.395 64.181 276.47 64.1364 276.562 64.0893C276.633 64.2541 276.754 64.3777 276.889 64.4673Z" stroke="white"/>
<path d="M285.814 67.5009C285.676 67.4369 285.564 67.3817 285.482 67.3403C282.805 67.7741 281.487 67.8052 278.996 67.5572L285.814 67.5009ZM285.814 67.5009C283.195 68.1834 280.464 68.1038 278.726 67.7181C278.22 67.606 277.819 67.4722 277.538 67.3352C277.372 67.2546 277.277 67.1869 277.224 67.1417C277.227 67.1397 277.23 67.1377 277.233 67.1357C277.287 67.0953 277.363 67.051 277.464 67.0043C277.561 67.1433 277.697 67.2338 277.824 67.2956C278.084 67.422 278.469 67.5048 278.996 67.5572L285.814 67.5009ZM278.906 64.8594C280.892 65.0062 282.679 64.9984 285.188 64.6556C282.853 65.0025 280.602 65.0283 278.906 64.8594ZM276.889 64.4673C276.915 64.4843 276.942 64.5005 276.97 64.516C276.836 64.4762 276.717 64.4349 276.612 64.3927C276.477 64.3379 276.379 64.2861 276.312 64.2413C276.32 64.2353 276.328 64.2291 276.337 64.2225C276.395 64.181 276.47 64.1364 276.562 64.0893C276.633 64.2541 276.754 64.3777 276.889 64.4673Z" stroke="white"/>
<path d="M284.14 57.7829L284.14 57.7829C282.926 56.563 282.759 55.6286 282.972 54.922C283.175 54.2523 283.759 53.6354 284.571 53.0896C284.179 53.4768 283.915 53.8557 283.777 54.2435C283.545 54.8944 283.701 55.4732 283.989 55.985C284.216 56.3877 284.554 56.7967 284.888 57.2C284.954 57.2802 285.02 57.36 285.085 57.4396C285.44 57.875 285.48 58.2337 285.408 58.5353C285.338 58.8285 285.145 59.1262 284.87 59.4126C284.872 59.3377 284.869 59.2611 284.861 59.183C284.814 58.7063 284.586 58.2316 284.14 57.7829Z" fill="white"/>
<path d="M284.14 57.7829L284.14 57.7829C282.926 56.563 282.759 55.6286 282.972 54.922C283.175 54.2523 283.759 53.6354 284.571 53.0896C284.179 53.4768 283.915 53.8557 283.777 54.2435C283.545 54.8944 283.701 55.4732 283.989 55.985C284.216 56.3877 284.554 56.7967 284.888 57.2C284.954 57.2802 285.02 57.36 285.085 57.4396C285.44 57.875 285.48 58.2337 285.408 58.5353C285.338 58.8285 285.145 59.1262 284.87 59.4126C284.872 59.3377 284.869 59.2611 284.861 59.183C284.814 58.7063 284.586 58.2316 284.14 57.7829Z" stroke="white"/>
<path d="M284.14 57.7829L284.14 57.7829C282.926 56.563 282.759 55.6286 282.972 54.922C283.175 54.2523 283.759 53.6354 284.571 53.0896C284.179 53.4768 283.915 53.8557 283.777 54.2435C283.545 54.8944 283.701 55.4732 283.989 55.985C284.216 56.3877 284.554 56.7967 284.888 57.2C284.954 57.2802 285.02 57.36 285.085 57.4396C285.44 57.875 285.48 58.2337 285.408 58.5353C285.338 58.8285 285.145 59.1262 284.87 59.4126C284.872 59.3377 284.869 59.2611 284.861 59.183C284.814 58.7063 284.586 58.2316 284.14 57.7829Z" stroke="white"/>
<path d="M272.848 70.11C272.868 70.1174 272.888 70.1247 272.908 70.132C272.725 70.1079 272.543 70.0829 272.359 70.057L272.359 70.0569C271.821 69.9808 271.489 69.887 271.303 69.801C271.313 69.7929 271.324 69.7843 271.336 69.7752C271.487 69.6591 271.721 69.5286 272.023 69.3981C272.081 69.3733 272.14 69.3488 272.201 69.3247C272.198 69.3717 272.2 69.4207 272.209 69.4713C272.231 69.6062 272.293 69.7164 272.365 69.8004C272.496 69.9543 272.682 70.047 272.848 70.11ZM271.172 69.7223C271.172 69.7223 271.175 69.7246 271.179 69.7294C271.173 69.7248 271.171 69.7224 271.172 69.7223ZM274.079 61.5744C274.396 61.4431 274.705 61.3295 275.004 61.2314C275.003 61.2393 275.002 61.2472 275.001 61.2553C274.978 61.4928 275.09 61.6781 275.213 61.7936C274.749 61.7301 274.365 61.6561 274.079 61.5744ZM293.403 61.6241C293.468 62.002 293.334 62.5247 292.691 63.0946C293.062 62.5376 293.193 61.9748 293.09 61.4438C293.042 61.1986 292.947 60.9775 292.819 60.782C293.155 61.0179 293.351 61.3203 293.403 61.6241ZM273.662 61.4046C273.662 61.4046 273.664 61.4059 273.666 61.4085C273.663 61.4059 273.662 61.4046 273.662 61.4046ZM273.684 61.7813C273.682 61.7834 273.681 61.7845 273.681 61.7845C273.681 61.7845 273.682 61.7834 273.684 61.7813Z" fill="white"/>
<path d="M272.848 70.11C272.868 70.1174 272.888 70.1247 272.908 70.132C272.725 70.1079 272.543 70.0829 272.359 70.057L272.359 70.0569C271.821 69.9808 271.489 69.887 271.303 69.801C271.313 69.7929 271.324 69.7843 271.336 69.7752C271.487 69.6591 271.721 69.5286 272.023 69.3981C272.081 69.3733 272.14 69.3488 272.201 69.3247C272.198 69.3717 272.2 69.4207 272.209 69.4713C272.231 69.6062 272.293 69.7164 272.365 69.8004C272.496 69.9543 272.682 70.047 272.848 70.11ZM271.172 69.7223C271.172 69.7223 271.175 69.7246 271.179 69.7294C271.173 69.7248 271.171 69.7224 271.172 69.7223ZM274.079 61.5744C274.396 61.4431 274.705 61.3295 275.004 61.2314C275.003 61.2393 275.002 61.2472 275.001 61.2553C274.978 61.4928 275.09 61.6781 275.213 61.7936C274.749 61.7301 274.365 61.6561 274.079 61.5744ZM293.403 61.6241C293.468 62.002 293.334 62.5247 292.691 63.0946C293.062 62.5376 293.193 61.9748 293.09 61.4438C293.042 61.1986 292.947 60.9775 292.819 60.782C293.155 61.0179 293.351 61.3203 293.403 61.6241ZM273.662 61.4046C273.662 61.4046 273.664 61.4059 273.666 61.4085C273.663 61.4059 273.662 61.4046 273.662 61.4046ZM273.684 61.7813C273.682 61.7834 273.681 61.7845 273.681 61.7845C273.681 61.7845 273.682 61.7834 273.684 61.7813Z" stroke="white"/>
<path d="M272.848 70.11C272.868 70.1174 272.888 70.1247 272.908 70.132C272.725 70.1079 272.543 70.0829 272.359 70.057L272.359 70.0569C271.821 69.9808 271.489 69.887 271.303 69.801C271.313 69.7929 271.324 69.7843 271.336 69.7752C271.487 69.6591 271.721 69.5286 272.023 69.3981C272.081 69.3733 272.14 69.3488 272.201 69.3247C272.198 69.3717 272.2 69.4207 272.209 69.4713C272.231 69.6062 272.293 69.7164 272.365 69.8004C272.496 69.9543 272.682 70.047 272.848 70.11ZM271.172 69.7223C271.172 69.7223 271.175 69.7246 271.179 69.7294C271.173 69.7248 271.171 69.7224 271.172 69.7223ZM274.079 61.5744C274.396 61.4431 274.705 61.3295 275.004 61.2314C275.003 61.2393 275.002 61.2472 275.001 61.2553C274.978 61.4928 275.09 61.6781 275.213 61.7936C274.749 61.7301 274.365 61.6561 274.079 61.5744ZM293.403 61.6241C293.468 62.002 293.334 62.5247 292.691 63.0946C293.062 62.5376 293.193 61.9748 293.09 61.4438C293.042 61.1986 292.947 60.9775 292.819 60.782C293.155 61.0179 293.351 61.3203 293.403 61.6241ZM273.662 61.4046C273.662 61.4046 273.664 61.4059 273.666 61.4085C273.663 61.4059 273.662 61.4046 273.662 61.4046ZM273.684 61.7813C273.682 61.7834 273.681 61.7845 273.681 61.7845C273.681 61.7845 273.682 61.7834 273.684 61.7813Z" stroke="white"/>
<path d="M282.086 51.8349L282.086 51.8349C280.774 52.7389 279.978 53.5875 279.593 54.4239C279.196 55.2877 279.26 56.0853 279.549 56.8056C279.558 56.8288 279.568 56.8519 279.578 56.875C279.459 56.7331 279.351 56.593 279.254 56.4544C278.914 55.9686 278.734 55.5394 278.699 55.1566C278.665 54.7905 278.76 54.4228 279.057 54.0321C279.547 53.3912 280.27 52.8129 281.108 52.2202C281.372 52.0336 281.649 51.844 281.932 51.651C282.521 51.2488 283.13 50.8323 283.679 50.3992C284.175 50.0073 284.648 49.5821 285.046 49.1064C284.493 49.8953 283.573 50.8113 282.086 51.8349Z" fill="white"/>
<path d="M282.086 51.8349L282.086 51.8349C280.774 52.7389 279.978 53.5875 279.593 54.4239C279.196 55.2877 279.26 56.0853 279.549 56.8056C279.558 56.8288 279.568 56.8519 279.578 56.875C279.459 56.7331 279.351 56.593 279.254 56.4544C278.914 55.9686 278.734 55.5394 278.699 55.1566C278.665 54.7905 278.76 54.4228 279.057 54.0321C279.547 53.3912 280.27 52.8129 281.108 52.2202C281.372 52.0336 281.649 51.844 281.932 51.651C282.521 51.2488 283.13 50.8323 283.679 50.3992C284.175 50.0073 284.648 49.5821 285.046 49.1064C284.493 49.8953 283.573 50.8113 282.086 51.8349Z" stroke="white"/>
<path d="M282.086 51.8349L282.086 51.8349C280.774 52.7389 279.978 53.5875 279.593 54.4239C279.196 55.2877 279.26 56.0853 279.549 56.8056C279.558 56.8288 279.568 56.8519 279.578 56.875C279.459 56.7331 279.351 56.593 279.254 56.4544C278.914 55.9686 278.734 55.5394 278.699 55.1566C278.665 54.7905 278.76 54.4228 279.057 54.0321C279.547 53.3912 280.27 52.8129 281.108 52.2202C281.372 52.0336 281.649 51.844 281.932 51.651C282.521 51.2488 283.13 50.8323 283.679 50.3992C284.175 50.0073 284.648 49.5821 285.046 49.1064C284.493 49.8953 283.573 50.8113 282.086 51.8349Z" stroke="white"/>
<mask id="path-124-inside-2_275_286" fill="white">
<path d="M279.349 72.3848C285.02 72.6999 293.727 72.2073 293.933 69.8687C293.933 69.8687 293.537 70.7518 289.245 71.4574C284.408 72.2517 278.439 72.1585 274.898 71.6526C274.898 71.6526 275.624 72.1763 279.349 72.3848Z"/>
</mask>
<path d="M279.349 72.3848C285.02 72.6999 293.727 72.2073 293.933 69.8687C293.933 69.8687 293.537 70.7518 289.245 71.4574C284.408 72.2517 278.439 72.1585 274.898 71.6526C274.898 71.6526 275.624 72.1763 279.349 72.3848Z" fill="white"/>
<path d="M279.349 72.3848L279.294 73.3833L279.294 73.3833L279.349 72.3848ZM293.933 69.8687L294.929 69.9563L293.021 69.4593L293.933 69.8687ZM289.245 71.4574L289.407 72.4441L289.407 72.4441L289.245 71.4574ZM274.898 71.6526L275.04 70.6627L274.313 72.4635L274.898 71.6526ZM279.294 73.3833C282.172 73.5432 285.831 73.4996 288.819 73.1137C290.304 72.9217 291.685 72.6379 292.733 72.2224C293.256 72.0151 293.752 71.7538 294.141 71.4118C294.537 71.0629 294.874 70.5798 294.929 69.9563L292.937 69.781C292.94 69.7422 292.961 69.786 292.819 69.9105C292.67 70.0418 292.407 70.2002 291.996 70.3631C291.177 70.6879 289.988 70.9459 288.562 71.1301C285.728 71.4963 282.197 71.5415 279.405 71.3864L279.294 73.3833ZM293.933 69.8687C293.021 69.4593 293.021 69.4576 293.022 69.456C293.022 69.4554 293.023 69.4538 293.024 69.4527C293.025 69.4505 293.026 69.4483 293.027 69.4462C293.029 69.4419 293.031 69.4377 293.033 69.4335C293.037 69.4252 293.041 69.4173 293.045 69.4096C293.053 69.3943 293.06 69.3803 293.068 69.3675C293.083 69.342 293.097 69.3218 293.109 69.3065C293.132 69.2761 293.144 69.2664 293.135 69.2745C293.116 69.2919 293.016 69.3754 292.761 69.4991C292.246 69.7495 291.179 70.126 289.083 70.4706L289.407 72.4441C291.603 72.0831 292.88 71.6653 293.636 71.2978C294.017 71.1124 294.284 70.9311 294.473 70.7609C294.568 70.6751 294.645 70.591 294.707 70.5095C294.737 70.4687 294.764 70.4288 294.787 70.39C294.798 70.3706 294.809 70.3515 294.819 70.3328C294.824 70.3235 294.828 70.3142 294.833 70.3051C294.835 70.3005 294.837 70.296 294.839 70.2915C294.84 70.2892 294.841 70.287 294.842 70.2847C294.843 70.2836 294.844 70.2819 294.844 70.2814C294.845 70.2797 294.845 70.278 293.933 69.8687ZM289.083 70.4706C284.353 71.2473 278.487 71.1552 275.04 70.6627L274.757 72.6426C278.391 73.1618 284.462 73.2561 289.407 72.4441L289.083 70.4706ZM274.898 71.6526C274.313 72.4635 274.314 72.4641 274.315 72.4648C274.315 72.465 274.316 72.4656 274.317 72.4661C274.318 72.4669 274.319 72.4678 274.32 72.4687C274.323 72.4704 274.325 72.4721 274.328 72.4739C274.333 72.4774 274.338 72.481 274.343 72.4846C274.354 72.4918 274.365 72.4992 274.378 72.5068C274.402 72.5219 274.429 72.5378 274.459 72.5543C274.52 72.5873 274.595 72.6233 274.687 72.6614C274.87 72.7373 275.128 72.8242 275.491 72.9123C276.215 73.088 277.392 73.2768 279.294 73.3833L279.405 71.3864C277.581 71.2843 276.532 71.1069 275.962 70.9687C275.679 70.8999 275.522 70.8428 275.453 70.814C275.419 70.7997 275.407 70.7932 275.414 70.7967C275.417 70.7985 275.425 70.803 275.437 70.8103C275.443 70.814 275.45 70.8184 275.457 70.8236C275.461 70.8263 275.465 70.8291 275.47 70.8321C275.472 70.8336 275.474 70.8351 275.476 70.8367C275.478 70.8375 275.479 70.8384 275.48 70.8392C275.48 70.8396 275.481 70.8402 275.482 70.8405C275.483 70.8411 275.483 70.8417 274.898 71.6526Z" fill="white" mask="url(#path-124-inside-2_275_286)"/>
<path d="M279.349 72.3848L279.294 73.3833L279.294 73.3833L279.349 72.3848ZM293.933 69.8687L294.929 69.9563L293.021 69.4593L293.933 69.8687ZM289.245 71.4574L289.407 72.4441L289.407 72.4441L289.245 71.4574ZM274.898 71.6526L275.04 70.6627L274.313 72.4635L274.898 71.6526ZM279.294 73.3833C282.172 73.5432 285.831 73.4996 288.819 73.1137C290.304 72.9217 291.685 72.6379 292.733 72.2224C293.256 72.0151 293.752 71.7538 294.141 71.4118C294.537 71.0629 294.874 70.5798 294.929 69.9563L292.937 69.781C292.94 69.7422 292.961 69.786 292.819 69.9105C292.67 70.0418 292.407 70.2002 291.996 70.3631C291.177 70.6879 289.988 70.9459 288.562 71.1301C285.728 71.4963 282.197 71.5415 279.405 71.3864L279.294 73.3833ZM293.933 69.8687C293.021 69.4593 293.021 69.4576 293.022 69.456C293.022 69.4554 293.023 69.4538 293.024 69.4527C293.025 69.4505 293.026 69.4483 293.027 69.4462C293.029 69.4419 293.031 69.4377 293.033 69.4335C293.037 69.4252 293.041 69.4173 293.045 69.4096C293.053 69.3943 293.06 69.3803 293.068 69.3675C293.083 69.342 293.097 69.3218 293.109 69.3065C293.132 69.2761 293.144 69.2664 293.135 69.2745C293.116 69.2919 293.016 69.3754 292.761 69.4991C292.246 69.7495 291.179 70.126 289.083 70.4706L289.407 72.4441C291.603 72.0831 292.88 71.6653 293.636 71.2978C294.017 71.1124 294.284 70.9311 294.473 70.7609C294.568 70.6751 294.645 70.591 294.707 70.5095C294.737 70.4687 294.764 70.4288 294.787 70.39C294.798 70.3706 294.809 70.3515 294.819 70.3328C294.824 70.3235 294.828 70.3142 294.833 70.3051C294.835 70.3005 294.837 70.296 294.839 70.2915C294.84 70.2892 294.841 70.287 294.842 70.2847C294.843 70.2836 294.844 70.2819 294.844 70.2814C294.845 70.2797 294.845 70.278 293.933 69.8687ZM289.083 70.4706C284.353 71.2473 278.487 71.1552 275.04 70.6627L274.757 72.6426C278.391 73.1618 284.462 73.2561 289.407 72.4441L289.083 70.4706ZM274.898 71.6526C274.313 72.4635 274.314 72.4641 274.315 72.4648C274.315 72.465 274.316 72.4656 274.317 72.4661C274.318 72.4669 274.319 72.4678 274.32 72.4687C274.323 72.4704 274.325 72.4721 274.328 72.4739C274.333 72.4774 274.338 72.481 274.343 72.4846C274.354 72.4918 274.365 72.4992 274.378 72.5068C274.402 72.5219 274.429 72.5378 274.459 72.5543C274.52 72.5873 274.595 72.6233 274.687 72.6614C274.87 72.7373 275.128 72.8242 275.491 72.9123C276.215 73.088 277.392 73.2768 279.294 73.3833L279.405 71.3864C277.581 71.2843 276.532 71.1069 275.962 70.9687C275.679 70.8999 275.522 70.8428 275.453 70.814C275.419 70.7997 275.407 70.7932 275.414 70.7967C275.417 70.7985 275.425 70.803 275.437 70.8103C275.443 70.814 275.45 70.8184 275.457 70.8236C275.461 70.8263 275.465 70.8291 275.47 70.8321C275.472 70.8336 275.474 70.8351 275.476 70.8367C275.478 70.8375 275.479 70.8384 275.48 70.8392C275.48 70.8396 275.481 70.8402 275.482 70.8405C275.483 70.8411 275.483 70.8417 274.898 71.6526Z" fill="white" mask="url(#path-124-inside-2_275_286)"/>
<path d="M364.625 16.3272L364.684 16.2855C364.566 16.0626 364.392 15.8617 364.217 15.7613L354.82 10.1421C354.664 10.0416 354.449 10 354.216 10C353.983 10 353.768 10.0612 353.612 10.1421L344.274 15.7809C343.943 15.9818 343.71 16.4888 343.71 16.871V28.129C343.71 28.3495 343.75 28.592 343.884 28.8149L343.847 28.8345C343.943 28.9962 344.08 29.1383 344.217 29.2191L353.593 34.8579C353.749 34.9584 353.964 35 354.197 35C354.431 35 354.645 34.9388 354.801 34.8579L364.14 29.2191C364.47 29.0182 364.703 28.5112 364.703 28.129V16.8514C364.722 16.6897 364.703 16.5084 364.625 16.3272ZM354.216 27.4407C355.987 27.4407 357.544 26.4315 358.359 24.9348L360.871 26.4707C359.548 28.8566 357.058 30.4733 354.216 30.4733C349.976 30.4733 346.53 26.8945 346.53 22.4902C346.53 18.0835 349.976 14.5072 354.216 14.5072C357.077 14.5072 359.567 16.1434 360.89 18.5489L358.359 20.0652C357.544 18.5489 355.987 17.5397 354.216 17.5397C351.589 17.5397 349.45 19.7614 349.45 22.4902C349.45 25.219 351.589 27.4407 354.216 27.4407Z" fill="white"/>
<path d="M315.71 111H334.71V129H315.71V111Z" fill="white"/>
<path d="M333.146 124.621C333.003 123.804 332.424 123.119 330.705 122.479C330.106 122.227 329.441 122.047 329.243 121.632C329.174 121.389 329.164 121.253 329.209 121.108C329.337 120.634 329.953 120.484 330.443 120.62C330.759 120.718 331.056 120.94 331.237 121.296C332.078 120.797 332.078 120.799 332.664 120.457C332.449 120.15 332.335 120.007 332.194 119.878C331.687 119.358 330.997 119.091 329.894 119.111L329.32 119.179C328.768 119.308 328.244 119.574 327.937 119.928C327.012 120.89 327.277 122.572 328.4 123.264C329.508 124.026 331.133 124.201 331.341 124.914C331.543 125.785 330.643 126.069 329.745 125.969C329.087 125.842 328.719 125.533 328.323 124.975C327.591 125.363 327.591 125.363 326.842 125.758C327.02 126.116 327.205 126.277 327.505 126.586C328.917 127.902 332.454 127.836 333.087 125.846C333.114 125.778 333.285 125.322 333.146 124.621ZM325.84 119.218H324.017L324.01 123.545C324.01 124.466 324.062 125.308 323.898 125.567C323.631 126.075 322.939 126.014 322.625 125.914C322.303 125.769 322.14 125.565 321.952 125.274C321.9 125.19 321.86 125.125 321.848 125.12L320.364 125.953C320.611 126.418 320.975 126.822 321.44 127.083C322.135 127.466 323.07 127.584 324.047 127.378C324.682 127.208 325.232 126.856 325.518 126.32C325.934 125.617 325.845 124.766 325.84 123.827C325.85 122.29 325.84 120.756 325.84 119.218Z" fill="#99EA73"/>
<defs>
<clipPath id="clip0_275_286">
<rect width="25" height="25" fill="white" transform="translate(134.71 113)"/>
</clipPath>
</defs>
</svg>
