<svg width="666" height="378" viewBox="0 0 666 378" fill="none" xmlns="http://www.w3.org/2000/svg">
<path d="M31.7928 370.472C31.7928 370.472 -14.5581 334.281 17.7619 247.767C36.816 196.766 101.092 204.597 97.8401 112.993C94.5884 21.388 153.833 -18.545 260.039 23.032C286.946 33.5666 318.569 23.67 352.396 13.7735C414.92 -4.51758 484.965 -22.811 546.621 87.9416C583.265 153.764 647.392 145.237 664.464 265.611C669.131 298.514 662.132 332.961 627.554 370.472H31.7928Z" fill="#F1FAEB"/>
<path fill-rule="evenodd" clip-rule="evenodd" d="M162.444 115.34C155.07 116.426 149.143 121.835 147.569 128.914C147.333 129.978 146.893 133.887 146.592 137.601L146.044 144.354L144.212 144.324C142.086 144.288 140.864 144.685 139.49 145.855C137.687 147.391 137.71 147.256 136.236 165.441C134.716 184.184 134.704 183.555 136.623 185.588C137.357 186.365 138.178 186.947 138.88 187.186C140.39 187.7 180.43 190.955 181.9 190.683C183.412 190.404 184.849 189.485 185.721 188.242L186.49 187.145L187.911 169.611L189.332 152.075L188.672 150.78C187.687 148.85 186.292 147.926 183.797 147.551L181.797 147.249L182.34 139.147C182.917 130.516 182.892 129.945 181.804 126.942C179.946 121.813 175.761 117.781 170.543 116.093C168.834 115.54 164.085 115.099 162.444 115.34ZM167.79 123.384C170.835 124.295 173.421 126.692 174.5 129.604L175.081 131.173L174.529 138.929L173.977 146.685L163.889 145.867L153.801 145.049L154.509 137.306L155.216 129.563L156.007 128.177C158.339 124.088 163.341 122.054 167.79 123.384ZM165.604 157.537C168.503 159.577 168.564 163.628 165.73 165.881L164.91 166.533L165.02 172.336C165.081 175.528 165.045 178.256 164.939 178.4C164.64 178.807 157.75 178.192 157.62 177.747C157.565 177.557 157.928 175.218 158.428 172.548C159.58 166.4 159.622 165.907 159.017 165.517C158.757 165.349 158.281 164.664 157.959 163.996C156.8 161.585 157.684 158.643 159.967 157.318C161.854 156.221 163.845 156.299 165.604 157.537Z" fill="#5DB152" fill-opacity="0.3"/>
<path d="M365.971 90.7559C366.807 91.6256 367.597 92.6079 368.318 93.7109C369.688 95.8098 370.683 99.5962 370.496 102.099C370.48 102.367 370.452 102.631 370.427 102.897C368.656 118.951 348.933 123.859 339.828 110.228C338.64 108.445 337.74 105.514 337.556 103.062C337.52 102.494 337.512 101.95 337.556 101.467C337.74 99.1901 338.274 97.1323 339.096 95.2995C343.781 84.865 357.559 82.0993 365.971 90.7559ZM327.788 130.148L334.731 126.394C335.311 126.087 336.015 126.131 336.555 126.507C337.239 126.99 337.949 127.448 338.684 127.879C340.051 128.68 341.445 129.369 342.868 129.923C343.533 130.183 343.973 130.812 343.976 131.52L344.067 139.754C344.07 140.632 344.757 141.364 345.649 141.43L353.175 141.995C354.027 142.058 354.781 141.474 354.943 140.64L356.33 133.188C356.448 132.458 357.048 131.904 357.804 131.808C360.99 131.404 364.109 130.491 367.033 129.108C367.74 128.773 368.604 128.971 369.099 129.572L372.039 133.13C372.603 133.802 373.588 133.962 374.334 133.481L380.583 129.36C380.713 129.275 380.828 129.182 380.924 129.07C381.4 128.551 381.502 127.766 381.15 127.13L378.344 121.952L377.657 120.693C378.531 119.598 379.345 118.421 380.074 117.184C381.059 115.518 381.868 113.79 382.498 112.045C382.74 111.378 383.359 110.922 384.069 110.922L390.717 110.854C391.628 110.84 392.379 110.143 392.439 109.24L392.874 103.503L392.995 101.86C393.064 100.963 392.445 100.148 391.559 99.9886L385.315 98.828C384.588 98.7017 384.025 98.1311 383.928 97.4149C383.598 95.2776 383.048 93.1786 382.272 91.1702C382.22 90.9891 382.154 90.8299 382.085 90.6598C382.058 90.6022 382.041 90.5446 382.027 90.487C381.829 89.8202 382.058 89.1096 382.6 88.6679L388.385 83.8938C388.453 83.8444 388.511 83.7812 388.566 83.7209C389.083 83.1474 389.16 82.2749 388.728 81.6137L384.619 75.3936C384.124 74.6418 383.139 74.3949 382.338 74.8229L375.098 78.741C374.488 79.0812 373.737 78.9989 373.198 78.5544C372.009 77.5859 370.725 76.6942 369.352 75.8875C368.623 75.4595 367.886 75.0671 367.138 74.7077C366.532 74.4114 366.142 73.805 366.136 73.1328L366.046 65.2198C366.04 64.3501 365.358 63.6202 364.478 63.5544L357.034 63.0056C356.134 62.9343 355.326 63.5461 355.155 64.4461L354.055 70.3424C353.909 71.1326 353.249 71.7115 352.448 71.7609C349.304 71.9228 346.207 72.5785 343.266 73.6843C342.576 73.9559 341.778 73.7474 341.302 73.1684L336.992 67.9663C336.411 67.2667 335.399 67.1212 334.64 67.6124L328.423 71.6951C327.675 72.1834 327.433 73.1684 327.859 73.9367L328.022 74.2412L331.284 80.2528C331.633 80.8976 331.545 81.6741 331.067 82.231L331.061 82.2393C329.917 83.57 328.872 85.0214 327.945 86.5909C327.449 87.4277 327.009 88.2783 326.6 89.1425C326.322 89.7489 325.725 90.1358 325.059 90.144L318.309 90.2126C317.387 90.2181 316.622 90.9369 316.556 91.8451L316.004 99.2395C315.99 99.4508 316.017 99.6566 316.067 99.8459C316.246 100.458 316.763 100.952 317.42 101.078L322.41 101.991C323.021 102.112 323.524 102.546 323.728 103.114C323.78 103.265 323.813 103.424 323.827 103.591C324.052 107.613 325.087 111.54 326.858 115.164C327.169 115.773 327.056 116.506 326.621 117.019C326.561 117.093 326.489 117.162 326.412 117.225L321.725 121.088C321.046 121.645 320.897 122.624 321.379 123.368L321.475 123.513L325.474 129.58C325.986 130.34 326.982 130.584 327.788 130.148Z" fill="#5DB152" fill-opacity="0.2"/>
<path d="M424.202 69.1619C424.692 69.6665 425.155 70.2399 425.576 70.8819C426.378 72.1033 426.958 74.3072 426.85 75.7674C426.838 75.9227 426.823 76.075 426.808 76.2303C425.774 85.5772 414.247 88.438 408.925 80.5006C408.231 79.4614 407.705 77.7533 407.596 76.3258C407.578 75.9944 407.572 75.6778 407.596 75.3971C407.705 74.0712 408.017 72.8738 408.498 71.8077C411.236 65.7307 419.289 64.1211 424.202 69.1619ZM401.887 92.0992L405.947 89.9132C406.286 89.7341 406.698 89.7609 407.01 89.9789C407.413 90.2596 407.828 90.5254 408.258 90.7763C409.057 91.2421 409.871 91.6453 410.701 91.9678C411.091 92.1201 411.347 92.4844 411.35 92.8965L411.404 97.6894C411.404 98.2031 411.806 98.6301 412.326 98.6659L416.726 98.9974C417.225 99.0332 417.666 98.6928 417.759 98.206L418.571 93.867C418.64 93.443 418.989 93.1205 419.43 93.0637C421.293 92.8308 423.114 92.2993 424.827 91.493C425.239 91.2989 425.744 91.4123 426.032 91.7617L427.751 93.8342C428.082 94.2254 428.656 94.318 429.091 94.0373L432.746 91.6393C432.821 91.5885 432.887 91.5378 432.944 91.4691C433.22 91.1675 433.28 90.7106 433.076 90.3403L431.435 87.3242L431.036 86.5925C431.547 85.9565 432.021 85.2696 432.448 84.55C433.022 83.5794 433.497 82.5731 433.863 81.5577C434.005 81.1695 434.365 80.9038 434.783 80.9038L438.668 80.8649C439.197 80.856 439.639 80.4499 439.672 79.9243L439.928 76.5827L439.997 75.6271C440.039 75.1045 439.675 74.6297 439.158 74.5371L435.51 73.8622C435.086 73.7875 434.756 73.4561 434.699 73.038C434.506 71.7927 434.185 70.5714 433.731 69.4008C433.701 69.2962 433.662 69.2037 433.623 69.1051C433.605 69.0723 433.596 69.0394 433.587 69.0036C433.473 68.6154 433.608 68.2033 433.924 67.9465L437.304 65.1663C437.343 65.1364 437.376 65.1006 437.409 65.0647C437.713 64.7303 437.755 64.2226 437.506 63.8374L435.104 60.2151C434.813 59.7791 434.239 59.6358 433.77 59.8836L429.539 62.1651C429.182 62.3622 428.743 62.3144 428.427 62.0546C427.733 61.4932 426.982 60.9736 426.18 60.5047C425.756 60.2539 425.323 60.0269 424.887 59.8179C424.533 59.6447 424.304 59.2893 424.301 58.9011L424.247 54.2934C424.244 53.7857 423.848 53.3617 423.334 53.3228L418.982 53.0033C418.457 52.9615 417.982 53.3169 417.883 53.8395L417.24 57.2736C417.155 57.7365 416.768 58.0739 416.302 58.1008C414.463 58.1934 412.654 58.5756 410.935 59.2207C410.532 59.3789 410.067 59.2565 409.787 58.9191L407.266 55.891C406.929 55.4849 406.337 55.3983 405.893 55.685L402.259 58.062C401.824 58.3457 401.683 58.9191 401.932 59.367L402.025 59.5462L403.93 63.0461C404.135 63.4193 404.084 63.8732 403.804 64.1958L403.801 64.2017C403.134 64.9781 402.521 65.8203 401.98 66.737C401.692 67.2238 401.433 67.7165 401.193 68.2212C401.033 68.5736 400.682 68.8005 400.294 68.8035L396.349 68.8453C395.811 68.8483 395.363 69.2664 395.324 69.795L395.002 74.1011C394.993 74.2235 395.011 74.343 395.038 74.4535C395.144 74.8118 395.447 75.0985 395.829 75.1702L398.747 75.7047C399.101 75.7734 399.396 76.0272 399.516 76.3557C399.546 76.4453 399.567 76.5379 399.573 76.6334C399.705 78.9776 400.309 81.2621 401.346 83.3734C401.526 83.7287 401.46 84.1558 401.208 84.4544C401.172 84.4962 401.13 84.535 401.085 84.5738L398.344 86.8225C397.947 87.148 397.86 87.7184 398.143 88.1484L398.2 88.235L400.538 91.7677C400.835 92.2097 401.418 92.35 401.887 92.0992Z" fill="#5DB152" fill-opacity="0.1"/>
<path d="M440.585 122.135C441.249 122.826 441.877 123.611 442.447 124.49C443.534 126.163 444.321 129.182 444.174 131.182C444.158 131.394 444.137 131.603 444.117 131.815C442.716 144.617 427.09 148.535 419.876 137.664C418.935 136.241 418.222 133.901 418.075 131.946C418.051 131.492 418.043 131.059 418.075 130.674C418.222 128.858 418.645 127.218 419.297 125.758C423.008 117.435 433.925 115.231 440.585 122.135ZM410.336 153.549L415.839 150.555C416.299 150.31 416.857 150.347 417.281 150.645C417.827 151.03 418.389 151.394 418.971 151.737C420.055 152.375 421.159 152.927 422.283 153.369C422.813 153.578 423.159 154.076 423.163 154.641L423.236 161.205C423.236 161.909 423.782 162.493 424.487 162.542L430.45 162.996C431.127 163.046 431.725 162.579 431.852 161.913L432.952 155.97C433.045 155.389 433.518 154.948 434.117 154.87C436.642 154.551 439.111 153.823 441.433 152.719C441.991 152.453 442.675 152.608 443.066 153.087L445.396 155.925C445.844 156.461 446.622 156.588 447.213 156.203L452.166 152.919C452.268 152.85 452.358 152.78 452.435 152.686C452.81 152.273 452.891 151.647 452.614 151.14L450.39 147.009L449.848 146.007C450.541 145.136 451.184 144.195 451.763 143.21C452.541 141.881 453.185 140.502 453.682 139.112C453.873 138.58 454.362 138.216 454.928 138.216L460.195 138.163C460.912 138.151 461.511 137.594 461.556 136.875L461.902 132.298L461.996 130.989C462.053 130.274 461.56 129.623 460.859 129.496L455.914 128.572C455.339 128.47 454.891 128.016 454.814 127.443C454.553 125.738 454.117 124.065 453.502 122.462C453.462 122.319 453.409 122.192 453.356 122.057C453.331 122.012 453.319 121.967 453.307 121.918C453.152 121.386 453.335 120.822 453.763 120.47L458.346 116.663C458.399 116.622 458.443 116.573 458.488 116.523C458.9 116.065 458.957 115.37 458.619 114.843L455.364 109.882C454.969 109.284 454.191 109.088 453.555 109.428L447.82 112.552C447.335 112.822 446.74 112.757 446.313 112.401C445.372 111.632 444.353 110.92 443.266 110.278C442.691 109.935 442.105 109.624 441.514 109.338C441.033 109.1 440.724 108.614 440.72 108.082L440.646 101.771C440.642 101.076 440.105 100.495 439.408 100.442L433.51 100.005C432.797 99.9473 432.153 100.434 432.019 101.15L431.147 105.853C431.033 106.487 430.507 106.949 429.876 106.986C427.383 107.113 424.931 107.636 422.601 108.52C422.055 108.736 421.424 108.569 421.045 108.107L417.627 103.959C417.171 103.403 416.368 103.285 415.766 103.677L410.841 106.933C410.25 107.321 410.059 108.107 410.397 108.72L410.523 108.965L413.105 113.759C413.382 114.27 413.313 114.892 412.934 115.333L412.93 115.341C412.026 116.405 411.195 117.558 410.462 118.814C410.071 119.48 409.72 120.155 409.395 120.846C409.179 121.329 408.702 121.64 408.177 121.644L402.828 121.701C402.099 121.705 401.492 122.278 401.439 123.002L401.003 128.899C400.991 129.067 401.015 129.231 401.052 129.382C401.195 129.873 401.606 130.265 402.123 130.364L406.079 131.096C406.559 131.19 406.959 131.537 407.122 131.987C407.162 132.11 407.191 132.237 407.199 132.368C407.378 135.578 408.197 138.707 409.602 141.598C409.847 142.085 409.757 142.67 409.415 143.079C409.366 143.136 409.309 143.189 409.248 143.242L405.533 146.322C404.995 146.768 404.877 147.549 405.26 148.138L405.337 148.257L408.507 153.095C408.91 153.7 409.7 153.892 410.336 153.549Z" fill="#5DB152" fill-opacity="0.25"/>
<path d="M310.185 212.209L297.699 360.632C297.699 360.632 296.392 369.629 303.086 369.646C314.09 369.671 357.864 369.646 357.864 369.646C357.864 369.646 349.58 367.773 349.68 363.559C349.799 358.592 364.274 210.805 364.274 210.805L310.185 212.209Z" fill="#8FDE74"/>
<path d="M361.416 366.951C359.25 366.958 317.442 367.089 306.724 366.951C302.054 366.893 301.234 362.799 301.197 360.15C301.176 358.88 301.337 357.94 301.337 357.94L301.663 354.084L302.49 344.25L303.221 335.564L304.16 324.401L304.952 314.979L313.823 209.515L367.912 208.111C367.912 208.111 361.814 269.958 357.503 314.979C357.021 319.995 356.562 324.806 356.141 329.296C356.003 330.728 355.871 332.13 355.743 333.494C355.342 337.753 354.976 341.665 354.66 345.118C354.492 346.939 354.336 348.63 354.196 350.181C353.646 356.251 353.325 360.129 353.32 360.867C353.318 361.295 353.355 361.696 353.425 362.068C354.312 366.798 360.603 366.951 361.416 366.951Z" fill="#87DB80"/>
<path d="M178.829 131.442L209.241 253.577L213.403 270.303L227.568 327.191H490.713L438.506 131.442H178.829Z" fill="#87DB80"/>
<path d="M178.829 131.442L174.614 132.849L221.964 331.438L227.568 327.191L178.829 131.442Z" fill="#8FDE74"/>
<path d="M221.964 331.438H483.491L490.713 327.191H227.568L221.964 331.438Z" fill="#8FDE74"/>
<path d="M313.804 369.701H370.429V367.012H313.804V369.701Z" fill="#87DB80"/>
<path d="M355.742 333.494C355.805 332.819 355.87 332.132 355.936 331.438H356.034L355.742 333.494Z" fill="#99E89C"/>
<path d="M302.49 344.25L303.221 335.564L303.568 331.438H355.936C355.871 332.132 355.805 332.819 355.743 333.494L302.49 344.25Z" fill="#8FE082"/>
<path d="M361.416 366.951C359.25 366.958 317.442 367.089 306.724 366.951C302.054 366.893 301.235 362.799 301.197 360.15L354.196 350.181C353.646 356.252 353.325 360.129 353.32 360.867C353.318 361.295 353.355 361.696 353.425 362.068C354.312 366.798 360.603 366.951 361.416 366.951Z" fill="#99EA73"/>
<path d="M343.163 287.563L227.568 327.191L213.403 270.303L343.163 287.563Z" fill="#99EA73"/>
<path d="M178.829 131.442H438.506L480.321 288.762H218.014L178.829 131.442Z" fill="#A5FB9E"/>
<path d="M467.744 280.339H226.596L189.294 137.031L430.03 138.682L467.744 280.339Z" fill="#ECFFEB"/>
<path d="M367.8 222.793V280.335H276.586V222.793H367.8Z" fill="#46953B"/>
<path d="M413.406 222.795V280.335H322.193V222.795H413.406Z" fill="#81C479"/>
<path d="M322.193 231.295L302.967 250.517H276.64V222.793H322.193V231.295Z" fill="#3F7738"/>
<path d="M276.586 222.793L256.079 242.579H301.714L322.193 222.793H276.586Z" fill="#81C479"/>
<path d="M413.406 224.833L322.193 222.795V231.276L339.153 249.867H413.406V231.36L412.936 230.808H413.406V224.833Z" fill="#46953B"/>
<path d="M322.193 222.793L340.24 242.579H430.247L413.406 222.793H322.193Z" fill="#81C479"/>
<path d="M163.251 215.511C163.251 215.511 163.885 208.602 156.163 208.602C156.163 208.602 158.503 209.236 159.713 210.505C159.713 210.505 154.788 207.615 149.428 212.056C144.068 216.499 147.398 227.641 145.768 229.755C144.139 231.872 137.791 232.294 138.567 239.135C139.343 245.974 158.712 254.541 157.468 260.199C157.468 260.199 165.058 249.043 159.631 243.953C159.631 243.953 162.276 246.444 162.546 249.406C162.546 249.406 163.264 243.624 159.584 241.773C156.327 240.136 153.66 234.152 153.942 233.083C154.224 232.012 163.251 215.511 163.251 215.511Z" fill="#37354C"/>
<path d="M155.649 248.691C155.649 248.691 161.418 272.553 167.081 277.324C170.485 280.19 180.607 286.771 180.607 286.771L176.397 288.298C176.397 288.298 162.358 283.56 159.215 279.864C156.072 276.169 147.467 257.657 147.467 257.657L155.649 248.691Z" fill="#FFB27D"/>
<path d="M188.856 295.494L187.5 292.136C186.046 288.536 182.553 286.179 178.67 286.179H153.66V302.047V369.788H257.118V302.047H198.574C194.301 302.047 190.456 299.455 188.856 295.494Z" fill="#7FDA74"/>
<path d="M169.266 337.022V330.996L190.407 321.737V327.894L175.643 333.965L190.407 340.035V346.28L169.266 337.022Z" fill="white"/>
<path d="M212.378 314.53H218.014L198.663 354.973H193.028L212.378 314.53Z" fill="white"/>
<path d="M241.514 330.996V337.022L220.371 346.28V340.124L235.137 334.053L220.371 327.982V321.737L241.514 330.996Z" fill="white"/>
<path d="M101.427 290.613C101.478 290.706 101.532 290.799 101.586 290.895C102.849 293.088 105.745 298.463 108.935 304.347C110.443 307.137 112.023 310.043 113.522 312.777C116.104 317.494 118.453 321.698 119.824 323.917C121.218 326.175 122.244 327.761 122.659 328.397L122.663 328.399C122.787 328.595 122.814 328.825 122.798 329.054C122.652 331.045 122.693 333.024 122.889 334.971C124.813 354.109 137.721 364.367 137.721 364.367L141.559 364.933C141.559 364.933 136.128 344.816 134.528 333.441C134.257 331.515 134.139 329.952 134.234 328.933C134.517 325.968 133.991 321.618 132.995 316.624C131.223 307.749 127.972 296.854 125.147 288.133C124.968 287.577 119.571 268.056 119.571 268.056C115.041 272.015 98.5176 273.649 98.5176 273.649C98.5176 273.649 95.7161 280.458 101.427 290.613Z" fill="#263238"/>
<path d="M149.613 369.788H133.596C133.596 369.788 133.211 367.347 134.048 365.496C134.85 363.719 135.993 363.661 134.194 360.876C135.212 361.924 138.484 362.357 140.8 362.047C141.083 362.506 142.629 365.592 143.577 366.272C144.624 367.024 149.291 366.756 149.613 369.788Z" fill="#233862"/>
<path d="M101.427 290.613C101.478 290.706 101.532 290.799 101.586 290.895C102.849 293.088 109.676 305.696 112.866 311.578C109.17 296.374 111.74 281.171 111.74 281.171L101.427 290.613Z" fill="#0E1315"/>
<path d="M161.067 214.54C161.171 214.119 151.918 218.722 151.449 219.242C147.109 224.055 148.346 230.335 150.83 230.396C152.422 230.435 152.114 233.083 152.114 233.083L169.855 225.578C169.855 225.578 167.719 213.125 161.067 214.54Z" fill="#37354C"/>
<path d="M155.104 245.108C155.104 245.108 157.804 250.498 157.467 254.876C157.467 254.876 154.212 260.013 145.768 261.315C145.768 261.315 153.028 245.103 155.104 245.108Z" fill="#81C479"/>
<path d="M113.915 274.841L113.969 271.845C108 272.599 93.3881 264.714 93.3881 264.714C93.3881 264.714 87.1436 268.866 86.2886 280.726C85.8715 286.515 83.2318 310.993 82.9399 318.302C82.8335 320.952 82.7981 322.843 82.786 323.598L82.7869 323.605C82.7832 323.835 82.6749 324.04 82.5331 324.222C81.298 325.791 80.2266 327.454 79.2988 329.179C70.1907 346.122 74.9538 369.145 74.9538 369.145L77.0687 368.607C77.0687 368.607 84.7701 344.741 89.8035 334.416C90.6578 332.665 91.4338 331.305 92.0829 330.516C93.9755 328.217 95.9712 324.315 97.9383 319.618C101.656 310.737 113.915 274.841 113.915 274.841Z" fill="#263238"/>
<path d="M87.6911 369.788H71.6734C71.6734 369.788 71.2894 367.347 72.126 365.496C72.9278 363.719 74.1834 362.911 73.8827 360.76C74.9005 361.808 76.5595 362.981 78.8752 362.671C79.1589 363.13 80.7067 365.592 81.6546 366.271C82.7013 367.024 87.369 366.756 87.6911 369.788Z" fill="#233862"/>
<path d="M144.687 264.754C142.536 265.12 145.038 266.831 142.079 267.153C137.867 267.611 133.519 267.926 131.241 268.834C130.41 269.167 129.854 269.574 129.681 270.098C128.693 273.067 122.44 278.169 122.44 278.169C94.5478 276.898 92.7515 264.47 92.7515 264.47C110.854 246.891 126.254 237.312 138.981 236.124C142.079 235.835 146.254 236.224 148.213 237.095C152.665 239.077 155.104 245.108 155.104 245.108C155.104 245.108 152.862 263.359 144.687 264.754Z" fill="#81C479"/>
<path d="M142.079 267.153C137.867 267.611 133.518 267.926 131.24 268.834C130.309 254.927 136.874 244.465 136.874 244.465C136.874 244.465 141.156 261.89 142.079 267.153Z" fill="#46953B"/>
<path d="M145.713 242.111C145.713 242.111 135.121 241.531 133.239 248.181C131.357 254.83 136.77 281.369 137.936 284.107C140.06 289.095 150.399 303.327 150.399 303.327L154.201 302.17C154.201 302.17 147.307 280.426 145.768 278.274C143.352 274.897 148.883 245.003 145.713 242.111Z" fill="#FFB27D"/>
<path d="M154.201 302.17C154.201 302.17 154.397 303.856 155.11 304.724C155.822 305.595 157.895 307.703 157.931 308.935C157.931 308.935 157.827 309.482 157.382 309.382C156.938 309.281 155.394 307.754 154.602 307.863C154.602 307.863 155.024 310.334 155.444 311.03C155.863 311.726 155.529 314.677 155.278 315.278C155.026 315.878 151.936 312.053 150.666 310.346C149.395 308.636 150.645 301.707 150.645 301.707L154.201 302.17Z" fill="#FFB27D"/>
<path d="M131.15 257.072C131.178 257.228 141.174 258.909 147.425 255.738C147.425 255.738 152.648 239.379 145.185 240.162C137.721 240.944 133.301 243.294 133.113 246.868C132.925 250.44 131.15 257.072 131.15 257.072Z" fill="#81C479"/>
<path d="M147.976 238.243C148.771 240.737 151.426 247.842 155.105 245.108C154.98 244.577 155.753 243.035 156.664 241.468C157.829 239.468 159.216 237.421 159.216 237.421L153.221 232.17L152.863 231.858C151.296 234.594 149.754 235.912 148.404 236.918C147.993 237.225 147.82 237.754 147.976 238.243Z" fill="#FFB27D"/>
<path d="M159.215 237.423C159.215 237.423 157.83 239.466 156.665 241.468C152.939 239.172 152.935 234.559 153.221 232.17L159.215 237.423Z" fill="#ED985F"/>
<path d="M159.381 240.055C159.381 240.055 150.334 235.023 153.556 229.436C156.778 223.852 157.78 219.442 163.693 222.418C169.605 225.396 169.488 228.17 168.866 230.296C168.245 232.419 161.818 241.221 159.381 240.055Z" fill="#FFB27D"/>
<path d="M170.395 227.038C169.98 224.558 168.72 224.32 167.842 224.486C164.501 218.962 159.042 221.119 159.042 221.119C156.126 224.777 151.911 225.401 151.911 225.401C151.911 225.401 152.961 227.352 157.287 228.563C158.608 228.931 160.108 228.707 161.554 228.221C158.553 229.895 155.415 230.535 155.415 230.535C161.115 231.057 166.539 225.846 167.101 225.289C167.364 226.097 167.825 227.788 167.549 229.022C167.174 230.703 165.683 233.744 166.593 234.138C166.593 234.138 171.016 230.757 170.395 227.038Z" fill="#37354C"/>
<path d="M182.262 286.783C182.262 286.783 179.737 288.676 181.64 289.915C183.543 291.151 186.94 291.486 186.954 290.674C187.001 287.949 185.641 286.01 182.262 286.783Z" fill="#FFB27D"/>
<g filter="url(#filter0_d_269_548)">
<path d="M653.494 371.241H4.69591C4.31302 371.241 4 370.926 4 370.544V370.398C4 370.016 4.31302 369.701 4.69591 369.701H653.494C653.876 369.701 654.19 370.016 654.19 370.398V370.544C654.19 370.926 653.876 371.241 653.494 371.241Z" fill="#2E3552"/>
</g>
<path d="M221.608 182.86C221.424 182.101 220.909 181.528 220.355 181.528C219.798 181.53 219.57 182.087 219.759 182.862C219.945 183.628 220.451 184.194 221.012 184.192C221.573 184.192 221.794 183.631 221.608 182.86ZM218.806 182.864C218.511 181.651 219.042 180.701 220.166 180.699C221.282 180.696 222.265 181.633 222.561 182.857C222.854 184.071 222.33 185.021 221.201 185.023C220.071 185.025 219.102 184.089 218.806 182.864Z" fill="#81C479"/>
<path d="M202.568 151.447L201.874 151.626L201.499 150.874L202.626 150.513H203.262L204.28 154.723L203.362 154.726L202.568 151.447Z" fill="#99EA73"/>
<path d="M208.666 152.625C208.482 151.866 207.969 151.293 207.413 151.293C206.858 151.296 206.63 151.852 206.819 152.628C207.003 153.391 207.508 153.96 208.072 153.957C208.633 153.957 208.852 153.396 208.666 152.625ZM205.864 152.63C205.57 151.417 206.101 150.467 207.224 150.464C208.342 150.462 209.325 151.398 209.621 152.623C209.914 153.836 209.39 154.786 208.26 154.789C207.131 154.791 206.16 153.855 205.864 152.63Z" fill="#99EA73"/>
<path d="M279.865 151.305L279.171 151.487L278.796 150.734L279.924 150.374L280.557 150.371L281.577 154.584H280.66L279.865 151.305Z" fill="#99EA73"/>
<path d="M285.963 152.483C285.779 151.726 285.264 151.154 284.71 151.154C284.153 151.156 283.927 151.71 284.114 152.488C284.3 153.252 284.806 153.818 285.367 153.818C285.928 153.818 286.149 153.254 285.963 152.483ZM283.161 152.488C282.868 151.277 283.399 150.325 284.521 150.325C285.639 150.322 286.62 151.258 286.916 152.483C287.211 153.694 286.685 154.647 285.555 154.649C284.426 154.649 283.457 153.713 283.161 152.488Z" fill="#99EA73"/>
<path d="M291.578 152.474C291.394 151.717 290.882 151.144 290.325 151.144C289.771 151.144 289.543 151.701 289.731 152.479C289.915 153.242 290.421 153.808 290.984 153.808C291.546 153.808 291.765 153.245 291.578 152.474ZM288.776 152.479C288.483 151.268 289.014 150.315 290.137 150.315C291.255 150.313 292.237 151.249 292.533 152.474C292.827 153.685 292.303 154.637 291.173 154.637C290.043 154.64 289.072 153.703 288.776 152.479Z" fill="#99EA73"/>
<path d="M320.304 152.483C320.12 151.726 319.606 151.154 319.051 151.154C318.495 151.156 318.266 151.71 318.455 152.488C318.641 153.252 319.147 153.818 319.708 153.818C320.269 153.818 320.491 153.254 320.304 152.483ZM317.5 152.488C317.207 151.277 317.738 150.325 318.863 150.325C319.978 150.322 320.961 151.258 321.257 152.483C321.55 153.694 321.026 154.647 319.897 154.649C318.767 154.649 317.798 153.713 317.5 152.488Z" fill="#99EA73"/>
<path d="M325.92 152.474C325.736 151.717 325.223 151.144 324.667 151.144C324.112 151.144 323.884 151.701 324.073 152.479C324.257 153.242 324.762 153.808 325.323 153.808C325.887 153.808 326.106 153.245 325.92 152.474ZM323.118 152.479C322.824 151.268 323.355 150.315 324.478 150.315C325.596 150.313 326.576 151.249 326.875 152.474C327.168 153.685 326.642 154.637 325.512 154.637C324.385 154.64 323.414 153.703 323.118 152.479Z" fill="#99EA73"/>
<path d="M331.537 152.465C331.353 151.708 330.838 151.135 330.284 151.135C329.727 151.135 329.499 151.692 329.687 152.469C329.874 153.233 330.379 153.799 330.94 153.799C331.502 153.797 331.723 153.235 331.537 152.465ZM328.733 152.469C328.439 151.258 328.97 150.306 330.095 150.304C331.211 150.304 332.193 151.24 332.489 152.465C332.783 153.675 332.259 154.628 331.129 154.628C330 154.63 329.031 153.694 328.733 152.469Z" fill="#99EA73"/>
<path d="M370.583 152.369C370.399 151.612 369.884 151.04 369.33 151.04C368.773 151.04 368.545 151.596 368.733 152.374C368.92 153.138 369.425 153.703 369.986 153.703C370.548 153.701 370.769 153.14 370.583 152.369ZM367.781 152.374C367.487 151.163 368.016 150.211 369.141 150.208C370.256 150.208 371.239 151.144 371.535 152.369C371.829 153.58 371.304 154.532 370.175 154.532C369.045 154.535 368.077 153.599 367.781 152.374Z" fill="#99EA73"/>
<path d="M375.958 152.36C375.774 151.603 375.259 151.03 374.705 151.03C374.148 151.032 373.92 151.587 374.109 152.364C374.295 153.128 374.801 153.694 375.362 153.694C375.923 153.694 376.144 153.131 375.958 152.36ZM373.154 152.364C372.86 151.154 373.391 150.201 374.516 150.201C375.632 150.199 376.615 151.135 376.911 152.36C377.204 153.571 376.68 154.523 375.55 154.525C374.421 154.525 373.452 153.589 373.154 152.364Z" fill="#99EA73"/>
<path d="M381.804 152.351C381.62 151.591 381.105 151.021 380.551 151.021C379.994 151.021 379.766 151.578 379.955 152.353C380.141 153.119 380.646 153.685 381.208 153.685C381.769 153.683 381.99 153.121 381.804 152.351ZM379.002 152.355C378.706 151.144 379.237 150.192 380.362 150.19C381.478 150.19 382.461 151.126 382.757 152.348C383.05 153.561 382.526 154.514 381.396 154.514C380.267 154.516 379.298 153.58 379.002 152.355Z" fill="#99EA73"/>
<path d="M391.351 152.334C391.167 151.577 390.654 151.005 390.097 151.005C389.543 151.005 389.315 151.561 389.504 152.339C389.688 153.103 390.195 153.669 390.757 153.669C391.318 153.666 391.537 153.105 391.351 152.334ZM388.549 152.339C388.255 151.128 388.786 150.176 389.909 150.173C391.027 150.173 392.01 151.109 392.305 152.334C392.599 153.545 392.075 154.498 390.945 154.498C389.816 154.5 388.844 153.564 388.549 152.339Z" fill="#99EA73"/>
<path d="M394.597 151.14L393.903 151.321L393.528 150.569L394.655 150.208H395.289L396.309 154.418H395.391L394.597 151.14Z" fill="#99EA73"/>
<path d="M400.695 152.32C400.511 151.561 399.996 150.988 399.441 150.988C398.885 150.991 398.657 151.545 398.845 152.323C399.032 153.086 399.537 153.652 400.098 153.652C400.66 153.652 400.881 153.089 400.695 152.32ZM397.893 152.325C397.599 151.112 398.128 150.159 399.253 150.159C400.368 150.157 401.351 151.093 401.647 152.318C401.941 153.529 401.417 154.481 400.287 154.483C399.157 154.483 398.188 153.547 397.893 152.325Z" fill="#99EA73"/>
<path d="M410.052 152.295C409.868 151.536 409.356 150.963 408.799 150.963C408.245 150.965 408.017 151.522 408.205 152.297C408.389 153.061 408.895 153.629 409.459 153.627C410.02 153.627 410.239 153.065 410.052 152.295ZM407.251 152.299C406.957 151.086 407.488 150.136 408.611 150.134C409.729 150.131 410.711 151.068 411.007 152.292C411.301 153.506 410.777 154.456 409.647 154.458C408.518 154.46 407.546 153.524 407.251 152.299Z" fill="#99EA73"/>
<path d="M248.084 161.662C247.9 160.903 247.388 160.331 246.831 160.333C246.277 160.333 246.049 160.889 246.237 161.665C246.421 162.431 246.927 162.997 247.488 162.997C248.052 162.994 248.27 162.433 248.084 161.662ZM245.282 161.667C244.989 160.454 245.52 159.504 246.642 159.502C247.76 159.499 248.741 160.438 249.039 161.66C249.333 162.873 248.806 163.823 247.679 163.826C246.549 163.828 245.578 162.892 245.282 161.667Z" fill="#99EA73"/>
<path d="M253.701 161.653C253.517 160.894 253.003 160.321 252.448 160.324C251.892 160.324 251.664 160.88 251.852 161.656C252.039 162.422 252.544 162.988 253.105 162.988C253.666 162.985 253.888 162.424 253.701 161.653ZM250.897 161.658C250.604 160.445 251.135 159.495 252.26 159.492C253.375 159.49 254.358 160.428 254.654 161.651C254.947 162.864 254.423 163.814 253.294 163.816C252.164 163.819 251.195 162.883 250.897 161.658Z" fill="#99EA73"/>
<path d="M393.556 161.434C393.372 160.678 392.857 160.105 392.303 160.105C391.746 160.107 391.518 160.661 391.706 161.439C391.893 162.203 392.398 162.769 392.959 162.769C393.521 162.769 393.742 162.205 393.556 161.434ZM390.752 161.441C390.458 160.228 390.989 159.276 392.114 159.276C393.23 159.273 394.212 160.209 394.508 161.434C394.802 162.645 394.278 163.598 393.148 163.6C392.019 163.6 391.05 162.664 390.752 161.441Z" fill="#99EA73"/>
<path d="M396.8 160.242L396.106 160.421L395.731 159.669L396.859 159.308H397.492L398.512 163.518L397.595 163.521L396.8 160.242Z" fill="#99EA73"/>
<path d="M402.898 161.42C402.714 160.661 402.201 160.088 401.645 160.091C401.091 160.091 400.862 160.647 401.051 161.423C401.235 162.186 401.74 162.755 402.302 162.752C402.865 162.752 403.084 162.191 402.898 161.42ZM400.096 161.425C399.803 160.212 400.334 159.262 401.456 159.259C402.574 159.257 403.555 160.193 403.853 161.418C404.146 162.631 403.62 163.581 402.49 163.584C401.363 163.586 400.392 162.648 400.096 161.425Z" fill="#99EA73"/>
<path d="M423.491 161.376C423.307 160.617 422.792 160.044 422.238 160.044C421.681 160.047 421.453 160.603 421.641 161.378C421.828 162.142 422.333 162.71 422.894 162.708C423.456 162.708 423.677 162.147 423.491 161.376ZM420.689 161.381C420.393 160.168 420.924 159.218 422.049 159.215C423.165 159.213 424.147 160.149 424.443 161.374C424.737 162.587 424.213 163.537 423.083 163.539C421.954 163.542 420.985 162.606 420.689 161.381Z" fill="#99EA73"/>
<path d="M426.735 160.181L426.041 160.361L425.666 159.609L426.793 159.25L427.427 159.248L428.447 163.458L427.529 163.46L426.735 160.181Z" fill="#99EA73"/>
<path d="M243.359 210.796C243.175 210.039 242.662 209.466 242.106 209.466C241.551 209.466 241.323 210.023 241.512 210.801C241.696 211.564 242.203 212.13 242.765 212.13C243.326 212.128 243.545 211.567 243.359 210.796ZM240.557 210.801C240.263 209.59 240.794 208.637 241.917 208.635C243.035 208.635 244.018 209.571 244.313 210.796C244.607 212.007 244.083 212.959 242.953 212.959C241.824 212.961 240.853 212.025 240.557 210.801Z" fill="#99EA73"/>
<path d="M248.976 210.787C248.792 210.027 248.28 209.457 247.723 209.457C247.167 209.457 246.941 210.013 247.127 210.791C247.313 211.555 247.819 212.121 248.38 212.121C248.941 212.118 249.163 211.557 248.976 210.787ZM246.174 210.791C245.881 209.58 246.412 208.628 247.535 208.626C248.652 208.626 249.633 209.562 249.931 210.787C250.225 211.997 249.698 212.95 248.569 212.95C247.439 212.952 246.47 212.016 246.174 210.791Z" fill="#99EA73"/>
<path d="M252.22 209.592L251.526 209.774L251.151 209.022L252.279 208.661H252.912L253.932 212.871H253.015L252.22 209.592Z" fill="#99EA73"/>
<path d="M263.935 210.761C263.751 210.004 263.239 209.431 262.682 209.431C262.126 209.434 261.9 209.988 262.086 210.766C262.272 211.529 262.778 212.095 263.339 212.095C263.9 212.095 264.121 211.532 263.935 210.761ZM261.133 210.766C260.84 209.555 261.371 208.602 262.494 208.602C263.611 208.6 264.592 209.536 264.89 210.761C265.184 211.972 264.657 212.924 263.528 212.926C262.398 212.926 261.429 211.99 261.133 210.766Z" fill="#99EA73"/>
<path d="M269.55 210.752C269.369 209.995 268.854 209.422 268.3 209.422C267.743 209.422 267.515 209.979 267.704 210.756C267.888 211.52 268.395 212.086 268.957 212.086C269.518 212.086 269.737 211.522 269.55 210.752ZM266.749 210.756C266.455 209.545 266.986 208.593 268.109 208.593C269.227 208.591 270.21 209.527 270.505 210.752C270.799 211.963 270.275 212.915 269.145 212.915C268.016 212.917 267.044 211.981 266.749 210.756Z" fill="#99EA73"/>
<path d="M275.168 210.742C274.984 209.986 274.472 209.413 273.915 209.413C273.358 209.413 273.133 209.969 273.319 210.747C273.505 211.511 274.011 212.077 274.572 212.077C275.133 212.077 275.354 211.513 275.168 210.742ZM272.366 210.747C272.073 209.536 272.604 208.584 273.726 208.584C274.844 208.581 275.825 209.517 276.123 210.742C276.416 211.953 275.89 212.906 274.76 212.906C273.631 212.908 272.662 211.972 272.366 210.747Z" fill="#99EA73"/>
<path d="M345.285 210.796C345.101 210.039 344.586 209.466 344.032 209.466C343.475 209.466 343.247 210.023 343.436 210.801C343.622 211.564 344.127 212.13 344.689 212.13C345.25 212.128 345.471 211.567 345.285 210.796ZM342.483 210.801C342.187 209.59 342.718 208.637 343.843 208.635C344.959 208.635 345.942 209.571 346.238 210.796C346.531 212.007 346.007 212.959 344.877 212.959C343.748 212.961 342.779 212.025 342.483 210.801Z" fill="#99EA73"/>
<path d="M350.9 210.787C350.716 210.027 350.204 209.457 349.647 209.457C349.093 209.457 348.865 210.013 349.053 210.791C349.237 211.555 349.743 212.121 350.306 212.121C350.868 212.118 351.087 211.557 350.9 210.787ZM348.099 210.791C347.805 209.58 348.336 208.628 349.459 208.626C350.577 208.626 351.559 209.562 351.855 210.787C352.149 211.997 351.625 212.95 350.495 212.95C349.366 212.952 348.394 212.016 348.099 210.791Z" fill="#99EA73"/>
<path d="M354.147 209.592L353.453 209.774L353.078 209.022L354.203 208.661H354.839L355.859 212.871H354.939L354.147 209.592Z" fill="#99EA73"/>
<path d="M382.938 210.796C382.754 210.039 382.242 209.466 381.685 209.466C381.131 209.466 380.903 210.023 381.091 210.801C381.275 211.564 381.781 212.13 382.344 212.13C382.906 212.128 383.124 211.567 382.938 210.796ZM380.136 210.801C379.843 209.59 380.374 208.637 381.496 208.635C382.614 208.635 383.597 209.571 383.893 210.796C384.186 212.007 383.662 212.959 382.533 212.959C381.403 212.961 380.432 212.025 380.136 210.801Z" fill="#99EA73"/>
<path d="M388.556 210.787C388.372 210.027 387.857 209.457 387.303 209.457C386.746 209.457 386.518 210.013 386.706 210.791C386.893 211.555 387.398 212.121 387.959 212.121C388.521 212.118 388.742 211.557 388.556 210.787ZM385.754 210.791C385.458 209.58 385.989 208.628 387.114 208.626C388.23 208.626 389.212 209.562 389.508 210.787C389.802 211.997 389.278 212.95 388.148 212.95C387.018 212.952 386.05 212.016 385.754 210.791Z" fill="#99EA73"/>
<path d="M391.8 209.592L391.106 209.774L390.731 209.022L391.858 208.661H392.492L393.512 212.871H392.594L391.8 209.592Z" fill="#99EA73"/>
<path d="M365.859 210.761C365.675 210.004 365.163 209.431 364.606 209.431C364.052 209.434 363.824 209.988 364.012 210.766C364.196 211.529 364.702 212.095 365.265 212.095C365.827 212.095 366.046 211.532 365.859 210.761ZM363.057 210.766C362.764 209.555 363.295 208.602 364.418 208.602C365.536 208.6 366.518 209.536 366.814 210.761C367.108 211.972 366.584 212.924 365.454 212.926C364.324 212.926 363.353 211.99 363.057 210.766Z" fill="#99EA73"/>
<path d="M371.477 210.752C371.293 209.995 370.778 209.422 370.224 209.422C369.667 209.422 369.439 209.979 369.628 210.756C369.814 211.52 370.32 212.086 370.881 212.086C371.442 212.086 371.663 211.522 371.477 210.752ZM368.675 210.756C368.379 209.545 368.91 208.593 370.035 208.593C371.151 208.591 372.134 209.527 372.43 210.752C372.725 211.963 372.199 212.915 371.069 212.915C369.94 212.917 368.971 211.981 368.675 210.756Z" fill="#99EA73"/>
<path d="M377.092 210.742C376.908 209.986 376.396 209.413 375.839 209.413C375.285 209.413 375.057 209.969 375.245 210.747C375.429 211.511 375.935 212.077 376.498 212.077C377.059 212.077 377.278 211.513 377.092 210.742ZM374.29 210.747C373.997 209.536 374.528 208.584 375.65 208.584C376.768 208.581 377.751 209.517 378.047 210.742C378.34 211.953 377.816 212.906 376.687 212.906C375.557 212.908 374.586 211.972 374.29 210.747Z" fill="#99EA73"/>
<path d="M294.375 210.649C294.191 209.89 293.679 209.317 293.122 209.317C292.568 209.32 292.34 209.876 292.528 210.652C292.712 211.415 293.218 211.983 293.781 211.981C294.342 211.981 294.561 211.418 294.375 210.649ZM291.573 210.654C291.28 209.441 291.811 208.491 292.933 208.488C294.051 208.486 295.034 209.422 295.33 210.647C295.623 211.86 295.099 212.81 293.97 212.812C292.84 212.815 291.869 211.876 291.573 210.654Z" fill="#99EA73"/>
<path d="M297.622 209.455L296.928 209.634L296.553 208.882L297.68 208.521H298.314L299.334 212.731L298.416 212.733L297.622 209.455Z" fill="#99EA73"/>
<path d="M303.719 210.633C303.535 209.874 303.021 209.301 302.466 209.303C301.91 209.303 301.684 209.86 301.87 210.635C302.056 211.401 302.562 211.967 303.123 211.967C303.684 211.965 303.906 211.404 303.719 210.633ZM300.918 210.638C300.624 209.424 301.153 208.474 302.278 208.472C303.396 208.47 304.376 209.406 304.672 210.631C304.968 211.844 304.441 212.794 303.312 212.796C302.182 212.798 301.213 211.862 300.918 210.638Z" fill="#99EA73"/>
<path d="M414.806 210.516C414.622 209.757 414.109 209.184 413.553 209.187C412.998 209.187 412.77 209.743 412.959 210.519C413.143 211.283 413.651 211.851 414.212 211.848C414.773 211.848 414.992 211.287 414.806 210.516ZM412.004 210.521C411.711 209.308 412.242 208.358 413.364 208.355C414.482 208.353 415.465 209.289 415.761 210.514C416.054 211.727 415.53 212.677 414.401 212.68C413.271 212.682 412.3 211.746 412.004 210.521Z" fill="#99EA73"/>
<path d="M418.052 209.322L417.358 209.501L416.983 208.749L418.111 208.39L418.744 208.388L419.764 212.598L418.847 212.6L418.052 209.322Z" fill="#99EA73"/>
<path d="M424.15 210.5C423.966 209.741 423.451 209.168 422.897 209.171C422.34 209.171 422.112 209.727 422.3 210.503C422.487 211.269 422.992 211.834 423.554 211.834C424.115 211.832 424.336 211.271 424.15 210.5ZM421.348 210.505C421.055 209.292 421.583 208.342 422.708 208.339C423.824 208.339 424.807 209.275 425.102 210.498C425.396 211.711 424.872 212.661 423.742 212.663C422.613 212.666 421.644 211.73 421.348 210.505Z" fill="#99EA73"/>
<path d="M207.333 171.119L206.639 171.298L206.264 170.546L207.391 170.185H208.025L209.045 174.395L208.127 174.398L207.333 171.119Z" fill="#99EA73"/>
<path d="M213.431 172.297C213.247 171.538 212.734 170.965 212.178 170.968C211.624 170.968 211.395 171.524 211.582 172.3C211.768 173.066 212.273 173.632 212.835 173.632C213.396 173.629 213.617 173.068 213.431 172.297ZM210.629 172.302C210.336 171.089 210.867 170.139 211.989 170.136C213.107 170.134 214.088 171.07 214.386 172.295C214.679 173.508 214.153 174.458 213.023 174.461C211.894 174.463 210.925 173.527 210.629 172.302Z" fill="#99EA73"/>
<path d="M245.24 172.244C245.056 171.485 244.542 170.912 243.987 170.914C243.431 170.914 243.202 171.471 243.391 172.246C243.577 173.012 244.083 173.578 244.644 173.576C245.205 173.576 245.427 173.014 245.24 172.244ZM242.436 172.248C242.143 171.035 242.674 170.085 243.799 170.083C244.914 170.08 245.897 171.016 246.193 172.241C246.486 173.455 245.962 174.405 244.833 174.407C243.703 174.409 242.734 173.473 242.436 172.248Z" fill="#99EA73"/>
<path d="M250.856 172.234C250.672 171.475 250.159 170.902 249.603 170.905C249.048 170.905 248.82 171.461 249.009 172.237C249.193 173.003 249.698 173.569 250.259 173.569C250.823 173.566 251.042 173.005 250.856 172.234ZM248.054 172.239C247.76 171.026 248.291 170.076 249.414 170.074C250.532 170.071 251.512 171.007 251.811 172.232C252.104 173.445 251.578 174.395 250.448 174.398C249.321 174.4 248.35 173.464 248.054 172.239Z" fill="#99EA73"/>
<path d="M256.473 172.225C256.289 171.466 255.774 170.893 255.22 170.895C254.664 170.895 254.435 171.452 254.624 172.227C254.81 172.991 255.316 173.559 255.877 173.557C256.438 173.557 256.659 172.996 256.473 172.225ZM253.669 172.23C253.376 171.017 253.907 170.066 255.032 170.064C256.147 170.062 257.13 170.998 257.426 172.223C257.719 173.436 257.195 174.386 256.066 174.388C254.936 174.391 253.967 173.455 253.669 172.23Z" fill="#99EA73"/>
<path d="M259.717 171.03L259.023 171.21L258.648 170.458L259.775 170.099L260.409 170.097L261.429 174.307L260.511 174.309L259.717 171.03Z" fill="#99EA73"/>
<path d="M263.474 171.024L262.78 171.205L262.405 170.453L263.533 170.092L264.166 170.09L265.186 174.3L264.269 174.302L263.474 171.024Z" fill="#99EA73"/>
<path d="M269.571 172.202C269.387 171.445 268.875 170.872 268.318 170.872C267.764 170.872 267.536 171.429 267.722 172.206C267.909 172.97 268.414 173.536 268.975 173.536C269.536 173.534 269.758 172.973 269.571 172.202ZM266.77 172.206C266.476 170.996 267.007 170.043 268.13 170.041C269.248 170.041 270.228 170.977 270.526 172.202C270.82 173.413 270.293 174.365 269.164 174.365C268.037 174.367 267.065 173.431 266.77 172.206Z" fill="#99EA73"/>
<path d="M414.818 171.967C414.634 171.207 414.121 170.635 413.565 170.637C413.01 170.637 412.782 171.194 412.968 171.969C413.155 172.735 413.66 173.301 414.221 173.299C414.783 173.299 415.004 172.737 414.818 171.967ZM412.016 171.971C411.722 170.758 412.253 169.808 413.376 169.806C414.494 169.803 415.474 170.739 415.773 171.964C416.066 173.177 415.54 174.128 414.41 174.13C413.28 174.132 412.312 173.196 412.016 171.971Z" fill="#81C479"/>
<path d="M420.432 171.957C420.251 171.198 419.736 170.625 419.182 170.628C418.625 170.628 418.397 171.184 418.586 171.96C418.77 172.723 419.277 173.292 419.839 173.289C420.4 173.289 420.619 172.728 420.432 171.957ZM417.631 171.962C417.337 170.749 417.868 169.799 418.991 169.796C420.109 169.794 421.092 170.73 421.387 171.955C421.681 173.168 421.157 174.118 420.027 174.121C418.898 174.123 417.929 173.187 417.631 171.962Z" fill="#81C479"/>
<path d="M426.05 171.948C425.866 171.189 425.354 170.616 424.797 170.616C424.243 170.618 424.015 171.175 424.201 171.95C424.387 172.714 424.893 173.282 425.454 173.28C426.015 173.28 426.237 172.719 426.05 171.948ZM423.248 171.953C422.955 170.739 423.486 169.789 424.609 169.787C425.727 169.785 426.707 170.721 427.005 171.946C427.299 173.159 426.772 174.109 425.643 174.111C424.515 174.114 423.544 173.177 423.248 171.953Z" fill="#99EA73"/>
<path d="M429.295 170.753L428.603 170.933L428.226 170.181L429.353 169.82H429.989L431.007 174.03L430.089 174.032L429.295 170.753Z" fill="#99EA73"/>
<path d="M209.893 181.691L209.199 181.87L208.824 181.118L209.951 180.757H210.585L211.605 184.967L210.687 184.969L209.893 181.691Z" fill="#99EA73"/>
<path d="M215.99 182.869C215.806 182.11 215.294 181.537 214.737 181.539C214.183 181.539 213.955 182.096 214.143 182.871C214.327 183.637 214.833 184.203 215.394 184.201C215.958 184.201 216.177 183.64 215.99 182.869ZM213.189 182.874C212.895 181.661 213.426 180.71 214.549 180.708C215.667 180.706 216.65 181.642 216.945 182.867C217.239 184.08 216.712 185.03 215.585 185.032C214.456 185.035 213.484 184.099 213.189 182.874Z" fill="#99EA73"/>
<path d="M242.182 182.825C241.998 182.066 241.486 181.493 240.929 181.495C240.375 181.495 240.147 182.052 240.335 182.827C240.519 183.593 241.025 184.159 241.588 184.159C242.15 184.157 242.369 183.596 242.182 182.825ZM239.38 182.829C239.087 181.616 239.618 180.666 240.741 180.664C241.859 180.662 242.841 181.598 243.137 182.823C243.431 184.036 242.907 184.986 241.777 184.988C240.647 184.99 239.676 184.054 239.38 182.829Z" fill="#99EA73"/>
<path d="M247.8 182.815C247.616 182.056 247.101 181.483 246.547 181.486C245.99 181.486 245.764 182.042 245.95 182.818C246.137 183.584 246.642 184.15 247.203 184.15C247.765 184.147 247.986 183.586 247.8 182.815ZM244.998 182.82C244.704 181.607 245.233 180.657 246.358 180.654C247.476 180.652 248.456 181.588 248.752 182.813C249.048 184.026 248.522 184.976 247.392 184.979C246.263 184.981 245.294 184.045 244.998 182.82Z" fill="#99EA73"/>
<path d="M226.499 203.282C226.315 202.522 225.802 201.95 225.246 201.95C224.691 201.952 224.463 202.506 224.649 203.284C224.836 204.048 225.341 204.616 225.902 204.613C226.464 204.613 226.685 204.05 226.499 203.282ZM223.697 203.286C223.403 202.073 223.934 201.123 225.057 201.121C226.175 201.118 227.155 202.054 227.454 203.279C227.747 204.49 227.221 205.442 226.091 205.445C224.962 205.445 223.993 204.509 223.697 203.286Z" fill="#81C479"/>
<path d="M229.743 202.087L229.051 202.266L228.674 201.514L229.801 201.153H230.437L231.455 205.363L230.537 205.366L229.743 202.087Z" fill="#81C479"/>
<path d="M212.224 191.538L211.53 191.72L211.155 190.968L212.283 190.607H212.916L213.936 194.817H213.018L212.224 191.538Z" fill="#99EA73"/>
<path d="M218.322 192.719C218.138 191.96 217.626 191.387 217.069 191.387C216.515 191.389 216.286 191.946 216.475 192.721C216.659 193.485 217.164 194.053 217.726 194.051C218.289 194.051 218.508 193.487 218.322 192.719ZM215.52 192.724C215.227 191.511 215.758 190.56 216.88 190.558C217.998 190.556 218.979 191.492 219.277 192.717C219.57 193.93 219.044 194.88 217.917 194.882C216.787 194.885 215.816 193.946 215.52 192.724Z" fill="#99EA73"/>
<path d="M223.939 192.71C223.755 191.951 223.24 191.378 222.686 191.378C222.129 191.38 221.901 191.934 222.09 192.712C222.276 193.476 222.781 194.044 223.343 194.042C223.904 194.042 224.125 193.478 223.939 192.71ZM221.135 192.714C220.841 191.501 221.372 190.551 222.497 190.549C223.613 190.546 224.596 191.483 224.892 192.707C225.185 193.921 224.661 194.871 223.531 194.873C222.402 194.873 221.433 193.937 221.135 192.714Z" fill="#99EA73"/>
<path d="M227.183 191.515L226.489 191.694L226.114 190.942L227.242 190.581H227.875L228.895 194.791L227.977 194.794L227.183 191.515Z" fill="#99EA73"/>
<path d="M233.281 192.693C233.097 191.934 232.585 191.361 232.028 191.364C231.474 191.364 231.245 191.92 231.434 192.696C231.618 193.46 232.123 194.028 232.687 194.025C233.248 194.025 233.467 193.464 233.281 192.693ZM230.479 192.698C230.186 191.485 230.717 190.535 231.839 190.533C232.957 190.53 233.94 191.466 234.236 192.691C234.529 193.904 234.005 194.854 232.876 194.857C231.746 194.859 230.775 193.923 230.479 192.698Z" fill="#99EA73"/>
<path d="M238.898 192.684C238.714 191.925 238.2 191.352 237.645 191.352C237.089 191.354 236.861 191.911 237.049 192.686C237.236 193.45 237.741 194.018 238.302 194.016C238.864 194.016 239.085 193.455 238.898 192.684ZM236.094 192.689C235.801 191.476 236.332 190.526 237.457 190.523C238.572 190.521 239.555 191.457 239.851 192.682C240.145 193.895 239.62 194.845 238.491 194.847C237.361 194.85 236.392 193.914 236.094 192.689Z" fill="#99EA73"/>
<path d="M244.514 192.675C244.33 191.916 243.817 191.343 243.261 191.343C242.707 191.345 242.478 191.902 242.667 192.677C242.851 193.441 243.356 194.009 243.92 194.007C244.481 194.007 244.7 193.446 244.514 192.675ZM241.712 192.679C241.419 191.466 241.95 190.516 243.072 190.514C244.19 190.511 245.173 191.448 245.469 192.672C245.762 193.886 245.238 194.836 244.109 194.838C242.979 194.84 242.008 193.904 241.712 192.679Z" fill="#99EA73"/>
<path d="M250.131 192.665C249.947 191.906 249.432 191.333 248.878 191.333C248.322 191.336 248.096 191.892 248.282 192.668C248.468 193.432 248.974 194 249.535 193.997C250.096 193.997 250.317 193.434 250.131 192.665ZM247.329 192.67C247.036 191.457 247.565 190.507 248.69 190.505C249.805 190.502 250.788 191.438 251.084 192.663C251.38 193.876 250.853 194.826 249.724 194.829C248.594 194.831 247.625 193.893 247.329 192.67Z" fill="#99EA73"/>
<path d="M255.747 192.656C255.563 191.897 255.05 191.324 254.493 191.324C253.939 191.327 253.711 191.881 253.9 192.659C254.084 193.422 254.589 193.99 255.153 193.988C255.714 193.988 255.933 193.425 255.747 192.656ZM252.945 192.661C252.651 191.448 253.182 190.498 254.305 190.495C255.423 190.493 256.406 191.429 256.701 192.654C256.995 193.865 256.471 194.817 255.341 194.819C254.212 194.822 253.24 193.883 252.945 192.661Z" fill="#99EA73"/>
<path d="M261.364 192.647C261.18 191.888 260.665 191.315 260.111 191.315C259.554 191.317 259.328 191.871 259.515 192.649C259.701 193.413 260.206 193.981 260.768 193.979C261.329 193.979 261.55 193.415 261.364 192.647ZM258.562 192.651C258.269 191.438 258.8 190.488 259.922 190.486C261.04 190.484 262.021 191.42 262.316 192.644C262.612 193.855 262.086 194.808 260.956 194.81C259.827 194.81 258.858 193.874 258.562 192.651Z" fill="#99EA73"/>
<path d="M264.608 191.452L263.914 191.632L263.539 190.879L264.667 190.518H265.3L266.32 194.729L265.403 194.731L264.608 191.452Z" fill="#99EA73"/>
<path d="M268.365 191.445L267.671 191.625L267.296 190.873L268.423 190.514L269.057 190.512L270.077 194.722L269.159 194.724L268.365 191.445Z" fill="#99EA73"/>
<path d="M274.463 192.624C274.279 191.864 273.766 191.292 273.21 191.294C272.655 191.294 272.427 191.851 272.616 192.626C272.8 193.392 273.305 193.958 273.869 193.958C274.43 193.956 274.649 193.394 274.463 192.624ZM271.661 192.628C271.367 191.415 271.898 190.465 273.021 190.463C274.139 190.46 275.122 191.399 275.417 192.621C275.711 193.834 275.187 194.785 274.057 194.787C272.928 194.789 271.957 193.853 271.661 192.628Z" fill="#99EA73"/>
<path d="M214.784 202.11L214.092 202.292L213.715 201.54L214.842 201.179H215.478L216.496 205.389H215.578L214.784 202.11Z" fill="#99EA73"/>
<path d="M220.882 203.291C220.698 202.532 220.185 201.959 219.631 201.959C219.074 201.961 218.846 202.518 219.035 203.293C219.219 204.057 219.726 204.625 220.288 204.623C220.849 204.623 221.068 204.059 220.882 203.291ZM218.08 203.295C217.786 202.082 218.317 201.132 219.44 201.13C220.558 201.128 221.541 202.064 221.836 203.288C222.13 204.502 221.606 205.452 220.476 205.454C219.347 205.456 218.378 204.518 218.08 203.295Z" fill="#99EA73"/>
<path d="M235.841 203.265C235.659 202.506 235.144 201.933 234.59 201.933C234.033 201.936 233.805 202.492 233.994 203.267C234.178 204.031 234.685 204.599 235.247 204.597C235.808 204.597 236.029 204.036 235.841 203.265ZM233.039 203.27C232.745 202.057 233.276 201.107 234.399 201.104C235.517 201.102 236.5 202.038 236.795 203.263C237.089 204.476 236.565 205.426 235.435 205.428C234.306 205.431 233.337 204.495 233.039 203.27Z" fill="#99EA73"/>
<path d="M241.458 203.256C241.274 202.497 240.762 201.924 240.205 201.924C239.651 201.926 239.423 202.483 239.609 203.258C239.795 204.022 240.301 204.59 240.862 204.588C241.423 204.588 241.644 204.027 241.458 203.256ZM238.656 203.261C238.363 202.047 238.894 201.097 240.016 201.095C241.134 201.093 242.115 202.029 242.413 203.254C242.706 204.467 242.18 205.417 241.051 205.419C239.921 205.422 238.952 204.483 238.656 203.261Z" fill="#99EA73"/>
<path d="M231.464 226.721C231.283 225.962 230.768 225.389 230.214 225.392C229.657 225.392 229.429 225.948 229.617 226.723C229.801 227.49 230.309 228.055 230.87 228.055C231.432 228.053 231.653 227.492 231.464 226.721ZM228.662 226.726C228.369 225.513 228.9 224.563 230.023 224.56C231.141 224.558 232.123 225.494 232.419 226.719C232.713 227.932 232.189 228.882 231.059 228.884C229.929 228.887 228.961 227.951 228.662 226.726Z" fill="#99EA73"/>
<path d="M234.711 225.527L234.017 225.706L233.642 224.954L234.769 224.595L235.403 224.593L236.423 228.803L235.505 228.805L234.711 225.527Z" fill="#99EA73"/>
<path d="M219.752 225.552L219.058 225.731L218.683 224.979L219.81 224.618H220.443L221.463 228.829L220.546 228.831L219.752 225.552Z" fill="#99EA73"/>
<path d="M225.849 226.73C225.665 225.971 225.152 225.398 224.596 225.401C224.039 225.401 223.813 225.957 224 226.733C224.186 227.499 224.691 228.065 225.253 228.065C225.814 228.062 226.035 227.501 225.849 226.73ZM223.047 226.735C222.754 225.522 223.285 224.572 224.407 224.569C225.525 224.567 226.506 225.506 226.804 226.728C227.097 227.941 226.571 228.891 225.441 228.894C224.312 228.896 223.343 227.96 223.047 226.735Z" fill="#99EA73"/>
<path d="M240.808 226.705C240.624 225.946 240.112 225.373 239.555 225.375C238.999 225.375 238.773 225.932 238.959 226.707C239.145 227.473 239.651 228.039 240.212 228.039C240.773 228.037 240.995 227.476 240.808 226.705ZM238.006 226.709C237.713 225.496 238.244 224.546 239.367 224.544C240.484 224.544 241.465 225.48 241.763 226.702C242.057 227.916 241.53 228.866 240.401 228.868C239.271 228.87 238.302 227.934 238.006 226.709Z" fill="#81C479"/>
<path d="M246.423 226.696C246.242 225.936 245.727 225.364 245.173 225.366C244.616 225.366 244.388 225.922 244.577 226.698C244.761 227.464 245.268 228.03 245.83 228.03C246.391 228.027 246.612 227.466 246.423 226.696ZM243.622 226.7C243.328 225.487 243.859 224.537 244.982 224.535C246.1 224.535 247.083 225.471 247.378 226.693C247.672 227.906 247.148 228.856 246.018 228.859C244.889 228.861 243.92 227.925 243.622 226.7Z" fill="#81C479"/>
<path d="M224.526 234.261C224.342 233.502 223.827 232.929 223.273 232.932C222.716 232.932 222.488 233.488 222.677 234.263C222.863 235.03 223.369 235.595 223.93 235.595C224.491 235.593 224.712 235.032 224.526 234.261ZM221.724 234.266C221.429 233.053 221.96 232.103 223.084 232.1C224.2 232.098 225.183 233.034 225.479 234.259C225.772 235.472 225.248 236.422 224.119 236.424C222.989 236.427 222.02 235.491 221.724 234.266Z" fill="#99EA73"/>
<path d="M227.771 233.067L227.077 233.248L226.702 232.494L227.829 232.135L228.462 232.133L229.483 236.343L228.565 236.345L227.771 233.067Z" fill="#99EA73"/>
<path d="M233.868 234.245C233.684 233.486 233.171 232.915 232.615 232.915C232.061 232.915 231.832 233.472 232.021 234.249C232.205 235.013 232.71 235.579 233.274 235.579C233.835 235.577 234.054 235.016 233.868 234.245ZM231.066 234.249C230.773 233.039 231.304 232.086 232.426 232.084C233.544 232.084 234.527 233.02 234.823 234.245C235.116 235.456 234.592 236.408 233.463 236.408C232.333 236.41 231.362 235.474 231.066 234.249Z" fill="#99EA73"/>
<path d="M239.485 234.236C239.301 233.476 238.787 232.904 238.232 232.906C237.676 232.906 237.447 233.462 237.636 234.238C237.822 235.004 238.328 235.57 238.889 235.57C239.45 235.567 239.672 235.006 239.485 234.236ZM236.684 234.24C236.388 233.027 236.919 232.077 238.044 232.075C239.159 232.072 240.142 233.011 240.438 234.233C240.731 235.446 240.207 236.396 239.078 236.399C237.948 236.401 236.979 235.465 236.684 234.24Z" fill="#99EA73"/>
<path d="M247.073 203.247C246.892 202.487 246.377 201.915 245.823 201.915C245.266 201.917 245.038 202.473 245.226 203.249C245.41 204.013 245.918 204.581 246.479 204.578C247.041 204.578 247.262 204.015 247.073 203.247ZM244.272 203.251C243.978 202.038 244.509 201.088 245.634 201.086C246.75 201.083 247.732 202.019 248.028 203.244C248.322 204.457 247.798 205.407 246.668 205.41C245.539 205.412 244.57 204.474 244.272 203.251Z" fill="#99EA73"/>
<path d="M252.691 203.237C252.507 202.478 251.995 201.905 251.438 201.905C250.884 201.908 250.656 202.462 250.844 203.24C251.028 204.003 251.534 204.572 252.095 204.569C252.656 204.569 252.877 204.006 252.691 203.237ZM249.889 203.242C249.596 202.029 250.127 201.079 251.249 201.076C252.367 201.074 253.348 202.01 253.646 203.235C253.939 204.448 253.413 205.398 252.283 205.401C251.156 205.401 250.185 204.465 249.889 203.242Z" fill="#99EA73"/>
<path d="M238.598 253.996C238.414 253.237 237.902 252.664 237.345 252.666C236.791 252.666 236.563 253.223 236.751 253.998C236.935 254.764 237.441 255.33 238.002 255.33C238.566 255.328 238.785 254.767 238.598 253.996ZM235.796 254.001C235.503 252.787 236.034 251.837 237.157 251.835C238.275 251.833 239.255 252.769 239.553 253.994C239.847 255.207 239.32 256.157 238.193 256.159C237.063 256.162 236.092 255.225 235.796 254.001Z" fill="#81C479"/>
<path d="M241.845 252.801L241.151 252.981L240.776 252.229L241.901 251.87L242.536 251.868L243.556 256.078L242.637 256.08L241.845 252.801Z" fill="#81C479"/>
<path d="M224.323 242.255L223.632 242.434L223.254 241.682L224.382 241.321H225.017L226.035 245.532L225.118 245.534L224.323 242.255Z" fill="#99EA73"/>
<path d="M230.421 243.433C230.237 242.674 229.724 242.101 229.168 242.104C228.613 242.104 228.385 242.66 228.574 243.436C228.758 244.202 229.263 244.768 229.827 244.768C230.388 244.765 230.607 244.204 230.421 243.433ZM227.619 243.438C227.325 242.225 227.856 241.275 228.979 241.272C230.097 241.27 231.08 242.209 231.375 243.431C231.669 244.644 231.145 245.594 230.015 245.597C228.886 245.599 227.915 244.663 227.619 243.438Z" fill="#99EA73"/>
<path d="M236.039 243.424C235.855 242.665 235.342 242.092 234.786 242.095C234.229 242.095 234.003 242.651 234.189 243.426C234.376 244.193 234.881 244.758 235.442 244.758C236.004 244.756 236.225 244.195 236.039 243.424ZM233.237 243.429C232.943 242.216 233.474 241.266 234.597 241.263C235.715 241.261 236.695 242.197 236.994 243.422C237.287 244.635 236.761 245.585 235.631 245.587C234.502 245.59 233.533 244.654 233.237 243.429Z" fill="#99EA73"/>
<path d="M239.283 242.23L238.591 242.409L238.214 241.657L239.341 241.298L239.977 241.296L240.994 245.506L240.077 245.508L239.283 242.23Z" fill="#99EA73"/>
<path d="M226.885 252.827L226.191 253.006L225.816 252.254L226.941 251.893H227.577L228.597 256.103L227.677 256.106L226.885 252.827Z" fill="#99EA73"/>
<path d="M232.983 254.005C232.799 253.246 232.284 252.673 231.73 252.676C231.173 252.676 230.945 253.232 231.134 254.008C231.32 254.774 231.825 255.34 232.387 255.34C232.948 255.337 233.169 254.776 232.983 254.005ZM230.179 254.01C229.885 252.797 230.416 251.847 231.541 251.844C232.657 251.842 233.64 252.778 233.935 254.003C234.229 255.216 233.705 256.166 232.575 256.168C231.446 256.171 230.477 255.235 230.179 254.01Z" fill="#99EA73"/>
<path d="M247.942 253.98C247.758 253.221 247.243 252.648 246.689 252.65C246.132 252.65 245.904 253.207 246.093 253.982C246.279 254.748 246.784 255.314 247.346 255.314C247.907 255.312 248.128 254.75 247.942 253.98ZM245.138 253.984C244.844 252.771 245.375 251.821 246.5 251.819C247.616 251.819 248.599 252.755 248.895 253.977C249.188 255.191 248.664 256.141 247.534 256.143C246.405 256.145 245.436 255.209 245.138 253.984Z" fill="#99EA73"/>
<path d="M253.557 253.97C253.373 253.211 252.861 252.638 252.304 252.641C251.75 252.641 251.522 253.197 251.71 253.973C251.894 254.739 252.4 255.305 252.961 255.305C253.525 255.302 253.744 254.741 253.557 253.97ZM250.755 253.975C250.462 252.762 250.993 251.812 252.116 251.809C253.234 251.807 254.214 252.746 254.512 253.968C254.806 255.181 254.279 256.131 253.152 256.134C252.022 256.136 251.051 255.2 250.755 253.975Z" fill="#99EA73"/>
<path d="M240.764 261.459C240.58 260.702 240.067 260.129 239.511 260.129C238.957 260.129 238.728 260.686 238.917 261.464C239.101 262.228 239.606 262.793 240.168 262.793C240.731 262.791 240.95 262.23 240.764 261.459ZM237.962 261.464C237.669 260.253 238.2 259.301 239.322 259.298C240.44 259.298 241.421 260.234 241.719 261.459C242.012 262.67 241.486 263.622 240.356 263.622C239.229 263.625 238.258 262.689 237.962 261.464Z" fill="#81C479"/>
<path d="M244.008 260.265L243.317 260.446L242.939 259.694L244.066 259.333H244.702L245.72 263.543H244.802L244.008 260.265Z" fill="#81C479"/>
<path d="M235.146 261.468C234.965 260.712 234.45 260.139 233.896 260.139C233.339 260.139 233.111 260.695 233.3 261.473C233.484 262.237 233.991 262.803 234.553 262.803C235.114 262.8 235.335 262.239 235.146 261.468ZM232.345 261.473C232.051 260.262 232.582 259.31 233.705 259.307C234.823 259.307 235.806 260.244 236.101 261.468C236.395 262.679 235.871 263.632 234.741 263.632C233.612 263.634 232.643 262.698 232.345 261.473Z" fill="#99EA73"/>
<path d="M250.108 261.443C249.924 260.686 249.409 260.113 248.855 260.113C248.298 260.116 248.07 260.67 248.259 261.447C248.445 262.211 248.95 262.779 249.512 262.777C250.073 262.777 250.294 262.214 250.108 261.443ZM247.304 261.45C247.01 260.237 247.541 259.287 248.666 259.284C249.782 259.282 250.765 260.218 251.061 261.443C251.354 262.654 250.83 263.606 249.7 263.608C248.571 263.608 247.602 262.672 247.304 261.45Z" fill="#99EA73"/>
<path d="M255.723 261.434C255.539 260.677 255.027 260.104 254.47 260.104C253.916 260.106 253.688 260.66 253.874 261.438C254.06 262.202 254.566 262.768 255.127 262.768C255.69 262.768 255.909 262.204 255.723 261.434ZM252.921 261.438C252.628 260.227 253.159 259.275 254.281 259.275C255.399 259.273 256.38 260.209 256.678 261.434C256.971 262.644 256.445 263.597 255.316 263.597C254.188 263.599 253.217 262.663 252.921 261.438Z" fill="#99EA73"/>
<path d="M259.175 253.961C258.991 253.202 258.476 252.629 257.922 252.631C257.365 252.631 257.137 253.188 257.326 253.963C257.512 254.73 258.018 255.295 258.579 255.295C259.14 255.293 259.361 254.732 259.175 253.961ZM256.373 253.966C256.077 252.753 256.608 251.802 257.733 251.8C258.849 251.798 259.832 252.736 260.128 253.959C260.421 255.172 259.897 256.122 258.767 256.124C257.638 256.127 256.669 255.191 256.373 253.966Z" fill="#99EA73"/>
<path d="M264.79 253.952C264.606 253.193 264.094 252.62 263.537 252.622C262.983 252.622 262.755 253.179 262.943 253.954C263.127 254.72 263.633 255.286 264.196 255.286C264.758 255.284 264.977 254.722 264.79 253.952ZM261.988 253.956C261.695 252.743 262.226 251.793 263.349 251.791C264.466 251.788 265.449 252.725 265.745 253.949C266.039 255.163 265.515 256.113 264.385 256.115C263.255 256.117 262.284 255.181 261.988 253.956Z" fill="#99EA73"/>
<path d="M411.279 181.36L410.585 181.539L410.21 180.787L411.338 180.426H411.971L412.991 184.636L412.074 184.639L411.279 181.36Z" fill="#99EA73"/>
<path d="M417.377 182.538C417.193 181.779 416.681 181.206 416.124 181.209C415.57 181.209 415.342 181.765 415.53 182.541C415.714 183.304 416.22 183.873 416.781 183.87C417.345 183.87 417.564 183.309 417.377 182.538ZM414.575 182.543C414.282 181.33 414.813 180.38 415.935 180.377C417.053 180.375 418.036 181.311 418.332 182.536C418.626 183.749 418.099 184.699 416.972 184.702C415.842 184.704 414.871 183.768 414.575 182.543Z" fill="#99EA73"/>
<path d="M422.995 182.529C422.811 181.77 422.296 181.197 421.742 181.2C421.185 181.2 420.957 181.756 421.145 182.531C421.332 183.295 421.837 183.863 422.399 183.861C422.96 183.861 423.181 183.3 422.995 182.529ZM420.191 182.534C419.897 181.321 420.428 180.371 421.553 180.368C422.669 180.366 423.652 181.302 423.947 182.527C424.241 183.74 423.717 184.69 422.587 184.692C421.458 184.695 420.489 183.759 420.191 182.534Z" fill="#99EA73"/>
<path d="M428.61 182.52C428.426 181.761 427.914 181.188 427.357 181.188C426.803 181.19 426.574 181.747 426.763 182.522C426.947 183.286 427.453 183.854 428.016 183.852C428.577 183.852 428.796 183.288 428.61 182.52ZM425.808 182.524C425.515 181.311 426.046 180.361 427.168 180.359C428.286 180.357 429.269 181.293 429.565 182.517C429.858 183.731 429.334 184.681 428.205 184.683C427.075 184.685 426.104 183.747 425.808 182.524Z" fill="#99EA73"/>
<path d="M431.857 181.325L431.163 181.504L430.788 180.752L431.915 180.391H432.548L433.568 184.602L432.651 184.604L431.857 181.325Z" fill="#99EA73"/>
<path d="M408.035 192.635C407.851 191.878 407.337 191.306 406.782 191.306C406.226 191.308 405.998 191.862 406.186 192.64C406.372 193.404 406.878 193.972 407.439 193.969C408 193.969 408.222 193.406 408.035 192.635ZM405.234 192.642C404.938 191.429 405.469 190.479 406.594 190.477C407.709 190.474 408.692 191.41 408.988 192.635C409.281 193.846 408.757 194.798 407.628 194.801C406.498 194.801 405.529 193.865 405.234 192.642Z" fill="#99EA73"/>
<path d="M411.279 191.441L410.585 191.622L410.21 190.87L411.338 190.509H411.971L412.991 194.719L412.074 194.722L411.279 191.441Z" fill="#99EA73"/>
<path d="M417.377 192.621C417.193 191.862 416.681 191.289 416.124 191.289C415.57 191.292 415.342 191.848 415.53 192.624C415.714 193.387 416.22 193.956 416.781 193.953C417.345 193.953 417.564 193.39 417.377 192.621ZM414.575 192.626C414.282 191.413 414.813 190.463 415.935 190.46C417.053 190.458 418.036 191.394 418.332 192.619C418.626 193.832 418.099 194.782 416.972 194.785C415.842 194.787 414.871 193.848 414.575 192.626Z" fill="#81C479"/>
<path d="M422.995 192.612C422.811 191.853 422.296 191.28 421.742 191.28C421.185 191.282 420.957 191.836 421.145 192.614C421.332 193.378 421.837 193.946 422.399 193.944C422.96 193.944 423.181 193.38 422.995 192.612ZM420.191 192.617C419.897 191.403 420.428 190.453 421.553 190.451C422.669 190.449 423.652 191.385 423.947 192.61C424.241 193.823 423.717 194.773 422.587 194.775C421.458 194.778 420.489 193.839 420.191 192.617Z" fill="#81C479"/>
<path d="M428.61 192.603C428.426 191.843 427.914 191.271 427.357 191.271C426.803 191.273 426.574 191.827 426.763 192.605C426.947 193.369 427.453 193.937 428.016 193.935C428.577 193.935 428.796 193.371 428.61 192.603ZM425.808 192.607C425.515 191.394 426.046 190.444 427.168 190.442C428.286 190.439 429.269 191.375 429.565 192.6C429.858 193.813 429.334 194.764 428.205 194.766C427.075 194.768 426.104 193.83 425.808 192.607Z" fill="#81C479"/>
<path d="M431.857 191.408L431.163 191.587L430.788 190.835L431.915 190.474H432.548L433.568 194.684L432.651 194.687L431.857 191.408Z" fill="#81C479"/>
<path d="M430.713 249.665L430.021 249.844L429.644 249.092L430.771 248.731H431.407L432.425 252.941L431.507 252.943L430.713 249.665Z" fill="#99EA73"/>
<path d="M436.81 250.843C436.628 250.084 436.114 249.511 435.559 249.513C435.003 249.513 434.775 250.07 434.963 250.845C435.147 251.611 435.655 252.177 436.216 252.177C436.778 252.175 436.999 251.614 436.81 250.843ZM434.008 250.848C433.715 249.634 434.246 248.684 435.369 248.682C436.486 248.68 437.469 249.616 437.765 250.841C438.058 252.054 437.534 253.004 436.405 253.006C435.275 253.009 434.307 252.073 434.008 250.848Z" fill="#99EA73"/>
<path d="M442.428 250.834C442.244 250.075 441.732 249.502 441.175 249.504C440.621 249.504 440.392 250.061 440.579 250.836C440.765 251.6 441.27 252.168 441.832 252.166C442.393 252.166 442.614 251.605 442.428 250.834ZM439.626 250.838C439.333 249.625 439.864 248.675 440.986 248.673C442.104 248.671 443.085 249.607 443.383 250.831C443.676 252.045 443.15 252.995 442.02 252.997C440.891 252.999 439.922 252.063 439.626 250.838Z" fill="#99EA73"/>
<path d="M425.195 256.518L424.501 256.697L424.126 255.945L425.254 255.586L425.887 255.584L426.907 259.794L425.99 259.796L425.195 256.518Z" fill="#99EA73"/>
<path d="M431.293 257.696C431.109 256.937 430.596 256.364 430.04 256.366C429.486 256.366 429.257 256.923 429.446 257.698C429.63 258.465 430.135 259.03 430.697 259.03C431.26 259.028 431.479 258.467 431.293 257.696ZM428.491 257.701C428.198 256.488 428.729 255.537 429.851 255.535C430.969 255.533 431.95 256.471 432.248 257.694C432.541 258.907 432.015 259.857 430.885 259.859C429.758 259.862 428.787 258.926 428.491 257.701Z" fill="#99EA73"/>
<path d="M436.911 257.687C436.727 256.928 436.212 256.355 435.658 256.357C435.101 256.357 434.873 256.914 435.061 257.689C435.248 258.455 435.753 259.021 436.314 259.021C436.876 259.019 437.097 258.458 436.911 257.687ZM434.107 257.691C433.813 256.478 434.344 255.528 435.469 255.526C436.585 255.523 437.567 256.462 437.863 257.684C438.157 258.898 437.633 259.848 436.503 259.85C435.374 259.852 434.405 258.916 434.107 257.691Z" fill="#99EA73"/>
<path d="M448.043 250.824C447.861 250.065 447.347 249.492 446.792 249.492C446.236 249.495 446.008 250.051 446.196 250.827C446.383 251.59 446.888 252.159 447.449 252.156C448.01 252.156 448.232 251.595 448.043 250.824ZM445.241 250.829C444.948 249.616 445.479 248.666 446.604 248.663C447.719 248.661 448.702 249.597 448.998 250.822C449.291 252.035 448.767 252.985 447.638 252.988C446.508 252.99 445.539 252.054 445.241 250.829Z" fill="#99EA73"/>
<path d="M451.29 249.63L450.596 249.809L450.221 249.057L451.348 248.696H451.981L453.002 252.906L452.084 252.909L451.29 249.63Z" fill="#99EA73"/>
<path d="M527.024 202.21C529.111 202.015 533.909 202.576 537.042 206.851C540.174 211.126 538.006 216.168 545.838 220.052C553.671 223.936 552.546 228.835 550.978 234.981C549.413 241.126 542.845 248.554 535.013 248.191C527.181 247.83 513.786 231.707 514.269 226.3C514.751 220.895 517.077 220.248 515.233 216.673C512.34 211.073 517.701 203.095 527.024 202.21Z" fill="#91616A"/>
<path d="M530.08 227.855C530.12 227.799 530.14 227.767 530.136 227.764C529.269 227.455 529.195 226.188 529.998 220.916L529.582 220.935L522.59 221.27C522.59 221.27 522.427 223.429 522.131 225.443C522.073 225.843 522.01 226.239 521.94 226.609C516.679 231.849 528.005 234.217 530.08 227.855Z" fill="#FFB27D"/>
<path d="M515.789 369.701H530.895C530.895 369.701 531.258 367.401 530.469 365.654C529.712 363.978 528.536 362.944 528.429 361.661C527.469 362.648 526.288 363.284 524.104 362.99C523.836 363.424 522.376 365.745 521.484 366.388C520.496 367.096 516.094 366.844 515.789 369.701Z" fill="#36AB23"/>
<path d="M533.52 307.963C532.113 311.435 531.03 314.591 531.37 317.373L531.373 317.39C531.412 317.697 531.468 317.997 531.543 318.298C536.499 338.114 529.472 363.92 529.472 363.92C529.472 363.92 527.616 364.35 526.272 364.469C523.889 364.681 523.542 363.973 523.542 363.973C523.542 363.973 521.179 342.93 513.525 302.701C512.421 296.891 511.986 293.675 511.588 288.51C511.467 286.964 511.352 285.243 511.224 283.227C510.877 277.806 511.699 268.68 515.768 266.284C517.62 265.19 520.14 265.49 523.528 268.159C523.796 268.37 524.05 268.622 524.348 268.836C545.163 283.816 537.822 297.368 533.52 307.963Z" fill="#263238"/>
<path d="M531.37 317.373C531.137 316.558 523.65 290.406 523.524 288.42C523.251 284.147 533.147 295.946 533.52 307.963C532.113 311.435 531.03 314.591 531.37 317.373Z" fill="#0E1315"/>
<path d="M584.341 337.916L578.053 324.182C578.053 324.182 575.81 324.811 574.55 326.255C573.341 327.64 572.466 327.393 569.71 325.481C570.747 327.084 570.887 328.027 571.529 330.136C572.035 330.197 574.916 332.984 577.867 333.753C579.043 334.058 581.614 338.829 584.341 337.916Z" fill="#36AB23"/>
<path d="M518.423 272.31C518.423 272.31 531.96 319.36 536.92 322.389C541.879 325.416 566.403 331.44 573.644 332.886C573.644 332.886 573.903 330.928 573.523 328.951C573.439 328.511 572.692 326.932 572.692 326.932C572.692 326.932 559.814 314.05 547.231 312.246C544.597 311.869 548.288 270.727 530.413 269.116C514.087 267.642 518.423 272.31 518.423 272.31Z" fill="#263238"/>
<path d="M498.357 198.268C498.357 198.268 498.659 196.761 499.002 195.609C499.151 195.101 498.101 191.755 497.374 191.343C496.647 190.933 494.754 193.185 495.289 194.915C495.564 195.802 496.016 198.694 496.016 198.694L498.357 198.268Z" fill="#FFB27D"/>
<path d="M560.863 201.065C560.953 201.256 561.084 201.598 561.198 201.919C561.2 201.831 561.2 201.745 561.203 201.661C561.207 201.02 563.597 197.541 564.577 197.323C565.56 197.106 566.946 200.366 565.719 202.166C565.09 203.093 563.187 206.392 563.187 206.392L561.079 205.119C561.079 205.119 561.065 204.232 560.497 203.512C560.21 203.149 560.201 201.442 560.099 200.699C560.099 200.699 560.52 200.361 560.863 201.065Z" fill="#FFB27D"/>
<path d="M522.59 221.27C522.59 221.27 522.427 223.429 522.131 225.443C525.948 225.901 528.473 222.735 529.581 220.935L522.59 221.27Z" fill="#ED975D"/>
<path d="M530.893 220.052C530.893 220.052 533.566 216.955 534.521 214.11C535.201 212.079 535.29 204.185 527.348 204.143C527.348 204.143 525.059 204.029 522.723 205.147C520.864 206.036 518.062 208.134 519.781 215.29L520.149 217.675L530.893 220.052Z" fill="#E5E5E5"/>
<path d="M520.729 222.972C520.729 222.972 530.474 224.586 531.387 218.501C532.297 212.419 534.17 208.53 527.986 207.242C521.803 205.955 520.242 208.095 519.446 210.051C518.647 212.007 518.216 222.395 520.729 222.972Z" fill="#FFB27D"/>
<path d="M522.583 206.392C522.583 206.392 525.173 213.967 529.121 215.632C533.068 217.3 535.013 216.464 535.013 216.464C535.013 216.464 532.234 213.495 532.232 209.033C532.232 209.033 525.105 203.295 522.583 206.392Z" fill="#91616A"/>
<path d="M524.137 207.11C524.137 207.11 522.341 207.582 520.746 209.51C519.697 210.775 519.329 212.533 518.859 214.27C518.859 214.27 517.566 209.119 520.238 206.712C523.072 204.157 524.137 207.11 524.137 207.11Z" fill="#91616A"/>
<path d="M563.576 206.42C563.576 206.42 561.435 223.897 556.922 228.074C553.789 230.973 542.703 235.651 540.055 239.962C539.738 240.476 539.352 241.934 539.049 244.097C538.152 250.433 537.931 262.805 542.058 275.228C542.249 275.803 542.449 276.378 542.661 276.954C543.222 278.488 542.466 280.188 540.926 280.735C538.986 281.427 536.133 282.293 532.761 282.871C532.12 282.982 531.456 283.08 530.783 283.166C521.484 284.347 515.191 282.165 511.993 280.551C510.484 279.79 509.571 278.204 509.664 276.516C509.855 273.067 511.583 269.656 512.361 261.364C512.95 255.072 508.655 246.2 508.886 242.851C508.977 241.529 509.631 235.651 508.965 234.741C504.542 228.668 497.104 222.851 495.96 217.307C494.642 210.912 495.494 198.156 495.494 198.156C495.86 198.028 496.854 197.635 497.56 197.635C498.813 197.632 499.696 198.787 499.696 198.787C499.696 198.787 503.015 211.215 503.182 212.051C504.065 216.508 512.545 222.967 515.111 224.262C517.925 225.685 520.172 226.446 521.942 226.612C521.942 226.612 519.851 230.223 522.944 230.724C526.668 231.327 529.544 227.047 529.544 227.047C529.544 227.047 531.806 227.683 535.879 227.082C539.259 226.586 551.288 222.52 553.025 219.435C554.292 217.19 560.969 204.746 560.969 204.746C560.969 204.746 561.589 204.385 562.586 204.905C563.571 205.417 563.576 206.42 563.576 206.42Z" fill="#81C379"/>
<path d="M523.559 219.668C523.559 219.668 523.142 220.508 522.581 220.525C522.022 220.539 520.596 220.404 520.499 220.259C520.403 220.115 520.166 219.235 520.166 219.235C520.166 219.235 522.523 219.142 523.559 219.668Z" fill="white"/>
<path d="M542.058 275.228C542.058 275.228 533.692 273.794 533.138 267.842C532.547 261.499 539.042 244.085 539.042 244.085L539.049 244.097C538.153 250.433 537.931 262.805 542.058 275.228Z" fill="#81C379"/>
<path d="M521.67 128.753L520.799 125.555C519.863 122.128 516.94 119.61 513.411 119.194L490.678 116.509L488.973 130.932L481.7 192.509L575.745 203.615L583.018 142.04L529.801 135.755C525.916 135.296 522.7 132.525 521.67 128.753Z" fill="#7FDA74"/>
<path d="M499.402 164.401L500.05 158.922L520.263 152.774L519.602 158.372L505.528 162.305L518.298 169.41L517.627 175.087L499.402 164.401Z" fill="white"/>
<path d="M541.007 148.583L546.131 149.188L524.197 183.873L519.075 183.267L541.007 148.583Z" fill="white"/>
<path d="M565.723 166.678L565.076 172.155L544.865 178.303L545.526 172.705L559.598 168.772L546.83 161.67L547.501 155.992L565.723 166.678Z" fill="white"/>
<path d="M560.334 203.046C560.334 203.046 560.057 200.625 559.814 200.173C559.575 199.721 560.175 199.591 560.688 200.625C561.202 201.661 562.225 201.349 562.737 202.373C563.25 203.396 562.798 203.668 562.164 203.608C561.533 203.547 560.334 203.046 560.334 203.046Z" fill="#FFB27D"/>
<path d="M498.527 197.483C498.527 197.483 499.905 195.991 499.898 195.325C499.891 194.656 500.863 193.005 500.592 192.705C500.32 192.402 499.84 192.884 499.584 193.336C499.325 193.788 498.273 193.76 498.03 194.994C497.791 196.228 498.527 197.483 498.527 197.483Z" fill="#FFB27D"/>
<path d="M280.187 189.827L315.898 205.466V191.55L297.291 183.901L315.898 176.251V162.466L280.187 178.105V189.827Z" fill="#2C3A64"/>
<path d="M348.73 152.828L317.873 217.318H330.915L361.772 152.828H348.73Z" fill="#2C3A64"/>
<path d="M364.162 162.466V176.382L382.768 184.031L364.162 191.68V205.466L399.872 189.827V178.105L364.162 162.466Z" fill="#2C3A64"/>
<path d="M317.873 217.318V213.634H330.915V217.318H317.873Z" fill="#2C3A64"/>
<path d="M361.772 149.144V152.828H355.679V149.146L361.772 149.144Z" fill="#2C3A64"/>
<path d="M280.187 186.145L315.898 201.784V187.869L297.291 180.219L315.898 172.567V158.782L280.187 174.421V186.145Z" fill="#2B8B35"/>
<path d="M348.73 149.144L317.873 213.634H330.915L361.772 149.144H348.73Z" fill="#2B8B35"/>
<path d="M364.162 158.782V172.698L382.768 180.35L364.162 187.999V201.784L399.872 186.145V174.421L364.162 158.782Z" fill="#2B8B35"/>
<path d="M480.465 288.762H478.29L460.489 220.851L437.607 133.552H182.059L220.769 288.762L218.007 288.79L178.829 131.444L439.405 131.219L439.633 132.087L462.508 219.856L480.465 288.762Z" fill="#99EA73"/>
<path d="M480.859 290.275L478.761 290.557L460.49 220.851L462.509 219.856L480.859 290.275Z" fill="#87DB80"/>
<path d="M218.576 170.115C218.101 170.663 218.038 171.273 218.275 171.927L218.28 171.936C218.715 173.143 220.159 174.488 221.836 175.834C222.048 176.009 222.239 176.165 222.407 176.312C222.449 176.349 222.493 176.386 222.535 176.426C222.568 176.456 222.6 176.486 222.633 176.514C224.196 177.956 223.606 178.284 226.415 181.209C229.617 184.539 231.821 184.599 232.447 184.294C232.978 184.036 231.9 182.271 230.707 180.284C230.649 180.189 230.591 180.091 230.533 179.996C230.374 179.732 230.216 179.462 230.058 179.197C228.658 176.808 229.017 175.688 229.35 172.132C229.617 169.242 233.845 155.988 233.845 155.988L227.71 154.931C227.71 154.931 225.863 165.484 223.828 167.111C222.738 167.978 221.52 167.987 220.474 168.63C220.399 168.674 220.327 168.721 220.255 168.767C219.661 169.161 219.055 169.568 218.576 170.115Z" fill="#FFB27D"/>
<path d="M218.576 170.115C218.101 170.663 218.038 171.273 218.275 171.927L218.28 171.936C218.813 173.14 220.22 174.482 221.841 175.823C222.053 175.997 222.239 176.16 222.407 176.312C222.449 176.349 222.493 176.386 222.535 176.426C222.568 176.456 222.6 176.486 222.633 176.514C224.196 177.956 223.606 178.284 226.415 181.209C229.618 184.539 231.821 184.599 232.447 184.294C232.978 184.036 231.9 182.271 230.707 180.284C230.083 180.056 227.188 178.88 224.999 176.081C223.071 173.62 221.785 170.46 220.474 168.63C220.399 168.674 220.327 168.721 220.255 168.767C219.661 169.161 219.055 169.568 218.576 170.115Z" fill="#233862"/>
<path d="M268.048 166.285C268.428 168.178 271.127 167.864 274.143 167.125C277.159 166.39 276.442 167.265 280.734 166.79C285.027 166.315 286.329 164.715 286.459 164.077C286.576 163.509 284.456 163.311 282.181 163.048C281.894 163.015 281.608 162.981 281.319 162.946C278.75 162.624 276.871 160.966 274.537 159.604C272.327 158.316 269.029 153.063 269.029 153.063L263.141 153.531C263.141 153.531 266.232 158.221 267.426 160.261C268.13 161.46 268.093 163.046 268.004 164.271C267.957 164.937 267.916 165.619 268.048 166.285Z" fill="#FFB27D"/>
<path d="M274.143 167.125C277.159 166.39 276.442 167.265 280.734 166.79C285.027 166.315 286.329 164.715 286.459 164.077C286.576 163.509 284.456 163.311 282.181 163.048L282.16 163.092C282.16 163.092 279.584 164.918 276.011 165.002C273.1 165.074 270.014 164.238 268.004 164.271C267.958 164.937 267.916 165.619 268.048 166.285C268.428 168.178 271.127 167.864 274.143 167.125Z" fill="#233862"/>
<path d="M245.489 128.65L239.986 143.455L232.801 162.787C232.801 162.787 230.852 162.976 228.986 162.438C227.267 161.942 225.295 160.643 225.295 160.643C225.295 160.643 227.288 139.886 231.01 127.97C231.965 124.913 233.034 122.437 234.212 121.045C239.981 114.229 245.489 128.65 245.489 128.65Z" fill="#0E1315"/>
<path d="M239.895 105.138C236.29 103.974 226.007 105.467 215.678 107.49L213.515 103.923L191.204 102.181C191.204 102.181 183.842 118.504 187.872 128.906C188.465 130.434 189.642 131.414 191.648 131.447H191.974C191.974 131.447 205.254 131.44 209.565 131.44C220.66 131.44 233.046 123.814 234.648 123.492C237.273 122.968 238.321 128.212 240.943 133.719C243.566 139.227 265.596 158.107 265.596 158.107C265.596 158.107 268.982 158.139 270.382 157.615C271.886 157.052 272.436 156.318 272.436 156.318C272.436 156.318 248.026 107.76 239.895 105.138Z" fill="#263238"/>
<path d="M206.122 36.0139C202.997 35.2106 198.716 36.0116 198.008 36.0815C189.518 36.9174 186.666 46.3855 187.951 53.7299C189.136 60.5108 185.697 62.3853 181.712 67.741C173.72 78.4759 178.943 87.5294 185.249 89.8627C189.033 91.2622 194.286 87.7297 194.286 87.7297C194.381 87.7693 210.792 76.9809 217.518 70.8986C228.723 66.5162 214.09 38.0631 206.122 36.0139Z" fill="#A85C0F"/>
<path d="M207.375 67.068C207.599 67.8528 203.886 69.2965 201.052 68.7656C198.385 68.2696 195.395 65.1469 196.012 64.8535C197.032 64.3692 197.719 63.163 197.16 56.6452L197.668 56.7011L206.201 57.6768C206.201 57.6768 206.227 60.3337 206.425 62.823C206.59 64.9117 207.012 65.7873 207.375 67.068Z" fill="#FFB27D"/>
<path d="M206.201 57.6768C206.201 57.6768 206.227 60.3337 206.425 62.823C201.716 63.0745 198.881 58.9948 197.668 56.7011L206.201 57.6768Z" fill="#ED975D"/>
<path d="M207.962 59.9031C207.962 59.9031 196.862 60.9975 196.287 54.077C195.712 47.154 193.891 42.6342 200.954 41.6423C208.018 40.6503 209.616 43.1768 210.371 45.4402C211.125 47.7036 210.836 59.4397 207.962 59.9031Z" fill="#FFB27D"/>
<path d="M206.774 40.55C206.774 40.55 205.375 49.0051 199.054 51.0124C194.441 52.4771 192.353 51.5107 192.353 51.5107C192.353 51.5107 194.573 48.5674 195.362 44.476C195.594 43.2698 196.452 42.2755 197.619 41.8936C200.896 40.8155 204.867 37.8675 206.774 40.55Z" fill="#A85C0F"/>
<path d="M204.681 42.3524C204.681 42.3524 206.774 42.8181 208.628 45.5169C209.641 46.9933 210.813 50.7097 210.613 52.3584C210.613 52.3584 212.557 44.5296 209.723 41.6189C206.719 38.5312 204.681 42.3524 204.681 42.3524Z" fill="#A85C0F"/>
<path d="M187.388 89.8067C187.586 90.6474 187.755 91.4205 187.893 92.1353C188.119 93.2857 188.274 94.2777 188.384 95.1532C188.723 97.8846 188.621 99.5007 188.85 101.27C188.977 102.26 189.21 103.299 189.68 104.6C190.14 105.869 202.203 106.999 209.066 106.545C211.244 106.403 212.905 106.095 213.494 105.588C215.942 103.462 215.699 108.137 216.035 85.7643C216.198 74.8502 206.772 65.1306 206.772 65.1306C206.772 65.1306 206.02 69.7925 196.674 64.2458C196.342 64.0502 192.661 69.4991 189.119 76.2101C185.216 83.622 186.286 85.1915 187.388 89.8067Z" fill="#81C479"/>
<path d="M239.986 143.455L232.801 162.787C232.801 162.787 230.852 162.976 228.986 162.438C227.267 161.942 225.295 160.643 225.295 160.643C225.295 160.643 227.288 139.886 231.01 127.97L239.986 143.455Z" fill="#263238"/>
<path d="M206.775 65.1306C206.775 65.1306 216.391 66.7606 217.518 70.8985C218.648 75.0388 226.45 98.192 226.45 98.192C226.45 98.192 220.406 100.255 218.147 97.9964C215.888 95.7376 210.289 77.046 210.289 77.046L206.775 65.1306Z" fill="#81C479"/>
<path d="M245.976 92.8712L248.254 91.9677C248.254 91.9677 249.624 91.665 250.364 91.8978C251.105 92.1307 252.956 92.1051 252.966 92.4101C252.975 92.7128 250.856 93.6583 250.856 93.6583L250.788 93.6326C251.594 95.4559 255.621 96.4968 255.816 97.1651C256.052 97.9755 254.177 98.3947 253.157 98.6485C252.137 98.9023 249.635 98.8767 248.401 97.5773C247.502 96.6249 245.976 95.3186 245.976 95.3186V92.8712Z" fill="#FFB27D"/>
<path d="M205.4 55.821C205.4 55.821 205.866 56.9597 207.096 56.9597C208.323 56.9597 208.656 56.7757 208.889 56.5149C209.122 56.2564 209.353 55.7535 209.353 55.7535C209.353 55.7535 207.315 55.3529 205.4 55.821Z" fill="white"/>
<path d="M223.769 90.191L247.052 91.9677C247.052 91.9677 247.539 94.2264 246.037 96.7855C246.037 96.7855 225.034 100.891 219.551 98.7951C214.071 96.6971 214.688 86.8098 214.688 86.8098L223.769 90.191Z" fill="#81C479"/>
<path d="M188.384 95.1533C188.723 97.8847 188.62 99.5007 188.85 101.27C197.582 101.298 209.255 94.5292 209.255 94.5292L188.384 95.1533Z" fill="#46953B"/>
<path d="M209.255 88.8031C209.255 88.8031 195.653 88.3979 193.36 80.667C190.841 72.1746 188.02 84.1599 188.02 84.1599L189.521 91.8093H204.445L209.255 88.8031Z" fill="#46953B"/>
<path d="M232.969 67.8273L232.235 66.0063C231.445 64.0549 229.552 62.7788 227.446 62.7788H213.887V71.3807V108.11H269.981V71.3807H238.239C235.922 71.3807 233.837 69.9742 232.969 67.8273Z" fill="#7FDA74"/>
<path d="M222.348 90.3447V87.0753L233.812 82.0549V85.3941L225.805 88.6867L233.812 91.977V95.3651L222.348 90.3447Z" fill="white"/>
<path d="M245.723 78.1499H248.778L238.286 100.076H235.233L245.723 78.1499Z" fill="white"/>
<path d="M261.52 87.0753V90.3447L250.057 95.3651V92.0259L258.061 88.7333L250.057 85.443V82.0549L261.52 87.0753Z" fill="white"/>
<path d="M209.255 90.5961L210.238 89.05C210.238 89.05 211.018 88.7961 212.11 88.03C213.41 87.1172 213.237 85.7503 213.887 85.8971L213.894 88.8986L213.824 88.9102C216.612 89.6531 219.873 88.845 219.938 89.539C220.117 91.4484 218.641 92.3077 217.402 92.9061C216.456 93.3625 215.38 94.0494 213.668 93.5162C212.418 93.1273 210.45 92.7315 210.45 92.7315L209.255 90.5961Z" fill="#FFB27D"/>
<path d="M196.674 64.2458C196.674 64.2458 187.843 64.8232 185.636 68.2672C183.428 71.7112 180.691 89.192 181.839 95.1974C182.986 101.201 211.263 94.0495 211.263 94.0495L210.361 88.8404C210.361 88.8404 194.042 88.9335 193.112 86.8098C191.876 83.9829 196.674 64.2458 196.674 64.2458Z" fill="#81C479"/>
<path d="M239.297 71.3621C239.222 71.5903 240.624 73.9026 242.629 73.5021C243.88 73.2506 245.506 70.5587 244.078 69.9649C241.695 68.9752 239.499 70.7497 239.297 71.3621Z" fill="#FFB27D"/>
<defs>
<filter id="filter0_d_269_548" x="0" y="367.701" width="658.19" height="9.5393" filterUnits="userSpaceOnUse" color-interpolation-filters="sRGB">
<feFlood flood-opacity="0" result="BackgroundImageFix"/>
<feColorMatrix in="SourceAlpha" type="matrix" values="0 0 0 0 0 0 0 0 0 0 0 0 0 0 0 0 0 0 127 0" result="hardAlpha"/>
<feOffset dy="2"/>
<feGaussianBlur stdDeviation="2"/>
<feComposite in2="hardAlpha" operator="out"/>
<feColorMatrix type="matrix" values="0 0 0 0 0 0 0 0 0 0 0 0 0 0 0 0 0 0 0.25 0"/>
<feBlend mode="normal" in2="BackgroundImageFix" result="effect1_dropShadow_269_548"/>
<feBlend mode="normal" in="SourceGraphic" in2="effect1_dropShadow_269_548" result="shape"/>
</filter>
</defs>
</svg>
