<svg width="372" height="335" viewBox="0 0 372 335" fill="none" xmlns="http://www.w3.org/2000/svg">
<path d="M0.851891 69.1079C-5.044 21.3378 26.1678 -5.27032 65.4578 0.874423C84.3036 3.8128 104.968 27.3294 123.105 34.2015C146.775 43.1698 168.483 37.8482 191.76 39.4944C249.647 43.5813 246.737 67.0309 282.792 102.052C308.146 126.679 352.346 129.636 363.535 168.764C377.203 216.62 324.006 232.48 285.711 221.042C241.731 207.891 224.254 262.093 156.557 247.707C89.9506 233.551 8.81517 140.978 0.851891 69.1079Z" fill="#5DB152"/>
<path opacity="0.9" d="M0.851891 69.1079C-5.044 21.3378 26.1678 -5.27032 65.4578 0.874423C84.3036 3.8128 104.968 27.3294 123.105 34.2015C146.775 43.1698 168.483 37.8482 191.76 39.4944C249.647 43.5813 246.737 67.0309 282.792 102.052C308.146 126.679 352.346 129.636 363.535 168.764C377.203 216.62 324.006 232.48 285.711 221.042C241.731 207.891 224.254 262.093 156.557 247.707C89.9506 233.551 8.81517 140.978 0.851891 69.1079Z" fill="white"/>
<path d="M185.577 334.854C288.068 334.854 371.154 330.003 371.154 324.019C371.154 318.035 288.068 313.184 185.577 313.184C83.0856 313.184 0 318.035 0 324.019C0 330.003 83.0856 334.854 185.577 334.854Z" fill="#F5F5F5"/>
<path d="M101.025 30.2007H93.1572V31.1579H101.025V30.2007Z" fill="#5DB152"/>
<path d="M86.3521 30.2007H59.342V31.1579H86.3521V30.2007Z" fill="#5DB152"/>
<path d="M54.0491 180.862H246.718C247.732 180.877 248.737 180.677 249.667 180.274C250.598 179.872 251.432 179.276 252.114 178.527C252.796 177.777 253.312 176.891 253.626 175.928C253.94 174.964 254.045 173.944 253.935 172.937L242.22 41.4374C241.99 39.2959 240.99 37.3111 239.405 35.8529C237.82 34.3947 235.759 33.5628 233.606 33.5124H40.9269C39.9135 33.4969 38.9083 33.6971 37.978 34.0996C37.0478 34.5022 36.2138 35.098 35.5314 35.8474C34.8489 36.5968 34.3336 37.4828 34.0196 38.4465C33.7057 39.4103 33.6002 40.4298 33.7102 41.4374L45.4254 172.898C45.6424 175.05 46.6392 177.048 48.2279 178.515C49.8166 179.982 51.8872 180.817 54.0491 180.862Z" fill="#5DB152"/>
<path d="M54.6712 180.862H247.331C248.345 180.879 249.351 180.68 250.282 180.278C251.213 179.876 252.047 179.28 252.73 178.53C253.413 177.78 253.928 176.894 254.241 175.929C254.555 174.965 254.659 173.945 254.548 172.937L242.842 41.4374C242.611 39.2967 241.609 37.313 240.025 35.8552C238.44 34.3974 236.38 33.5649 234.228 33.5124H41.5394C40.5288 33.5025 39.5275 33.7067 38.6015 34.1116C37.6755 34.5165 36.8456 35.1129 36.1666 35.8615C35.4876 36.6101 34.9748 37.494 34.662 38.4551C34.3491 39.4161 34.2433 40.4325 34.3514 41.4374L46.0666 172.898C46.2871 175.045 47.2824 177.038 48.8662 178.504C50.4501 179.97 52.5138 180.808 54.6712 180.862Z" fill="#5DB152"/>
<path opacity="0.2" d="M54.6712 180.862H247.331C248.345 180.879 249.351 180.68 250.282 180.278C251.213 179.876 252.047 179.28 252.73 178.53C253.413 177.78 253.928 176.894 254.241 175.929C254.555 174.965 254.659 173.945 254.548 172.937L242.842 41.4374C242.611 39.2967 241.609 37.313 240.025 35.8552C238.44 34.3974 236.38 33.5649 234.228 33.5124H41.5394C40.5288 33.5025 39.5275 33.7067 38.6015 34.1116C37.6755 34.5165 36.8456 35.1129 36.1666 35.8615C35.4876 36.6101 34.9748 37.494 34.662 38.4551C34.3491 39.4161 34.2433 40.4325 34.3514 41.4374L46.0666 172.898C46.2871 175.045 47.2824 177.038 48.8662 178.504C50.4501 179.97 52.5138 180.808 54.6712 180.862Z" fill="black"/>
<path d="M234.563 37.5132H41.8935C41.683 37.5132 41.4628 37.5132 41.2523 37.5132C36.3326 37.9152 37.4716 45.4095 42.4391 45.4095H235.434C240.401 45.4095 240.219 37.9152 235.214 37.5132C234.993 37.5228 234.783 37.5132 234.563 37.5132Z" fill="#5DB152"/>
<path d="M45.3295 43.7728C44.7164 43.7602 44.1287 43.5251 43.6762 43.1113C43.2236 42.6974 42.9369 42.1331 42.8697 41.5235C42.842 41.2249 42.8761 40.9237 42.97 40.6388C43.0638 40.3539 43.2154 40.0914 43.4153 39.8677C43.6169 39.6477 43.8625 39.4727 44.1363 39.3539C44.41 39.2352 44.7057 39.1755 45.0041 39.1786C45.6183 39.1896 46.2071 39.4257 46.6587 39.8421C47.1104 40.2585 47.3935 40.8261 47.4543 41.4374C47.4869 41.7342 47.4561 42.0346 47.3637 42.3185C47.2714 42.6025 47.1197 42.8636 46.9188 43.0844C46.7178 43.3053 46.4722 43.4809 46.1982 43.5996C45.9242 43.7182 45.6281 43.7773 45.3295 43.7728ZM45.0041 40.1357C44.8395 40.1334 44.6761 40.1655 44.5246 40.2297C44.373 40.294 44.2364 40.3891 44.1235 40.509C44.0094 40.6386 43.924 40.7909 43.8729 40.9558C43.8217 41.1208 43.806 41.2947 43.8268 41.4661C43.8664 41.8395 44.0409 42.1855 44.3176 42.4393C44.5943 42.6931 44.9541 42.8371 45.3295 42.8444C45.4942 42.8466 45.6575 42.8146 45.8091 42.7504C45.9607 42.6861 46.0972 42.591 46.2101 42.4711C46.3247 42.3418 46.4105 42.1896 46.4616 42.0245C46.5128 41.8595 46.5282 41.6854 46.5068 41.514C46.4652 41.1414 46.2901 40.7965 46.0139 40.5431C45.7376 40.2897 45.3789 40.145 45.0041 40.1357Z" fill="#FAFAFA"/>
<path d="M51.5032 43.7728C50.8911 43.7599 50.3047 43.5245 49.8537 43.1105C49.4027 42.6965 49.118 42.1323 49.0529 41.5235C49.0219 41.2258 49.0542 40.9248 49.1476 40.6403C49.241 40.3559 49.3934 40.0944 49.595 39.873C49.7965 39.6516 50.0425 39.4753 50.3169 39.3556C50.5914 39.2359 50.888 39.1756 51.1873 39.1786C51.8003 39.1937 52.3868 39.4312 52.8376 39.8468C53.2884 40.2624 53.5727 40.8277 53.6376 41.4374C53.67 41.7349 53.6381 42.0358 53.5439 42.3199C53.4498 42.6039 53.2957 42.8644 53.092 43.0836C52.8904 43.3036 52.6447 43.4787 52.371 43.5974C52.0972 43.7162 51.8016 43.7759 51.5032 43.7728ZM51.1873 40.1357C51.0225 40.1322 50.8589 40.1637 50.7071 40.228C50.5553 40.2924 50.4189 40.3881 50.3068 40.509C50.1894 40.6368 50.1012 40.7885 50.0483 40.9538C49.9954 41.1191 49.9791 41.2939 50.0005 41.4661C50.042 41.8387 50.2172 42.1836 50.4934 42.437C50.7697 42.6904 51.1284 42.8351 51.5032 42.8444C51.668 42.8478 51.8317 42.8163 51.9834 42.752C52.1352 42.6877 52.2716 42.5919 52.3837 42.4711C52.5023 42.3443 52.5906 42.1924 52.642 42.0266C52.6934 41.8608 52.7065 41.6855 52.6805 41.514C52.6411 41.1422 52.4679 40.7974 52.1933 40.5439C51.9186 40.2903 51.561 40.1452 51.1873 40.1357Z" fill="#FAFAFA"/>
<path d="M57.6862 43.7728C57.0731 43.7602 56.4854 43.5251 56.0328 43.1113C55.5803 42.6974 55.2936 42.1331 55.2264 41.5235C55.1987 41.2249 55.2328 40.9237 55.3266 40.6388C55.4205 40.3539 55.5721 40.0914 55.772 39.8677C55.9736 39.6477 56.2192 39.4727 56.493 39.3539C56.7667 39.2352 57.0624 39.1755 57.3608 39.1786C57.9754 39.1914 58.5643 39.4279 59.0171 39.8437C59.4698 40.2595 59.7555 40.8261 59.8206 41.4374C59.8482 41.7346 59.8139 42.0343 59.72 42.3176C59.6261 42.6009 59.4746 42.8617 59.275 43.0837C59.0734 43.3036 58.8278 43.4787 58.554 43.5974C58.2803 43.7162 57.9846 43.7759 57.6862 43.7728ZM57.3608 40.1357C57.1962 40.1334 57.0328 40.1655 56.8812 40.2297C56.7297 40.294 56.5931 40.3891 56.4802 40.509C56.3661 40.6386 56.2807 40.7909 56.2295 40.9558C56.1784 41.1208 56.1627 41.2947 56.1835 41.4661C56.2231 41.8395 56.3976 42.1855 56.6743 42.4393C56.951 42.6931 57.3108 42.8371 57.6862 42.8444C57.8508 42.8466 58.0142 42.8146 58.1658 42.7504C58.3174 42.6861 58.4539 42.591 58.5668 42.4711C58.6814 42.3418 58.7672 42.1896 58.8183 42.0245C58.8695 41.8595 58.8849 41.6854 58.8635 41.514C58.8211 41.1349 58.6405 40.7848 58.3562 40.5305C58.0719 40.2763 57.7039 40.1357 57.3225 40.1357H57.3608Z" fill="#FAFAFA"/>
<path d="M57.667 167.778H242.048C242.415 167.784 242.78 167.712 243.118 167.566C243.455 167.421 243.758 167.205 244.006 166.934C244.254 166.662 244.442 166.341 244.556 165.991C244.671 165.642 244.709 165.272 244.67 164.906L234.984 56.7514C234.902 55.9734 234.539 55.252 233.963 54.7231C233.386 54.1943 232.636 53.8944 231.854 53.88H47.5215C47.1538 53.8738 46.789 53.9459 46.4513 54.0914C46.1135 54.237 45.8106 54.4527 45.5626 54.7242C45.3146 54.9958 45.1272 55.3169 45.0128 55.6664C44.8984 56.0159 44.8596 56.3857 44.899 56.7514L54.5372 164.906C54.6188 165.685 54.982 166.406 55.5585 166.935C56.1349 167.464 56.8849 167.763 57.667 167.778Z" fill="white"/>
<path d="M121.689 253.728C124.254 261.566 120.732 267.922 112.922 267.922H243.359C251.207 267.922 254.691 261.566 252.126 253.728H121.689Z" fill="#263238"/>
<path d="M65.8315 61.872C93.7892 125.827 72.1677 189.792 93.2915 253.728C95.8661 261.567 105.093 267.922 112.922 267.922C120.751 267.922 124.254 261.567 121.689 253.728H237.932C216.799 189.773 238.42 125.827 210.463 61.872H65.8315Z" fill="#5DB152"/>
<path opacity="0.8" d="M65.8315 61.872C93.7892 125.827 72.1677 189.792 93.2915 253.728C95.8661 261.567 105.093 267.922 112.922 267.922C120.751 267.922 124.254 261.567 121.689 253.728H237.932C216.799 189.773 238.42 125.827 210.463 61.872H65.8315Z" fill="white"/>
<path d="M127.508 110.35H92.3341C90.7667 98.3979 88.0715 86.6206 84.2847 75.176H119.459C123.246 86.6206 125.941 98.3979 127.508 110.35Z" fill="#5DB152"/>
<path opacity="0.6" d="M222.254 243.946H143.77C140.525 231.357 138.388 218.508 137.386 205.546H215.87C216.873 218.508 219.009 231.357 222.254 243.946Z" fill="#5DB152"/>
<g opacity="0.8">
<path opacity="0.8" d="M204.098 79.1003H125.613C125.211 77.8241 124.79 76.5224 124.35 75.1952H202.834C203.274 76.4969 203.696 77.7986 204.098 79.1003Z" fill="#5DB152"/>
<path opacity="0.8" d="M206.912 89.2937H128.427C128.102 88.0175 127.783 86.7158 127.47 85.3886H205.954C206.267 86.6712 206.586 87.9728 206.912 89.2937Z" fill="#5DB152"/>
<path opacity="0.8" d="M191.454 99.42H130.629C130.38 98.1183 130.121 96.8166 129.844 95.5149H190.679C190.947 96.8166 191.205 98.1183 191.454 99.42Z" fill="#5DB152"/>
</g>
<g opacity="0.2">
<path opacity="0.2" d="M212.31 123.042H133.825C133.749 122.19 133.672 121.329 133.586 120.467H212.07C212.157 121.329 212.233 122.19 212.31 123.042Z" fill="#5DB152"/>
<path opacity="0.2" d="M212.846 129.742H134.362C134.304 128.88 134.237 128.019 134.17 127.167H212.654C212.721 128.019 212.788 128.88 212.846 129.742Z" fill="#5DB152"/>
<path opacity="0.2" d="M191.454 136.432H134.763C134.763 135.571 134.677 134.719 134.62 133.857H191.32L191.454 136.432Z" fill="#5DB152"/>
<path opacity="0.2" d="M213.554 143.122H135.07C135.07 142.271 135.003 141.409 134.964 140.548H213.449C213.487 141.409 213.525 142.271 213.554 143.122Z" fill="#5DB152"/>
<path opacity="0.2" d="M213.783 149.822H135.299C135.299 148.961 135.251 148.099 135.223 147.248H213.707C213.736 148.099 213.764 148.961 213.783 149.822Z" fill="#5DB152"/>
<path opacity="0.2" d="M153.398 156.513H135.481C135.481 155.651 135.481 154.799 135.414 153.938H153.331C153.36 154.799 153.379 155.661 153.398 156.513Z" fill="#5DB152"/>
<path opacity="0.2" d="M214.109 163.212H135.625C135.625 162.351 135.625 161.49 135.577 160.638H214.061C214.08 161.49 214.09 162.351 214.109 163.212Z" fill="#5DB152"/>
<path opacity="0.2" d="M214.291 169.903H135.807L135.749 167.328H214.234L214.291 169.903Z" fill="#5DB152"/>
<path opacity="0.2" d="M214.416 176.593H135.931C135.931 175.741 135.931 174.88 135.864 174.018H214.348C214.368 174.88 214.387 175.741 214.416 176.593Z" fill="#5DB152"/>
<path opacity="0.2" d="M214.616 183.293H136.132L136.046 180.718H214.53L214.616 183.293Z" fill="#5DB152"/>
<path opacity="0.2" d="M214.875 189.983H136.39C136.39 189.131 136.314 188.27 136.285 187.409H214.769C214.798 188.27 214.836 189.131 214.875 189.983Z" fill="#5DB152"/>
<path opacity="0.2" d="M169.871 196.683H136.764L136.62 194.109H169.746L169.871 196.683Z" fill="#5DB152"/>
</g>
<path d="M298.815 81.56C299.676 82.6033 300.403 83.5413 301.14 84.5558C301.877 85.5704 302.595 86.5562 303.294 87.5803C304.701 89.619 306.031 91.6959 307.285 93.8495C308.539 96.003 309.745 98.1948 310.807 100.492C311.921 102.809 312.88 105.198 313.679 107.642L313.985 108.599L314.062 108.828L314.176 109.23C314.264 109.519 314.331 109.813 314.377 110.111C314.551 111.139 314.573 112.187 314.444 113.222C314.225 114.822 313.777 116.382 313.114 117.854C312.016 120.282 310.652 122.581 309.046 124.707C306.056 128.69 302.652 132.344 298.891 135.609L295.005 132.039C297.604 128.275 300.004 124.378 302.193 120.362C303.204 118.531 304.037 116.608 304.682 114.619C304.923 113.89 305.055 113.128 305.074 112.36C305.074 112.102 305.074 111.92 304.998 111.92C304.921 111.92 304.998 111.92 304.998 111.92C304.998 111.92 304.998 111.977 304.998 111.92L304.921 111.738L304.605 111.001C302.809 106.952 300.69 103.053 298.269 99.3434C297.063 97.4291 295.78 95.5149 294.441 93.6868C293.101 91.8587 291.751 89.9253 290.478 88.2216L298.815 81.56Z" fill="#FF8B7B"/>
<path d="M297.417 130.842L291.004 132.699L296.115 138.681C296.115 138.681 300.432 136.633 299.992 133.254L297.417 130.842Z" fill="#FF8B7B"/>
<path d="M286.41 137.839L292.22 142.471L296.115 138.681L291.004 132.699L286.41 137.839Z" fill="#FF8B7B"/>
<path d="M263.42 50.7119C263.42 51.2862 263.123 51.7456 262.75 51.7456C262.377 51.7456 262.08 51.2862 262.08 50.7119C262.08 50.1377 262.377 49.6878 262.75 49.6878C263.123 49.6878 263.42 50.1472 263.42 50.7119Z" fill="#263238"/>
<path d="M263.171 51.7456C262.493 53.4757 261.582 55.105 260.463 56.5887C260.85 56.8661 261.292 57.056 261.76 57.1453C262.228 57.2345 262.709 57.2209 263.171 57.1055V51.7456Z" fill="#A02724"/>
<path d="M265.43 47.5725C265.361 47.5734 265.293 47.5497 265.239 47.5055C264.904 47.2546 264.515 47.085 264.103 47.0102C263.691 46.9355 263.267 46.9576 262.865 47.0748C262.783 47.1061 262.691 47.1035 262.61 47.0677C262.53 47.0318 262.467 46.9656 262.434 46.8834C262.406 46.8007 262.409 46.7102 262.445 46.6302C262.481 46.5502 262.545 46.4867 262.626 46.4527C263.13 46.2926 263.665 46.2559 264.187 46.3459C264.708 46.4358 265.2 46.6497 265.622 46.9695C265.659 46.9943 265.69 47.0265 265.714 47.064C265.738 47.1014 265.754 47.1435 265.762 47.1874C265.769 47.2314 265.767 47.2764 265.756 47.3196C265.745 47.3628 265.725 47.4032 265.698 47.4385C265.667 47.4801 265.627 47.5139 265.58 47.5372C265.534 47.5604 265.482 47.5725 265.43 47.5725Z" fill="#263238"/>
<path d="M281.72 57.2491C280.715 62.3984 279.71 71.8261 283.309 75.2526C283.309 75.2526 281.902 80.4689 272.341 80.4689C261.812 80.4689 267.325 75.2526 267.325 75.2526C273.068 73.8839 272.905 69.6343 271.91 65.6335L281.72 57.2491Z" fill="#FF8B7B"/>
<path d="M284.687 77.0424C285.444 75.3961 286.267 73.501 284.553 72.9076C282.639 72.2568 272.331 71.5963 268.771 72.8215C268.301 72.9516 267.862 73.1737 267.478 73.4748C267.095 73.7759 266.775 74.15 266.538 74.5755C266.3 75.001 266.149 75.4695 266.094 75.9537C266.038 76.4379 266.08 76.9283 266.215 77.3965L284.687 77.0424Z" fill="#5DB152"/>
<path d="M317.909 303.69C317.708 303.913 317.463 304.094 317.19 304.221C316.917 304.347 316.621 304.417 316.32 304.427C316.139 304.427 315.909 304.254 315.823 303.824C315.798 303.714 315.799 303.601 315.824 303.492C315.848 303.382 315.897 303.28 315.966 303.192C316.588 302.34 318.933 302.101 319.029 302.091C319.061 302.085 319.094 302.089 319.123 302.103C319.152 302.117 319.176 302.139 319.192 302.168C319.21 302.195 319.22 302.226 319.22 302.259C319.22 302.291 319.21 302.323 319.192 302.35C318.814 302.841 318.384 303.291 317.909 303.69ZM316.378 303.24L316.234 303.383C316.193 303.435 316.164 303.496 316.15 303.56C316.135 303.625 316.134 303.692 316.148 303.757C316.206 304.063 316.349 304.092 316.397 304.101C316.876 304.206 317.976 303.288 318.665 302.474C317.854 302.563 317.073 302.831 316.378 303.259V303.24Z" fill="#5DB152"/>
<path d="M319.153 302.397H319.086C318.273 302.57 316.215 302.302 315.813 301.612C315.751 301.503 315.729 301.376 315.75 301.252C315.77 301.128 315.833 301.016 315.928 300.933C316.016 300.841 316.121 300.767 316.238 300.716C316.354 300.665 316.48 300.638 316.607 300.636C317.67 300.636 319.106 302.053 319.163 302.12C319.186 302.139 319.203 302.165 319.211 302.194C319.22 302.223 319.22 302.254 319.211 302.282C319.21 302.305 319.205 302.326 319.195 302.346C319.185 302.366 319.171 302.383 319.153 302.397ZM316.234 301.144L316.177 301.201C316.024 301.354 316.081 301.45 316.1 301.488C316.33 301.89 317.766 302.206 318.675 302.149C318.116 301.574 317.4 301.178 316.617 301.01C316.477 301.007 316.342 301.055 316.234 301.144Z" fill="#5DB152"/>
<path d="M265.191 317.195C264.291 317.195 263.42 317.07 263.124 316.668C263.049 316.562 263.008 316.435 263.008 316.304C263.008 316.174 263.049 316.047 263.124 315.941C263.244 315.745 263.436 315.604 263.659 315.548C264.827 315.233 267.287 316.63 267.383 316.697C267.415 316.711 267.441 316.736 267.456 316.768C267.472 316.799 267.476 316.835 267.469 316.869C267.462 316.902 267.446 316.932 267.422 316.956C267.398 316.98 267.368 316.996 267.335 317.003C266.627 317.127 265.91 317.191 265.191 317.195ZM264.061 315.835C263.957 315.82 263.85 315.82 263.746 315.835C263.678 315.849 263.614 315.876 263.558 315.916C263.502 315.955 263.455 316.006 263.42 316.065C263.296 316.276 263.344 316.381 263.42 316.438C263.746 316.888 265.526 316.898 266.837 316.716C265.978 316.245 265.035 315.946 264.061 315.835Z" fill="#5DB152"/>
<path d="M267.316 317.003H267.249C266.397 316.62 264.712 315.089 264.846 314.304C264.846 314.113 265.009 313.883 265.468 313.835C265.639 313.814 265.812 313.829 265.977 313.878C266.142 313.928 266.294 314.011 266.425 314.122C267.325 314.859 267.507 316.754 267.517 316.831C267.52 316.86 267.516 316.89 267.504 316.917C267.492 316.944 267.474 316.967 267.45 316.984C267.409 317.007 267.361 317.014 267.316 317.003ZM265.602 314.132H265.497C265.2 314.132 265.181 314.275 265.172 314.314C265.095 314.792 266.234 315.989 267.086 316.506C266.998 315.703 266.664 314.947 266.129 314.342C265.978 314.224 265.794 314.157 265.602 314.151V314.132Z" fill="#5DB152"/>
<path d="M275.049 316.84H268.014L267.316 300.56H274.341L275.049 316.84Z" fill="#FF8B7B"/>
<path d="M326.255 300.349L319.45 302.12L311.918 287.265L318.723 285.485L326.255 300.349Z" fill="#FF8B7B"/>
<path d="M318.924 301.316L324.944 296.205C325.051 296.114 325.187 296.065 325.327 296.065C325.467 296.065 325.603 296.114 325.71 296.205L330.811 300.033C330.935 300.129 331.034 300.252 331.103 300.392C331.171 300.532 331.207 300.686 331.207 300.842C331.207 300.998 331.171 301.152 331.103 301.292C331.034 301.432 330.935 301.555 330.811 301.651C328.677 303.393 327.547 304.139 324.906 306.389C323.269 307.767 318.359 312.514 316.11 314.428C313.861 316.343 311.678 314.361 312.425 313.376C315.794 308.973 317.986 304.675 318.302 302.359C318.372 301.946 318.594 301.574 318.924 301.316Z" fill="#263238"/>
<path d="M268.062 316.027H275.719C275.859 316.028 275.994 316.075 276.104 316.162C276.213 316.249 276.29 316.37 276.322 316.506L277.71 322.756C277.743 322.906 277.742 323.063 277.706 323.213C277.671 323.363 277.601 323.503 277.504 323.623C277.406 323.743 277.283 323.839 277.143 323.904C277.003 323.969 276.85 324.002 276.696 324C273.93 324 269.919 323.799 266.445 323.799C262.368 323.799 260.597 324.019 255.821 324.019C252.949 324.019 252.136 321.1 253.342 320.832C258.836 319.635 261.592 319.501 266.349 316.573C266.858 316.234 267.452 316.045 268.062 316.027Z" fill="#263238"/>
<path d="M258.252 90.8728C255.916 95.0076 253.466 98.9223 250.844 102.827C248.221 106.732 245.445 110.484 242.402 114.208C242.028 114.677 241.626 115.165 241.234 115.586L240.65 116.275L240.353 116.619L239.856 117.136C238.703 118.315 237.356 119.286 235.874 120.008C233.497 121.156 230.986 122.005 228.399 122.535C223.654 123.497 218.814 123.905 213.975 123.75L213.458 118.495C217.721 117.399 221.922 116.077 226.044 114.533C227.889 113.845 229.659 112.973 231.328 111.93C231.889 111.571 232.39 111.125 232.811 110.609L233.625 109.498C233.941 109.058 234.266 108.628 234.582 108.168C237.118 104.569 239.559 100.798 241.942 96.9889C244.326 93.1795 246.728 89.3319 249.015 85.5034L258.252 90.8728Z" fill="#FF8B7B"/>
<path d="M296.479 76.8509C303.074 78.3632 310.626 96.3284 310.626 96.3284L297.389 105.402C294.099 100.679 291.177 95.7095 288.65 90.5378C284.745 82.3065 289.741 75.3004 296.479 76.8509Z" fill="#263238"/>
<path opacity="0.3" d="M291.76 88.3365L298.02 105L297.398 105.431C297.398 105.431 294.689 101.602 291.76 96.5008V88.3365Z" fill="black"/>
<path d="M257.094 77.2051C257.094 77.2051 249.609 85.6565 256.672 137.983H294.278C294.536 132.24 290.909 104.043 296.479 76.8414C292.323 76.041 288.118 75.5103 283.893 75.2526C278.57 74.9461 273.233 74.9461 267.909 75.2526C264.259 75.6204 260.642 76.2732 257.094 77.2051Z" fill="#263238"/>
<path opacity="0.3" d="M261.267 92.3373C260.288 98.2752 257.722 103.838 253.839 108.436C253.686 105.067 253.629 102.043 253.638 99.3339L261.267 92.3373Z" fill="black"/>
<path d="M264.511 82.9096C265.468 89.5616 252.318 106.57 252.318 106.57L239.176 97.4962C239.176 97.4962 242.823 88.1259 248.987 81.9812C255.974 74.9367 263.497 75.6642 264.511 82.9096Z" fill="#263238"/>
<path d="M213.879 118.476L206.51 117.586L206.711 126.564C206.711 126.564 212.511 127.062 215.669 123.023L213.879 118.476Z" fill="#FF8B7B"/>
<path d="M199.159 119.778L202.03 127.043L206.71 126.564L206.509 117.586L199.159 119.778Z" fill="#FF8B7B"/>
<path opacity="0.2" d="M267.316 300.56L267.708 309.71H274.743L274.351 300.56H267.316Z" fill="black"/>
<path opacity="0.2" d="M318.723 285.495L311.918 287.265L316.091 295.497L322.609 293.152L318.723 285.495Z" fill="black"/>
<path d="M282.333 49.5155C281.912 56.4738 282.017 60.5798 278.504 64.1499C273.211 69.529 264.616 66.3417 262.951 59.3643C261.458 53.1047 262.406 42.7677 269.23 40.0017C270.731 39.3849 272.365 39.1623 273.976 39.355C275.587 39.5478 277.122 40.1495 278.436 41.1029C279.749 42.0564 280.796 43.3299 281.478 44.8023C282.16 46.2748 282.455 47.8973 282.333 49.5155Z" fill="#FF8B7B"/>
<path d="M269.804 52.7601C266.119 52.0231 267.459 47.6012 268.368 46.2995C268.082 46.2136 267.824 46.0543 267.618 45.8375C267.413 45.6208 267.268 45.3541 267.197 45.0639C267.126 44.7737 267.133 44.4701 267.216 44.1831C267.299 43.8962 267.455 43.636 267.67 43.4282C266.129 43.4282 262.233 43.1602 262.453 38.6425C262.673 34.1249 265.545 34.5939 266.607 37.2069C267.076 35.6646 268.126 34.3646 269.534 33.5808C270.943 32.797 272.601 32.5906 274.159 33.0051C278.15 33.9622 274.637 36.0296 274.637 36.0296C274.637 36.0296 283.347 34.2781 282.132 38.7478C285.903 38.9584 291.387 42.4423 288.621 45.4477C290.267 48.6828 290.009 50.8937 287.932 51.7552C287.214 55.6411 283.089 63.0875 279.95 63.0875C277.356 63.0779 269.976 59.5653 269.804 52.7601Z" fill="#263238"/>
<path d="M272.896 51.4106C272.582 53.114 271.718 54.6674 270.436 55.8325C268.732 57.3448 267.249 56.1292 267.201 54.0618C267.201 52.1954 267.986 49.1518 269.948 48.4244C271.91 47.6969 273.24 49.3432 272.896 51.4106Z" fill="#FF8B7B"/>
<path d="M270.015 137.983C270.015 137.983 277.997 191.706 282.371 211.806C287.157 233.819 311.583 292.836 311.583 292.836L323.834 288.892C323.834 288.892 306.175 235.676 303.466 213.844C300.499 190.155 294.278 137.983 294.278 137.983H270.015Z" fill="#5DB152"/>
<path d="M308.979 290.29C308.931 290.29 311.793 294.578 311.793 294.578L325.557 290.041L323.92 285.935L308.979 290.29Z" fill="#263238"/>
<path opacity="0.3" d="M275.059 157.125C284.285 158.934 283.309 193.343 282.199 211.04C279.538 198.53 275.642 174.459 272.982 157.374C273.625 157.057 274.358 156.969 275.059 157.125Z" fill="black"/>
<path d="M256.672 137.983C256.672 137.983 253.342 190.557 254.107 211.997C254.902 234.298 265.057 307.327 265.057 307.327H276.963C276.963 307.327 275.049 235.6 275.566 213.701C276.15 189.773 281.395 137.983 281.395 137.983H256.672Z" fill="#5DB152"/>
<path d="M262.76 302.579C262.712 302.579 263.439 307.528 263.439 307.528H277.921L278.313 303.115L262.76 302.579Z" fill="#263238"/>
</svg>
